AnekKannada-ExpandedExtraBold.ufo
<glyph name="comma" format="2">
  <advance width="581"/>
  <unicode hex="002C"/>
  <outline>
    <contour>
      <point x="107" y="342" type="line"/>
      <point x="111" y="295"/>
      <point x="113" y="255"/>
      <point x="113" y="208" type="curve" smooth="yes"/>
      <point x="113" y="46"/>
      <point x="82" y="-85"/>
      <point x="20" y="-206" type="curve"/>
      <point x="298" y="-262" type="line"/>
      <point x="428" y="-119"/>
      <point x="481" y="36"/>
      <point x="481" y="221" type="curve" smooth="yes"/>
      <point x="481" y="263"/>
      <point x="476" y="308"/>
      <point x="470" y="342" type="curve"/>
    </contour>
  </outline>
</glyph>
<glyph name="less" format="2">
  <advance width="1322"/>
  <unicode hex="003C"/>
  <outline>
    <contour>
      <point x="1207" y="729" type="line"/>
      <point x="1207" y="1061" type="line"/>
      <point x="115" y="842" type="line"/>
      <point x="115" y="340" type="line"/>
      <point x="1207" y="117" type="line"/>
      <point x="1207" y="451" type="line"/>
      <point x="368" y="581" type="line"/>
      <point x="368" y="604" type="line"/>
    </contour>
  </outline>
</glyph>
<glyph name="D" format="2">
  <advance width="1654"/>
  <unicode hex="0044"/>
  <anchor x="802" y="0" name="bottom"/>
  <anchor x="827" y="639" name="center"/>
  <anchor x="802" y="1278" name="top"/>
  <outline>
    <contour>
      <point x="850" y="0" type="line" smooth="yes"/>
      <point x="1327" y="0"/>
      <point x="1576" y="226"/>
      <point x="1576" y="633" type="curve" smooth="yes"/>
      <point x="1576" y="651" type="line" smooth="yes"/>
      <point x="1576" y="1054"/>
      <point x="1327" y="1278"/>
      <point x="850" y="1278" type="curve" smooth="yes"/>
      <point x="434" y="1278" type="line"/>
      <point x="434" y="950" type="line"/>
      <point x="841" y="950" type="line" smooth="yes"/>
      <point x="1051" y="950"/>
      <point x="1158" y="835"/>
      <point x="1158" y="649" type="curve" smooth="yes"/>
      <point x="1158" y="632" type="line" smooth="yes"/>
      <point x="1158" y="445"/>
      <point x="1051" y="328"/>
      <point x="841" y="328" type="curve" smooth="yes"/>
      <point x="434" y="328" type="line"/>
      <point x="434" y="0" type="line"/>
    </contour>
    <contour>
      <point x="537" y="0" type="line"/>
      <point x="537" y="1278" type="line"/>
      <point x="134" y="1278" type="line"/>
      <point x="134" y="0" type="line"/>
    </contour>
  </outline>
</glyph>
<glyph name="U" format="2">
  <advance width="1692"/>
  <unicode hex="0055"/>
  <anchor x="846" y="0" name="bottom"/>
  <anchor x="1280" y="10" name="ogonek"/>
  <anchor x="846" y="1278" name="top"/>
  <anchor x="1672" y="1278" name="topright"/>
  <outline>
    <contour>
      <point x="846" y="-45" type="curve" smooth="yes"/>
      <point x="1331" y="-45"/>
      <point x="1570" y="175"/>
      <point x="1570" y="607" type="curve" smooth="yes"/>
      <point x="1570" y="1278" type="line"/>
      <point x="1164" y="1278" type="line"/>
      <point x="1164" y="608" type="line" smooth="yes"/>
      <point x="1164" y="401"/>
      <point x="1057" y="289"/>
      <point x="846" y="289" type="curve" smooth="yes"/>
      <point x="635" y="289"/>
      <point x="528" y="401"/>
      <point x="528" y="608" type="curve" smooth="yes"/>
      <point x="528" y="1278" type="line"/>
      <point x="122" y="1278" type="line"/>
      <point x="122" y="607" type="line" smooth="yes"/>
      <point x="122" y="175"/>
      <point x="363" y="-45"/>
    </contour>
  </outline>
</glyph>
<glyph name="n" format="2">
  <advance width="1439"/>
  <unicode hex="006E"/>
  <anchor x="720" y="0" name="bottom"/>
  <anchor x="720" y="963" name="top"/>
  <outline>
    <contour>
      <point x="1331" y="0" type="line"/>
      <point x="1331" y="575" type="line" smooth="yes"/>
      <point x="1331" y="847"/>
      <point x="1190" y="997"/>
      <point x="919" y="997" type="curve" smooth="yes"/>
      <point x="668" y="997"/>
      <point x="547" y="872"/>
      <point x="514" y="712" type="curve"/>
      <point x="464" y="712" type="line"/>
      <point x="505" y="541" type="line"/>
      <point x="547" y="611"/>
      <point x="611" y="671"/>
      <point x="738" y="671" type="curve" smooth="yes"/>
      <point x="902" y="671"/>
      <point x="934" y="570"/>
      <point x="934" y="468" type="curve" smooth="yes"/>
      <point x="934" y="0" type="line"/>
    </contour>
    <contour>
      <point x="515" y="0" type="line"/>
      <point x="515" y="609" type="line"/>
      <point x="499" y="644" type="line"/>
      <point x="515" y="963" type="line"/>
      <point x="118" y="963" type="line"/>
      <point x="118" y="0" type="line"/>
    </contour>
  </outline>
</glyph>
<glyph name="v" format="2">
  <advance width="1338"/>
  <unicode hex="0076"/>
  <anchor x="669" y="0" name="bottom"/>
  <anchor x="669" y="963" name="top"/>
  <outline>
    <contour>
      <point x="659" y="253" type="line"/>
      <point x="422" y="963" type="line"/>
      <point x="4" y="963" type="line"/>
      <point x="358" y="0" type="line"/>
      <point x="985" y="0" type="line"/>
      <point x="1334" y="963" type="line"/>
      <point x="919" y="963" type="line"/>
      <point x="688" y="253" type="line"/>
    </contour>
  </outline>
</glyph>
<glyph name="asciitilde" format="2">
  <advance width="1366"/>
  <unicode hex="007E"/>
  <outline>
    <contour>
      <point x="925" y="423" type="curve" smooth="yes"/>
      <point x="1154" y="423"/>
      <point x="1251" y="542"/>
      <point x="1251" y="786" type="curve" smooth="yes"/>
      <point x="1251" y="841" type="line"/>
      <point x="972" y="841" type="line"/>
      <point x="972" y="837" type="line"/>
      <point x="967" y="762"/>
      <point x="947" y="726"/>
      <point x="883" y="726" type="curve" smooth="yes"/>
      <point x="768" y="726"/>
      <point x="628" y="816"/>
      <point x="439" y="816" type="curve" smooth="yes"/>
      <point x="211" y="816"/>
      <point x="115" y="697"/>
      <point x="115" y="454" type="curve" smooth="yes"/>
      <point x="115" y="398" type="line"/>
      <point x="392" y="398" type="line"/>
      <point x="392" y="411" type="line"/>
      <point x="398" y="479"/>
      <point x="417" y="513"/>
      <point x="481" y="513" type="curve" smooth="yes"/>
      <point x="597" y="513"/>
      <point x="746" y="423"/>
    </contour>
  </outline>
</glyph>
<glyph name="yen" format="2">
  <advance width="1562"/>
  <unicode hex="00A5"/>
  <outline>
    <component base="Y"/>
    <contour>
      <point x="1413" y="501" type="line"/>
      <point x="1432" y="695" type="line"/>
      <point x="914" y="695" type="line"/>
      <point x="851" y="501" type="line"/>
    </contour>
    <contour>
      <point x="132" y="209" type="line"/>
      <point x="1413" y="209" type="line"/>
      <point x="1432" y="403" type="line"/>
      <point x="153" y="403" type="line"/>
    </contour>
    <contour>
      <point x="153" y="695" type="line"/>
      <point x="132" y="501" type="line"/>
      <point x="729" y="501" type="line"/>
      <point x="665" y="695" type="line"/>
    </contour>
  </outline>
</glyph>
<glyph name="logicalnot" format="2">
  <advance width="1322"/>
  <unicode hex="00AC"/>
  <outline>
    <contour>
      <point x="1207" y="651" type="line"/>
      <point x="879" y="651" type="line"/>
      <point x="879" y="69" type="line"/>
      <point x="1207" y="69" type="line"/>
    </contour>
    <contour>
      <point x="1207" y="448" type="line"/>
      <point x="1207" y="750" type="line"/>
      <point x="115" y="750" type="line"/>
      <point x="115" y="448" type="line"/>
    </contour>
  </outline>
</glyph>
<glyph name="twosuperior" format="2">
  <advance width="794"/>
  <unicode hex="00B2"/>
  <outline>
    <contour>
      <point x="758" y="751" type="line"/>
      <point x="758" y="961" type="line"/>
      <point x="333" y="961" type="line"/>
      <point x="469" y="917" type="line"/>
      <point x="469" y="968" type="line"/>
      <point x="538" y="989" type="line" smooth="yes"/>
      <point x="681" y="1032"/>
      <point x="746" y="1105"/>
      <point x="746" y="1215" type="curve" smooth="yes"/>
      <point x="746" y="1223" type="line" smooth="yes"/>
      <point x="746" y="1369"/>
      <point x="620" y="1451"/>
      <point x="383" y="1451" type="curve" smooth="yes"/>
      <point x="264" y="1451"/>
      <point x="134" y="1421"/>
      <point x="59" y="1388" type="curve"/>
      <point x="33" y="1179" type="line"/>
      <point x="121" y="1210"/>
      <point x="242" y="1241"/>
      <point x="342" y="1241" type="curve" smooth="yes"/>
      <point x="439" y="1241"/>
      <point x="471" y="1224"/>
      <point x="471" y="1186" type="curve"/>
      <point x="471" y="1184" type="line"/>
      <point x="471" y="1137"/>
      <point x="417" y="1110"/>
      <point x="272" y="1054" type="curve" smooth="yes"/>
      <point x="33" y="961" type="line"/>
      <point x="33" y="751" type="line"/>
    </contour>
  </outline>
</glyph>
<glyph name="Oslash" format="2">
  <advance width="1734"/>
  <unicode hex="00D8"/>
  <anchor x="867" y="0" name="bottom"/>
  <anchor x="867" y="641" name="center"/>
  <anchor x="1561" y="12" name="ogonek"/>
  <anchor x="867" y="1278" name="top"/>
  <anchor x="20" y="1280" name="topleft"/>
  <anchor x="1714" y="1280" name="topright"/>
  <outline>
    <contour>
      <point x="867" y="-43" type="curve" smooth="yes"/>
      <point x="1382" y="-43"/>
      <point x="1652" y="205"/>
      <point x="1652" y="634" type="curve"/>
      <point x="1652" y="648" type="line"/>
      <point x="1652" y="1059"/>
      <point x="1364" y="1325"/>
      <point x="867" y="1325" type="curve" smooth="yes"/>
      <point x="352" y="1325"/>
      <point x="82" y="1077"/>
      <point x="82" y="648" type="curve"/>
      <point x="82" y="634" type="line"/>
      <point x="82" y="223"/>
      <point x="370" y="-43"/>
    </contour>
    <contour>
      <point x="387" y="-75" type="line"/>
      <point x="526" y="83" type="line"/>
      <point x="618" y="187" type="line"/>
      <point x="1288" y="951" type="line"/>
      <point x="1362" y="1036" type="line"/>
      <point x="1642" y="1354" type="line"/>
      <point x="1353" y="1354" type="line"/>
      <point x="1207" y="1188" type="line"/>
      <point x="1108" y="1076" type="line"/>
      <point x="454" y="335" type="line"/>
      <point x="344" y="210" type="line"/>
      <point x="92" y="-75" type="line"/>
    </contour>
    <contour>
      <point x="867" y="285" type="curve" smooth="yes"/>
      <point x="634" y="285"/>
      <point x="504" y="421"/>
      <point x="504" y="633" type="curve" smooth="yes"/>
      <point x="504" y="649" type="line" smooth="yes"/>
      <point x="504" y="866"/>
      <point x="628" y="997"/>
      <point x="867" y="997" type="curve" smooth="yes"/>
      <point x="1099" y="997"/>
      <point x="1230" y="860"/>
      <point x="1230" y="649" type="curve" smooth="yes"/>
      <point x="1230" y="633" type="line" smooth="yes"/>
      <point x="1230" y="416"/>
      <point x="1104" y="285"/>
    </contour>
  </outline>
</glyph>
<glyph name="circumflexcomb" format="2">
  <advance width="1062"/>
  <unicode hex="0302"/>
  <anchor x="531" y="963" name="_top"/>
  <anchor x="531" y="1370" name="top"/>
  <outline>
    <contour>
      <point x="100" y="1082" type="line"/>
      <point x="100" y="1073" type="line"/>
      <point x="399" y="1073" type="line"/>
      <point x="526" y="1203" type="line"/>
      <point x="536" y="1203" type="line"/>
      <point x="661" y="1073" type="line"/>
      <point x="962" y="1073" type="line"/>
      <point x="962" y="1082" type="line"/>
      <point x="730" y="1385" type="line"/>
      <point x="332" y="1385" type="line"/>
    </contour>
  </outline>
</glyph>
<glyph name="Candrabindu_Spacing.ka" format="2">
  <advance width="1598"/>
  <unicode hex="0C80"/>
  <unicode hex="0D04"/>
  <outline>
    <contour>
      <point x="797" y="1045" type="curve" smooth="yes"/>
      <point x="921" y="1045"/>
      <point x="992" y="975"/>
      <point x="992" y="825" type="curve" smooth="yes"/>
      <point x="992" y="801" type="line" smooth="yes"/>
      <point x="992" y="651"/>
      <point x="921" y="581"/>
      <point x="797" y="581" type="curve" smooth="yes"/>
      <point x="673" y="581"/>
      <point x="602" y="651"/>
      <point x="602" y="801" type="curve" smooth="yes"/>
      <point x="602" y="825" type="line" smooth="yes"/>
      <point x="602" y="975"/>
      <point x="673" y="1045"/>
    </contour>
    <contour>
      <point x="797" y="44" type="curve" smooth="yes"/>
      <point x="1269" y="44"/>
      <point x="1512" y="245.407"/>
      <point x="1512" y="652" type="curve" smooth="yes"/>
      <point x="1512" y="715.57"/>
      <point x="1506.5" y="763.357"/>
      <point x="1497" y="815" type="curve"/>
      <point x="1141" y="815" type="line"/>
      <point x="1141" y="720" type="line" smooth="yes"/>
      <point x="1141" y="475"/>
      <point x="1036" y="362"/>
      <point x="797" y="362" type="curve" smooth="yes"/>
      <point x="558" y="362"/>
      <point x="454" y="475"/>
      <point x="454" y="720" type="curve" smooth="yes"/>
      <point x="454" y="815" type="line"/>
      <point x="103" y="815" type="line"/>
      <point x="93.5" y="763.357"/>
      <point x="88" y="715.57"/>
      <point x="88" y="652" type="curve" smooth="yes"/>
      <point x="88" y="245.407"/>
      <point x="331" y="44"/>
    </contour>
  </outline>
</glyph>
<glyph name="Candrabindu" format="2">
  <unicode hex="0C81"/>
  <unicode hex="0D01"/>
  <outline>
    <contour>
      <point x="-1059" y="1524" type="curve" smooth="yes"/>
      <point x="-1240" y="1524"/>
      <point x="-1326" y="1609"/>
      <point x="-1326" y="1761" type="curve" smooth="yes"/>
      <point x="-1326" y="1799" type="line"/>
      <point x="-1608" y="1799" type="line"/>
      <point x="-1608" y="1750" type="line" smooth="yes"/>
      <point x="-1608" y="1442"/>
      <point x="-1407" y="1287"/>
      <point x="-1059" y="1287" type="curve" smooth="yes"/>
      <point x="-712" y="1287"/>
      <point x="-511" y="1442"/>
      <point x="-511" y="1750" type="curve" smooth="yes"/>
      <point x="-511" y="1799" type="line"/>
      <point x="-793" y="1799" type="line"/>
      <point x="-793" y="1761" type="line" smooth="yes"/>
      <point x="-793" y="1609"/>
      <point x="-878" y="1524"/>
    </contour>
    <contour>
      <point x="-1224" y="1806" type="line" smooth="yes"/>
      <point x="-1224" y="1690"/>
      <point x="-1165" y="1626"/>
      <point x="-1059" y="1626" type="curve" smooth="yes"/>
      <point x="-955" y="1626"/>
      <point x="-895" y="1690"/>
      <point x="-895" y="1806" type="curve" smooth="yes"/>
      <point x="-895" y="1811" type="line" smooth="yes"/>
      <point x="-895" y="1931"/>
      <point x="-955" y="1991"/>
      <point x="-1059" y="1991" type="curve" smooth="yes"/>
      <point x="-1165" y="1991"/>
      <point x="-1224" y="1931"/>
      <point x="-1224" y="1811" type="curve" smooth="yes"/>
    </contour>
  </outline>
</glyph>
<glyph name="Anuswara.kn" format="2">
  <advance width="1420"/>
  <unicode hex="0C82"/>
  <outline>
    <contour>
      <point x="85" y="559" type="line" smooth="yes"/>
      <point x="85" y="209"/>
      <point x="307" y="26"/>
      <point x="710" y="26" type="curve" smooth="yes"/>
      <point x="1113" y="26"/>
      <point x="1335" y="209"/>
      <point x="1335" y="559" type="curve" smooth="yes"/>
      <point x="1335" y="573" type="line" smooth="yes"/>
      <point x="1335" y="923"/>
      <point x="1113" y="1106"/>
      <point x="710" y="1106" type="curve" smooth="yes"/>
      <point x="307" y="1106"/>
      <point x="85" y="923"/>
      <point x="85" y="573" type="curve" smooth="yes"/>
    </contour>
    <contour>
      <point x="710" y="332" type="curve" smooth="yes"/>
      <point x="541" y="332"/>
      <point x="451" y="412"/>
      <point x="451" y="563" type="curve" smooth="yes"/>
      <point x="451" y="569" type="line" smooth="yes"/>
      <point x="451" y="720"/>
      <point x="541" y="800"/>
      <point x="710" y="800" type="curve" smooth="yes"/>
      <point x="879" y="800"/>
      <point x="969" y="720"/>
      <point x="969" y="569" type="curve" smooth="yes"/>
      <point x="969" y="563" type="line" smooth="yes"/>
      <point x="969" y="412"/>
      <point x="879" y="332"/>
    </contour>
  </outline>
</glyph>
<glyph name="Visarga.kn" format="2">
  <advance width="918"/>
  <unicode hex="0C83"/>
  <outline>
    <contour>
      <point x="459" y="-24" type="curve" smooth="yes"/>
      <point x="736" y="-24"/>
      <point x="878" y="72"/>
      <point x="878" y="259" type="curve" smooth="yes"/>
      <point x="878" y="262" type="line" smooth="yes"/>
      <point x="878" y="449"/>
      <point x="736" y="545"/>
      <point x="459" y="545" type="curve" smooth="yes"/>
      <point x="182" y="545"/>
      <point x="40" y="449"/>
      <point x="40" y="262" type="curve" smooth="yes"/>
      <point x="40" y="259" type="line" smooth="yes"/>
      <point x="40" y="72"/>
      <point x="182" y="-24"/>
    </contour>
    <contour>
      <point x="459" y="323" type="curve" smooth="yes"/>
      <point x="523" y="323"/>
      <point x="561" y="302"/>
      <point x="561" y="262" type="curve" smooth="yes"/>
      <point x="561" y="259" type="line" smooth="yes"/>
      <point x="561" y="219"/>
      <point x="523" y="198"/>
      <point x="459" y="198" type="curve" smooth="yes"/>
      <point x="395" y="198"/>
      <point x="357" y="219"/>
      <point x="357" y="259" type="curve" smooth="yes"/>
      <point x="357" y="262" type="line" smooth="yes"/>
      <point x="357" y="302"/>
      <point x="395" y="323"/>
    </contour>
    <contour>
      <point x="459" y="604" type="curve" smooth="yes"/>
      <point x="736" y="604"/>
      <point x="878" y="700"/>
      <point x="878" y="887" type="curve" smooth="yes"/>
      <point x="878" y="890" type="line" smooth="yes"/>
      <point x="878" y="1077"/>
      <point x="736" y="1173"/>
      <point x="459" y="1173" type="curve" smooth="yes"/>
      <point x="182" y="1173"/>
      <point x="40" y="1077"/>
      <point x="40" y="890" type="curve" smooth="yes"/>
      <point x="40" y="887" type="line" smooth="yes"/>
      <point x="40" y="700"/>
      <point x="182" y="604"/>
    </contour>
    <contour>
      <point x="459" y="951" type="curve" smooth="yes"/>
      <point x="523" y="951"/>
      <point x="561" y="930"/>
      <point x="561" y="890" type="curve" smooth="yes"/>
      <point x="561" y="887" type="line" smooth="yes"/>
      <point x="561" y="847"/>
      <point x="523" y="826"/>
      <point x="459" y="826" type="curve" smooth="yes"/>
      <point x="395" y="826"/>
      <point x="357" y="847"/>
      <point x="357" y="887" type="curve" smooth="yes"/>
      <point x="357" y="890" type="line" smooth="yes"/>
      <point x="357" y="930"/>
      <point x="395" y="951"/>
    </contour>
  </outline>
</glyph>
<glyph name="swastisri" format="2">
  <advance width="1840"/>
  <unicode hex="0C84"/>
  <outline>
    <contour>
      <point x="1780" y="541" type="line"/>
      <point x="1780" y="140.711"/>
      <point x="1485" y="-80"/>
      <point x="953" y="-80" type="curve" smooth="yes"/>
      <point x="381" y="-80"/>
      <point x="60" y="169"/>
      <point x="60" y="615" type="curve"/>
      <point x="60" y="617" type="line"/>
      <point x="60" y="1108"/>
      <point x="417" y="1392"/>
      <point x="1039" y="1392" type="curve"/>
      <point x="1069" y="1188" type="line"/>
      <point x="610" y="1188"/>
      <point x="338" y="976"/>
      <point x="338" y="618" type="curve"/>
      <point x="338" y="616" type="line"/>
      <point x="338" y="307"/>
      <point x="566" y="123"/>
      <point x="949" y="123" type="curve" smooth="yes"/>
      <point x="1295" y="123"/>
      <point x="1502" y="281.749"/>
      <point x="1502" y="547" type="curve"/>
      <point x="1502" y="549" type="line"/>
      <point x="1502" y="792.737"/>
      <point x="1342" y="935"/>
      <point x="1069" y="935" type="curve" smooth="yes"/>
      <point x="821" y="935"/>
      <point x="678" y="819"/>
      <point x="678" y="624" type="curve"/>
      <point x="678" y="622" type="line"/>
      <point x="678" y="471"/>
      <point x="781" y="377"/>
      <point x="952" y="377" type="curve" smooth="yes"/>
      <point x="1086" y="377"/>
      <point x="1163" y="443"/>
      <point x="1163" y="556" type="curve"/>
      <point x="1163" y="558" type="line"/>
      <point x="1163" y="654"/>
      <point x="1129" y="687"/>
      <point x="1070" y="687" type="curve" smooth="yes"/>
      <point x="1033" y="687"/>
      <point x="1012" y="668"/>
      <point x="1012" y="635" type="curve"/>
      <point x="1012" y="633" type="line"/>
      <point x="1012" y="599"/>
      <point x="1042" y="581"/>
      <point x="1100" y="579" type="curve"/>
      <point x="1100" y="477" type="line"/>
      <point x="1067" y="448"/>
      <point x="1015" y="431"/>
      <point x="960" y="431" type="curve" smooth="yes"/>
      <point x="819" y="431"/>
      <point x="739" y="500"/>
      <point x="739" y="623" type="curve"/>
      <point x="739" y="625" type="line"/>
      <point x="739" y="788"/>
      <point x="860" y="881"/>
      <point x="1071" y="881" type="curve" smooth="yes"/>
      <point x="1302" y="881"/>
      <point x="1436" y="760"/>
      <point x="1436" y="550" type="curve"/>
      <point x="1436" y="548" type="line"/>
      <point x="1436" y="312"/>
      <point x="1260" y="177"/>
      <point x="952" y="177" type="curve" smooth="yes"/>
      <point x="605" y="177"/>
      <point x="404" y="337"/>
      <point x="404" y="616" type="curve"/>
      <point x="404" y="618" type="line"/>
      <point x="404" y="943"/>
      <point x="651" y="1135"/>
      <point x="1071" y="1135" type="curve" smooth="yes"/>
      <point x="1522" y="1135"/>
      <point x="1780" y="918.731"/>
      <point x="1780" y="543" type="curve"/>
    </contour>
  </outline>
</glyph>
<glyph name="vowelA.kn" format="2">
  <advance width="2246"/>
  <unicode hex="0C85"/>
  <outline>
    <contour>
      <point x="1646" y="434" type="line"/>
      <point x="1646" y="704" type="line"/>
      <point x="1017" y="704" type="line"/>
      <point x="1017" y="434" type="line"/>
    </contour>
    <contour>
      <point x="1604" y="1211" type="curve" smooth="yes"/>
      <point x="1314" y="1211"/>
      <point x="1157" y="1109"/>
      <point x="1157" y="919" type="curve" smooth="yes"/>
      <point x="1157" y="914" type="line" smooth="yes"/>
      <point x="1157" y="793"/>
      <point x="1224" y="731"/>
      <point x="1353" y="713" type="curve"/>
      <point x="1353" y="663" type="line"/>
      <point x="1630" y="663" type="line"/>
      <point x="1630" y="704" type="line"/>
      <point x="1542" y="704"/>
      <point x="1499" y="734"/>
      <point x="1499" y="796" type="curve" smooth="yes"/>
      <point x="1499" y="800" type="line" smooth="yes"/>
      <point x="1499" y="859"/>
      <point x="1540" y="892"/>
      <point x="1613" y="892" type="curve" smooth="yes"/>
      <point x="1732" y="892"/>
      <point x="1793" y="819"/>
      <point x="1793" y="671" type="curve" smooth="yes"/>
      <point x="1793" y="667" type="line" smooth="yes"/>
      <point x="1793" y="414"/>
      <point x="1568" y="293"/>
      <point x="1125" y="293" type="curve" smooth="yes"/>
      <point x="661" y="293"/>
      <point x="431" y="403"/>
      <point x="431" y="629" type="curve" smooth="yes"/>
      <point x="431" y="653" type="line"/>
      <point x="56" y="669" type="line"/>
      <point x="56" y="666" type="line" smooth="yes"/>
      <point x="56" y="198"/>
      <point x="420" y="-37"/>
      <point x="1131" y="-37" type="curve" smooth="yes"/>
      <point x="1827" y="-37"/>
      <point x="2181" y="195"/>
      <point x="2181" y="653" type="curve" smooth="yes"/>
      <point x="2181" y="657" type="line" smooth="yes"/>
      <point x="2181" y="1021"/>
      <point x="1984" y="1211"/>
    </contour>
    <contour>
      <point x="588" y="1211" type="curve" smooth="yes"/>
      <point x="248" y="1211"/>
      <point x="56" y="1016"/>
      <point x="56" y="670" type="curve" smooth="yes"/>
      <point x="56" y="667" type="line"/>
      <point x="431" y="652" type="line"/>
      <point x="431" y="702" type="line" smooth="yes"/>
      <point x="431" y="828"/>
      <point x="485" y="901"/>
      <point x="588" y="901" type="curve" smooth="yes"/>
      <point x="661" y="901"/>
      <point x="703" y="868"/>
      <point x="703" y="807" type="curve"/>
      <point x="703" y="805" type="line"/>
      <point x="703" y="749"/>
      <point x="664" y="717"/>
      <point x="588" y="717" type="curve" smooth="yes"/>
      <point x="514" y="717"/>
      <point x="447" y="743"/>
      <point x="398" y="791" type="curve"/>
      <point x="378" y="639" type="line"/>
      <point x="441" y="639" type="line"/>
      <point x="472" y="525"/>
      <point x="565" y="463"/>
      <point x="719" y="463" type="curve" smooth="yes"/>
      <point x="930" y="463"/>
      <point x="1056" y="592"/>
      <point x="1056" y="811" type="curve"/>
      <point x="1056" y="813" type="line"/>
      <point x="1056" y="1071"/>
      <point x="893" y="1211"/>
    </contour>
  </outline>
</glyph>
<glyph name="vowelAa.kn" format="2">
  <advance width="2215"/>
  <unicode hex="0C86"/>
  <outline>
    <contour>
      <point x="1632" y="434" type="line" smooth="yes"/>
      <point x="1670" y="434"/>
      <point x="1688" y="419"/>
      <point x="1688" y="394" type="curve"/>
      <point x="1688" y="392" type="line"/>
      <point x="1688" y="321"/>
      <point x="1501" y="293"/>
      <point x="1165" y="293" type="curve" smooth="yes"/>
      <point x="675" y="293"/>
      <point x="431" y="403"/>
      <point x="431" y="629" type="curve" smooth="yes"/>
      <point x="431" y="655" type="line"/>
      <point x="56" y="668" type="line"/>
      <point x="56" y="665" type="line" smooth="yes"/>
      <point x="56" y="199"/>
      <point x="434" y="-37"/>
      <point x="1171" y="-37" type="curve" smooth="yes"/>
      <point x="1766" y="-37"/>
      <point x="2083" y="86"/>
      <point x="2083" y="332" type="curve" smooth="yes"/>
      <point x="2083" y="336" type="line" smooth="yes"/>
      <point x="2083" y="475"/>
      <point x="2005" y="552"/>
      <point x="1837" y="564" type="curve"/>
      <point x="1837" y="573" type="line"/>
      <point x="2033" y="583"/>
      <point x="2156" y="682"/>
      <point x="2156" y="855" type="curve"/>
      <point x="2156" y="857" type="line"/>
      <point x="2156" y="1087"/>
      <point x="1976" y="1211"/>
      <point x="1652" y="1211" type="curve" smooth="yes"/>
      <point x="1342" y="1211"/>
      <point x="1174" y="1115"/>
      <point x="1174" y="930" type="curve" smooth="yes"/>
      <point x="1174" y="922" type="line" smooth="yes"/>
      <point x="1174" y="812"/>
      <point x="1239" y="743"/>
      <point x="1363" y="722" type="curve"/>
      <point x="1363" y="712" type="line"/>
      <point x="1017" y="712" type="line"/>
      <point x="1017" y="434" type="line"/>
    </contour>
    <contour>
      <point x="1791" y="804" type="line" smooth="yes"/>
      <point x="1791" y="746"/>
      <point x="1741" y="713"/>
      <point x="1652" y="713" type="curve" smooth="yes"/>
      <point x="1563" y="713"/>
      <point x="1513" y="746"/>
      <point x="1513" y="804" type="curve" smooth="yes"/>
      <point x="1513" y="808" type="line" smooth="yes"/>
      <point x="1513" y="867"/>
      <point x="1563" y="899"/>
      <point x="1652" y="899" type="curve" smooth="yes"/>
      <point x="1741" y="899"/>
      <point x="1791" y="867"/>
      <point x="1791" y="808" type="curve" smooth="yes"/>
    </contour>
    <contour>
      <point x="588" y="1211" type="curve" smooth="yes"/>
      <point x="248" y="1211"/>
      <point x="56" y="1016"/>
      <point x="56" y="670" type="curve" smooth="yes"/>
      <point x="56" y="667" type="line"/>
      <point x="431" y="652" type="line"/>
      <point x="431" y="702" type="line" smooth="yes"/>
      <point x="431" y="828"/>
      <point x="485" y="901"/>
      <point x="588" y="901" type="curve" smooth="yes"/>
      <point x="661" y="901"/>
      <point x="703" y="868"/>
      <point x="703" y="807" type="curve"/>
      <point x="703" y="805" type="line"/>
      <point x="703" y="749"/>
      <point x="664" y="717"/>
      <point x="588" y="717" type="curve" smooth="yes"/>
      <point x="514" y="717"/>
      <point x="447" y="743"/>
      <point x="398" y="791" type="curve"/>
      <point x="378" y="639" type="line"/>
      <point x="441" y="639" type="line"/>
      <point x="472" y="525"/>
      <point x="565" y="463"/>
      <point x="719" y="463" type="curve" smooth="yes"/>
      <point x="930" y="463"/>
      <point x="1056" y="592"/>
      <point x="1056" y="811" type="curve"/>
      <point x="1056" y="813" type="line"/>
      <point x="1056" y="1071"/>
      <point x="893" y="1211"/>
    </contour>
  </outline>
</glyph>
<glyph name="vowelI.kn" format="2">
  <advance width="1938"/>
  <unicode hex="0C87"/>
  <outline>
    <contour>
      <point x="1903" y="-174" type="line"/>
      <point x="1849" y="9"/>
      <point x="1774" y="174"/>
      <point x="1629" y="347" type="curve"/>
      <point x="1441" y="143" type="line"/>
      <point x="1453" y="41"/>
      <point x="1461" y="-62"/>
      <point x="1461" y="-174" type="curve"/>
    </contour>
    <contour>
      <point x="1845" y="720" type="curve" smooth="yes"/>
      <point x="1845" y="734" type="line" smooth="yes"/>
      <point x="1845" y="1048"/>
      <point x="1671" y="1213"/>
      <point x="1348" y="1213" type="curve" smooth="yes"/>
      <point x="1092" y="1213"/>
      <point x="957" y="1106"/>
      <point x="936" y="923" type="curve"/>
      <point x="926" y="923" type="line"/>
      <point x="905" y="1106"/>
      <point x="764" y="1213"/>
      <point x="498" y="1213" type="curve" smooth="yes"/>
      <point x="191" y="1213"/>
      <point x="25" y="1079"/>
      <point x="25" y="824" type="curve" smooth="yes"/>
      <point x="25" y="818" type="line" smooth="yes"/>
      <point x="25" y="774"/>
      <point x="31" y="726"/>
      <point x="46" y="689" type="curve"/>
      <point x="417" y="689" type="line"/>
      <point x="411" y="703"/>
      <point x="407" y="727"/>
      <point x="407" y="750" type="curve" smooth="yes"/>
      <point x="407" y="754" type="line" smooth="yes"/>
      <point x="407" y="837"/>
      <point x="460" y="878"/>
      <point x="564" y="878" type="curve" smooth="yes"/>
      <point x="664" y="878"/>
      <point x="717" y="829"/>
      <point x="724" y="734" type="curve" smooth="yes"/>
      <point x="726" y="708" type="line"/>
      <point x="1136" y="708" type="line"/>
      <point x="1138" y="734" type="line" smooth="yes"/>
      <point x="1144" y="829"/>
      <point x="1196" y="878"/>
      <point x="1292" y="878" type="curve" smooth="yes"/>
      <point x="1400" y="878"/>
      <point x="1455" y="818"/>
      <point x="1455" y="693" type="curve" smooth="yes"/>
      <point x="1455" y="689" type="line" smooth="yes"/>
      <point x="1455" y="608"/>
      <point x="1432" y="524"/>
      <point x="1372" y="431" type="curve"/>
      <point x="1344" y="377" type="line"/>
      <point x="1263" y="281"/>
      <point x="1062" y="243"/>
      <point x="859" y="243" type="curve" smooth="yes"/>
      <point x="709" y="243"/>
      <point x="646" y="264"/>
      <point x="646" y="310" type="curve"/>
      <point x="646" y="312" type="line"/>
      <point x="646" y="358"/>
      <point x="708" y="380"/>
      <point x="861" y="380" type="curve" smooth="yes"/>
      <point x="1059" y="380"/>
      <point x="1187" y="344"/>
      <point x="1329" y="263" type="curve"/>
      <point x="1474" y="475" type="line"/>
      <point x="1304" y="595"/>
      <point x="1083" y="659"/>
      <point x="828" y="659" type="curve" smooth="yes"/>
      <point x="465" y="659"/>
      <point x="271" y="540"/>
      <point x="271" y="310" type="curve"/>
      <point x="271" y="308" type="line"/>
      <point x="271" y="79"/>
      <point x="462" y="-37"/>
      <point x="841" y="-37" type="curve" smooth="yes"/>
      <point x="1100" y="-37"/>
      <point x="1369" y="17"/>
      <point x="1502" y="125" type="curve"/>
      <point x="1613" y="199" type="line"/>
      <point x="1760" y="324"/>
      <point x="1845" y="519"/>
    </contour>
  </outline>
</glyph>
<glyph name="vowelII.kn" format="2">
  <advance width="2374"/>
  <unicode hex="0C88"/>
  <outline>
    <contour>
      <point x="506" y="908" type="line"/>
      <point x="506" y="880" type="line"/>
      <point x="332" y="837"/>
      <point x="235" y="714"/>
      <point x="235" y="530" type="curve" smooth="yes"/>
      <point x="235" y="482" type="line" smooth="yes"/>
      <point x="235" y="137"/>
      <point x="502" y="-51"/>
      <point x="990" y="-51" type="curve" smooth="yes"/>
      <point x="1478" y="-51"/>
      <point x="1745" y="137"/>
      <point x="1745" y="482" type="curve" smooth="yes"/>
      <point x="1745" y="530" type="line" smooth="yes"/>
      <point x="1745" y="714"/>
      <point x="1648" y="837"/>
      <point x="1474" y="880" type="curve"/>
      <point x="1474" y="908" type="line"/>
    </contour>
    <contour>
      <point x="990" y="270" type="curve" smooth="yes"/>
      <point x="746" y="270"/>
      <point x="615" y="379"/>
      <point x="615" y="577" type="curve" smooth="yes"/>
      <point x="615" y="583" type="line" smooth="yes"/>
      <point x="615" y="781"/>
      <point x="746" y="889"/>
      <point x="990" y="889" type="curve" smooth="yes"/>
      <point x="1234" y="889"/>
      <point x="1365" y="781"/>
      <point x="1365" y="583" type="curve" smooth="yes"/>
      <point x="1365" y="577" type="line" smooth="yes"/>
      <point x="1365" y="379"/>
      <point x="1234" y="270"/>
    </contour>
    <contour>
      <point x="1348" y="889" type="line"/>
      <point x="1338" y="1174" type="line"/>
      <point x="205" y="1174" type="line"/>
      <point x="205" y="889" type="line"/>
    </contour>
    <contour>
      <point x="1947" y="356" type="line" smooth="yes"/>
      <point x="1947" y="296"/>
      <point x="1909" y="270"/>
      <point x="1834" y="270" type="curve" smooth="yes"/>
      <point x="1806" y="270"/>
      <point x="1782" y="272"/>
      <point x="1761" y="277" type="curve"/>
      <point x="1806" y="-22" type="line"/>
      <point x="1856" y="-31"/>
      <point x="1909" y="-37"/>
      <point x="1964" y="-37" type="curve" smooth="yes"/>
      <point x="2205" y="-37"/>
      <point x="2334" y="58"/>
      <point x="2334" y="239" type="curve" smooth="yes"/>
      <point x="2334" y="246" type="line" smooth="yes"/>
      <point x="2334" y="377"/>
      <point x="2252" y="464"/>
      <point x="2101" y="484" type="curve"/>
      <point x="2101" y="515" type="line"/>
      <point x="1658" y="515" type="line"/>
      <point x="1684" y="446" type="line"/>
      <point x="1824" y="446" type="line" smooth="yes"/>
      <point x="1912" y="446"/>
      <point x="1947" y="417"/>
      <point x="1947" y="360" type="curve" smooth="yes"/>
    </contour>
    <contour>
      <point x="1972" y="491" type="line"/>
      <point x="2052" y="491" type="line" smooth="yes"/>
      <point x="2246" y="491"/>
      <point x="2312" y="573"/>
      <point x="2312" y="683" type="curve" smooth="yes"/>
      <point x="2312" y="782"/>
      <point x="2263" y="882"/>
      <point x="2173" y="976" type="curve"/>
      <point x="1922" y="976" type="line"/>
      <point x="1922" y="715" type="line"/>
      <point x="1590" y="715" type="line"/>
      <point x="1531" y="719" type="line"/>
      <point x="453" y="719" type="line"/>
      <point x="419" y="732" type="line"/>
      <point x="40" y="732" type="line"/>
      <point x="40" y="445" type="line"/>
      <point x="418" y="445" type="line"/>
      <point x="452" y="453" type="line"/>
      <point x="1565" y="453" type="line"/>
      <point x="1624" y="446" type="line"/>
      <point x="1972" y="446" type="line"/>
    </contour>
    <contour>
      <point x="1415" y="1546" type="line"/>
      <point x="1450" y="1473"/>
      <point x="1479" y="1380"/>
      <point x="1479" y="1305" type="curve" smooth="yes"/>
      <point x="1479" y="1210"/>
      <point x="1445" y="1174"/>
      <point x="1353" y="1174" type="curve" smooth="yes"/>
      <point x="1323" y="1174" type="line"/>
      <point x="1323" y="889" type="line"/>
      <point x="1495" y="889" type="line" smooth="yes"/>
      <point x="1716" y="889"/>
      <point x="1826" y="1005"/>
      <point x="1826" y="1233" type="curve" smooth="yes"/>
      <point x="1826" y="1338"/>
      <point x="1796" y="1446"/>
      <point x="1730" y="1546" type="curve"/>
    </contour>
  </outline>
  <guideline angle="90" x="7616" y="0"/>
  <guideline angle="0" x="0" y="2328"/>
  <guideline angle="0" x="0" y="1379"/>
  <guideline angle="0" x="0" y="1536"/>
  <guideline angle="0" x="0" y="1536"/>
</glyph>
<glyph name="vowelU.kn" format="2">
  <advance width="3150"/>
  <unicode hex="0C89"/>
  <outline>
    <contour>
      <point x="618" y="1211" type="curve" smooth="yes"/>
      <point x="927" y="1211"/>
      <point x="1092" y="1069"/>
      <point x="1092" y="803" type="curve"/>
      <point x="1092" y="801" type="line"/>
      <point x="1092" y="576"/>
      <point x="964" y="444"/>
      <point x="747" y="444" type="curve" smooth="yes"/>
      <point x="586" y="444"/>
      <point x="487" y="511"/>
      <point x="455" y="635" type="curve"/>
      <point x="392" y="635" type="line"/>
      <point x="402" y="787" type="line"/>
      <point x="459" y="728"/>
      <point x="532" y="698"/>
      <point x="616" y="698" type="curve" smooth="yes"/>
      <point x="698" y="698"/>
      <point x="739" y="733"/>
      <point x="739" y="795" type="curve"/>
      <point x="739" y="797" type="line"/>
      <point x="739" y="865"/>
      <point x="695" y="901"/>
      <point x="616" y="901" type="curve" smooth="yes"/>
      <point x="504" y="901"/>
      <point x="445" y="828"/>
      <point x="445" y="698" type="curve" smooth="yes"/>
      <point x="445" y="682.861" type="line"/>
      <point x="75" y="629.668" type="line"/>
      <point x="75" y="637" type="line" smooth="yes"/>
      <point x="75" y="1011"/>
      <point x="271" y="1211"/>
    </contour>
    <contour>
      <point x="445" y="626" type="line" smooth="yes"/>
      <point x="445" y="404"/>
      <point x="569" y="288"/>
      <point x="806" y="288" type="curve" smooth="yes"/>
      <point x="1056" y="288"/>
      <point x="1182" y="395"/>
      <point x="1182" y="601" type="curve" smooth="yes"/>
      <point x="1182" y="711" type="line" smooth="yes"/>
      <point x="1182" y="1038"/>
      <point x="1353" y="1207"/>
      <point x="1683" y="1207" type="curve" smooth="yes"/>
      <point x="2014" y="1207"/>
      <point x="2184" y="1038"/>
      <point x="2184" y="711" type="curve" smooth="yes"/>
      <point x="2184" y="666" type="line"/>
      <point x="1809" y="666" type="line"/>
      <point x="1809" y="702" type="line" smooth="yes"/>
      <point x="1809" y="824"/>
      <point x="1770" y="882"/>
      <point x="1683" y="882" type="curve" smooth="yes"/>
      <point x="1597" y="882"/>
      <point x="1557" y="826"/>
      <point x="1557" y="702" type="curve" smooth="yes"/>
      <point x="1557" y="601" type="line" smooth="yes"/>
      <point x="1557" y="183"/>
      <point x="1303" y="-37"/>
      <point x="810" y="-37" type="curve" smooth="yes"/>
      <point x="324" y="-37"/>
      <point x="75" y="191"/>
      <point x="75" y="623" type="curve" smooth="yes"/>
      <point x="75" y="631.668" type="line"/>
      <point x="445" y="684.861" type="line"/>
    </contour>
    <contour>
      <point x="3057" y="558" type="line" smooth="yes"/>
      <point x="3057" y="168"/>
      <point x="2843" y="-35"/>
      <point x="2436" y="-35" type="curve" smooth="yes"/>
      <point x="2023" y="-35"/>
      <point x="1809" y="159"/>
      <point x="1809" y="535" type="curve" smooth="yes"/>
      <point x="1809" y="689" type="line"/>
      <point x="2184" y="689" type="line"/>
      <point x="2184" y="557" type="line" smooth="yes"/>
      <point x="2184" y="381"/>
      <point x="2266" y="295"/>
      <point x="2427" y="295" type="curve" smooth="yes"/>
      <point x="2586" y="295"/>
      <point x="2667" y="387"/>
      <point x="2667" y="565" type="curve" smooth="yes"/>
      <point x="2667" y="569" type="line" smooth="yes"/>
      <point x="2667" y="760"/>
      <point x="2583" y="851"/>
      <point x="2415" y="851" type="curve" smooth="yes"/>
      <point x="2384" y="851"/>
      <point x="2359" y="849"/>
      <point x="2341" y="844" type="curve"/>
      <point x="2341" y="1175" type="line"/>
      <point x="2391" y="1183"/>
      <point x="2437" y="1187"/>
      <point x="2487" y="1187" type="curve" smooth="yes"/>
      <point x="2856" y="1187"/>
      <point x="3057" y="968"/>
      <point x="3057" y="564" type="curve" smooth="yes"/>
    </contour>
  </outline>
</glyph>
<glyph name="vowelUu.kn" format="2">
  <advance width="3990"/>
  <unicode hex="0C8A"/>
  <outline>
    <contour>
      <point x="2787" y="516" type="line"/>
      <point x="2787" y="439" type="line" smooth="yes"/>
      <point x="2787" y="127"/>
      <point x="2620" y="-37"/>
      <point x="2298" y="-37" type="curve" smooth="yes"/>
      <point x="1975" y="-37"/>
      <point x="1809" y="127"/>
      <point x="1809" y="439" type="curve" smooth="yes"/>
      <point x="1809" y="676" type="line"/>
      <point x="2184" y="676" type="line"/>
      <point x="2184" y="449" type="line" smooth="yes"/>
      <point x="2184" y="340"/>
      <point x="2219" y="288"/>
      <point x="2298" y="288" type="curve" smooth="yes"/>
      <point x="2376" y="288"/>
      <point x="2412" y="338"/>
      <point x="2412" y="449" type="curve" smooth="yes"/>
      <point x="2412" y="516" type="line"/>
    </contour>
    <contour>
      <point x="618" y="1211" type="curve" smooth="yes"/>
      <point x="927" y="1211"/>
      <point x="1092" y="1069"/>
      <point x="1092" y="803" type="curve"/>
      <point x="1092" y="801" type="line"/>
      <point x="1092" y="576"/>
      <point x="964" y="444"/>
      <point x="747" y="444" type="curve" smooth="yes"/>
      <point x="586" y="444"/>
      <point x="487" y="511"/>
      <point x="455" y="635" type="curve"/>
      <point x="392" y="635" type="line"/>
      <point x="402" y="787" type="line"/>
      <point x="459" y="728"/>
      <point x="532" y="698"/>
      <point x="616" y="698" type="curve" smooth="yes"/>
      <point x="698" y="698"/>
      <point x="739" y="733"/>
      <point x="739" y="795" type="curve"/>
      <point x="739" y="797" type="line"/>
      <point x="739" y="865"/>
      <point x="695" y="901"/>
      <point x="616" y="901" type="curve" smooth="yes"/>
      <point x="504" y="901"/>
      <point x="445" y="828"/>
      <point x="445" y="698" type="curve" smooth="yes"/>
      <point x="445" y="682.861" type="line"/>
      <point x="75" y="629.668" type="line"/>
      <point x="75" y="637" type="line" smooth="yes"/>
      <point x="75" y="1011"/>
      <point x="271" y="1211"/>
    </contour>
    <contour>
      <point x="445" y="626" type="line" smooth="yes"/>
      <point x="445" y="404"/>
      <point x="569" y="288"/>
      <point x="806" y="288" type="curve" smooth="yes"/>
      <point x="1056" y="288"/>
      <point x="1182" y="395"/>
      <point x="1182" y="601" type="curve" smooth="yes"/>
      <point x="1182" y="711" type="line" smooth="yes"/>
      <point x="1182" y="1038"/>
      <point x="1353" y="1207"/>
      <point x="1683" y="1207" type="curve" smooth="yes"/>
      <point x="2014" y="1207"/>
      <point x="2184" y="1038"/>
      <point x="2184" y="711" type="curve" smooth="yes"/>
      <point x="2184" y="666" type="line"/>
      <point x="1809" y="666" type="line"/>
      <point x="1809" y="702" type="line" smooth="yes"/>
      <point x="1809" y="824"/>
      <point x="1770" y="882"/>
      <point x="1683" y="882" type="curve" smooth="yes"/>
      <point x="1597" y="882"/>
      <point x="1557" y="826"/>
      <point x="1557" y="702" type="curve" smooth="yes"/>
      <point x="1557" y="601" type="line" smooth="yes"/>
      <point x="1557" y="183"/>
      <point x="1303" y="-37"/>
      <point x="810" y="-37" type="curve" smooth="yes"/>
      <point x="324" y="-37"/>
      <point x="75" y="191"/>
      <point x="75" y="623" type="curve" smooth="yes"/>
      <point x="75" y="631.668" type="line"/>
      <point x="445" y="684.861" type="line"/>
    </contour>
    <contour>
      <point x="3152.98" y="1211" type="curve" smooth="yes"/>
      <point x="3643.98" y="1211"/>
      <point x="3899.98" y="976"/>
      <point x="3899.98" y="529" type="curve" smooth="yes"/>
      <point x="3899.98" y="523.496" type="line"/>
      <point x="3519.98" y="475.557" type="line"/>
      <point x="3519.98" y="541" type="line" smooth="yes"/>
      <point x="3519.98" y="767"/>
      <point x="3395.98" y="886"/>
      <point x="3154.98" y="886" type="curve" smooth="yes"/>
      <point x="2910.98" y="886"/>
      <point x="2786.98" y="771"/>
      <point x="2786.98" y="541" type="curve" smooth="yes"/>
      <point x="2786.98" y="487" type="line"/>
      <point x="2411.98" y="487" type="line"/>
      <point x="2411.98" y="547" type="line" smooth="yes"/>
      <point x="2411.98" y="984"/>
      <point x="2664.98" y="1211"/>
    </contour>
    <contour>
      <point x="3899.98" y="518" type="line" smooth="yes"/>
      <point x="3899.98" y="158"/>
      <point x="3710.98" y="-36"/>
      <point x="3374.98" y="-36" type="curve" smooth="yes"/>
      <point x="3061.98" y="-36"/>
      <point x="2892.98" y="106"/>
      <point x="2892.98" y="372" type="curve"/>
      <point x="2892.98" y="374" type="line"/>
      <point x="2892.98" y="599"/>
      <point x="3021.98" y="731"/>
      <point x="3240.98" y="731" type="curve" smooth="yes"/>
      <point x="3388.98" y="731"/>
      <point x="3480.98" y="660"/>
      <point x="3509.98" y="530" type="curve"/>
      <point x="3572.98" y="530" type="line"/>
      <point x="3562.98" y="377" type="line"/>
      <point x="3511.98" y="436"/>
      <point x="3446.98" y="466"/>
      <point x="3371.98" y="466" type="curve" smooth="yes"/>
      <point x="3292.98" y="466"/>
      <point x="3252.98" y="431"/>
      <point x="3252.98" y="369" type="curve"/>
      <point x="3252.98" y="367" type="line"/>
      <point x="3252.98" y="299"/>
      <point x="3294.98" y="263"/>
      <point x="3371.98" y="263" type="curve" smooth="yes"/>
      <point x="3468.98" y="263"/>
      <point x="3519.98" y="328"/>
      <point x="3519.98" y="452" type="curve" smooth="yes"/>
      <point x="3519.98" y="476.557" type="line"/>
      <point x="3899.98" y="524.496" type="line"/>
    </contour>
  </outline>
</glyph>
<glyph name="vowelLru.kn" format="2">
  <advance width="2038"/>
  <unicode hex="0C8C"/>
  <outline>
    <contour>
      <point x="547" y="0" type="line"/>
      <point x="494" y="89"/>
      <point x="459" y="194"/>
      <point x="459" y="294" type="curve"/>
      <point x="459" y="295" type="line"/>
      <point x="459" y="434"/>
      <point x="522" y="501"/>
      <point x="651" y="501" type="curve" smooth="yes"/>
      <point x="767" y="501"/>
      <point x="829" y="428"/>
      <point x="833" y="286" type="curve" smooth="yes"/>
      <point x="842" y="1" type="line"/>
      <point x="1196" y="1" type="line"/>
      <point x="1205" y="286" type="line" smooth="yes"/>
      <point x="1209" y="428"/>
      <point x="1271" y="501"/>
      <point x="1387" y="501" type="curve" smooth="yes"/>
      <point x="1516" y="501"/>
      <point x="1579" y="434"/>
      <point x="1579" y="295" type="curve"/>
      <point x="1579" y="294" type="line"/>
      <point x="1579" y="194"/>
      <point x="1544" y="89"/>
      <point x="1491" y="0" type="curve"/>
      <point x="1874" y="0" type="line"/>
      <point x="1934" y="88"/>
      <point x="1965" y="213"/>
      <point x="1965" y="345" type="curve" smooth="yes"/>
      <point x="1965" y="348" type="line" smooth="yes"/>
      <point x="1965" y="658"/>
      <point x="1802" y="818"/>
      <point x="1508" y="818" type="curve" smooth="yes"/>
      <point x="1327" y="818"/>
      <point x="1230" y="752"/>
      <point x="1187" y="647" type="curve"/>
      <point x="1177" y="650" type="line"/>
      <point x="1196" y="729"/>
      <point x="1209" y="811"/>
      <point x="1209" y="913" type="curve" smooth="yes"/>
      <point x="1209" y="1174" type="line"/>
      <point x="829" y="1174" type="line"/>
      <point x="829" y="913" type="line" smooth="yes"/>
      <point x="829" y="811"/>
      <point x="842" y="729"/>
      <point x="861" y="650" type="curve"/>
      <point x="851" y="647" type="line"/>
      <point x="809" y="751"/>
      <point x="710" y="818"/>
      <point x="530" y="818" type="curve" smooth="yes"/>
      <point x="236" y="818"/>
      <point x="73" y="658"/>
      <point x="73" y="348" type="curve" smooth="yes"/>
      <point x="73" y="345" type="line" smooth="yes"/>
      <point x="73" y="213"/>
      <point x="104" y="88"/>
      <point x="164" y="0" type="curve"/>
    </contour>
  </outline>
</glyph>
<glyph name="vowelE.kn" format="2">
  <advance width="2043"/>
  <unicode hex="0C8E"/>
  <outline>
    <contour>
      <point x="1457" y="-37" type="curve" smooth="yes"/>
      <point x="1780" y="-37"/>
      <point x="1953" y="148"/>
      <point x="1953" y="472" type="curve" smooth="yes"/>
      <point x="1953" y="482" type="line" smooth="yes"/>
      <point x="1953" y="1002"/>
      <point x="1592" y="1262"/>
      <point x="783" y="1262" type="curve" smooth="yes"/>
      <point x="723" y="1262"/>
      <point x="647" y="1263"/>
      <point x="603" y="1263" type="curve"/>
      <point x="477" y="938" type="line"/>
      <point x="550" y="938"/>
      <point x="657" y="938"/>
      <point x="728" y="938" type="curve" smooth="yes"/>
      <point x="1311" y="938"/>
      <point x="1563" y="783"/>
      <point x="1563" y="489" type="curve" smooth="yes"/>
      <point x="1563" y="483" type="line" smooth="yes"/>
      <point x="1563" y="363"/>
      <point x="1507" y="298"/>
      <point x="1404" y="298" type="curve" smooth="yes"/>
      <point x="1306" y="298"/>
      <point x="1253" y="354"/>
      <point x="1246" y="462" type="curve" smooth="yes"/>
      <point x="1243" y="506" type="line"/>
      <point x="834" y="506" type="line"/>
      <point x="831" y="462" type="line" smooth="yes"/>
      <point x="823" y="347"/>
      <point x="747" y="288"/>
      <point x="610" y="288" type="curve" smooth="yes"/>
      <point x="503" y="288"/>
      <point x="454" y="317"/>
      <point x="454" y="377" type="curve"/>
      <point x="454" y="379" type="line"/>
      <point x="454" y="432"/>
      <point x="496" y="461"/>
      <point x="576" y="461" type="curve" smooth="yes"/>
      <point x="627" y="461"/>
      <point x="677" y="452"/>
      <point x="713" y="436" type="curve"/>
      <point x="694" y="732" type="line"/>
      <point x="636" y="754"/>
      <point x="577" y="763"/>
      <point x="497" y="763" type="curve" smooth="yes"/>
      <point x="225" y="763"/>
      <point x="73" y="619"/>
      <point x="73" y="379" type="curve" smooth="yes"/>
      <point x="73" y="373" type="line" smooth="yes"/>
      <point x="73" y="104"/>
      <point x="248" y="-37"/>
      <point x="581" y="-37" type="curve" smooth="yes"/>
      <point x="862" y="-37"/>
      <point x="1010" y="74"/>
      <point x="1033" y="273" type="curve"/>
      <point x="1043" y="273" type="line"/>
      <point x="1063" y="74"/>
      <point x="1201" y="-37"/>
    </contour>
  </outline>
</glyph>
<glyph name="vowelEe.kn" format="2">
  <advance width="2043"/>
  <unicode hex="0C8F"/>
  <outline>
    <contour>
      <point x="1563" y="489" type="curve" smooth="yes"/>
      <point x="1563" y="483" type="line" smooth="yes"/>
      <point x="1563" y="363"/>
      <point x="1507" y="298"/>
      <point x="1404" y="298" type="curve" smooth="yes"/>
      <point x="1306" y="298"/>
      <point x="1253" y="354"/>
      <point x="1246" y="462" type="curve" smooth="yes"/>
      <point x="1243" y="506" type="line"/>
      <point x="834" y="506" type="line"/>
      <point x="831" y="462" type="line" smooth="yes"/>
      <point x="823" y="347"/>
      <point x="747" y="288"/>
      <point x="610" y="288" type="curve" smooth="yes"/>
      <point x="503" y="288"/>
      <point x="454" y="317"/>
      <point x="454" y="377" type="curve"/>
      <point x="454" y="379" type="line"/>
      <point x="454" y="432"/>
      <point x="496" y="461"/>
      <point x="576" y="461" type="curve" smooth="yes"/>
      <point x="627" y="461"/>
      <point x="677" y="452"/>
      <point x="713" y="436" type="curve"/>
      <point x="694" y="732" type="line"/>
      <point x="636" y="754"/>
      <point x="577" y="763"/>
      <point x="497" y="763" type="curve" smooth="yes"/>
      <point x="225" y="763"/>
      <point x="73" y="619"/>
      <point x="73" y="379" type="curve" smooth="yes"/>
      <point x="73" y="373" type="line" smooth="yes"/>
      <point x="73" y="104"/>
      <point x="248" y="-37"/>
      <point x="581" y="-37" type="curve" smooth="yes"/>
      <point x="862" y="-37"/>
      <point x="1010" y="74"/>
      <point x="1033" y="273" type="curve"/>
      <point x="1043" y="273" type="line"/>
      <point x="1063" y="74"/>
      <point x="1201" y="-37"/>
      <point x="1457" y="-37" type="curve" smooth="yes"/>
      <point x="1780" y="-37"/>
      <point x="1953" y="148"/>
      <point x="1953" y="472" type="curve" smooth="yes"/>
      <point x="1953" y="482" type="line" smooth="yes"/>
      <point x="1953" y="997"/>
      <point x="1627" y="1237"/>
      <point x="1025" y="1262" type="curve"/>
      <point x="1087" y="926" type="line"/>
      <point x="1397" y="891"/>
      <point x="1563" y="754"/>
    </contour>
    <contour>
      <point x="792" y="782" type="curve" smooth="yes"/>
      <point x="1031" y="782"/>
      <point x="1235" y="870"/>
      <point x="1235" y="1157" type="curve"/>
      <point x="1025" y="1262" type="line"/>
      <point x="1025" y="1261" type="line"/>
      <point x="1025" y="1154"/>
      <point x="947" y="1093"/>
      <point x="834" y="1093" type="curve" smooth="yes"/>
      <point x="710" y="1093"/>
      <point x="641" y="1153"/>
      <point x="641" y="1261" type="curve" smooth="yes"/>
      <point x="641" y="1266" type="line"/>
      <point x="261" y="1224" type="line"/>
      <point x="261" y="1205" type="line" smooth="yes"/>
      <point x="261" y="916"/>
      <point x="462" y="782"/>
    </contour>
  </outline>
</glyph>
<glyph name="vowelO.kn" format="2">
  <advance width="2034"/>
  <unicode hex="0C92"/>
  <outline>
    <contour>
      <point x="1521" y="636" type="line"/>
      <point x="1560" y="584"/>
      <point x="1576" y="523"/>
      <point x="1576" y="463" type="curve" smooth="yes"/>
      <point x="1576" y="460" type="line" smooth="yes"/>
      <point x="1576" y="354"/>
      <point x="1523" y="298"/>
      <point x="1418" y="298" type="curve" smooth="yes"/>
      <point x="1311" y="298"/>
      <point x="1255" y="353"/>
      <point x="1248" y="460" type="curve" smooth="yes"/>
      <point x="1247" y="476" type="line"/>
      <point x="1025" y="476" type="line"/>
      <point x="1046" y="277" type="line" smooth="yes"/>
      <point x="1066" y="75"/>
      <point x="1208" y="-37"/>
      <point x="1477" y="-37" type="curve" smooth="yes"/>
      <point x="1796" y="-37"/>
      <point x="1964" y="114"/>
      <point x="1964" y="389" type="curve" smooth="yes"/>
      <point x="1964" y="394" type="line" smooth="yes"/>
      <point x="1964" y="495"/>
      <point x="1929" y="584"/>
      <point x="1888" y="636" type="curve"/>
    </contour>
    <contour>
      <point x="605" y="1211" type="curve" smooth="yes"/>
      <point x="280" y="1211"/>
      <point x="101" y="1082"/>
      <point x="101" y="848" type="curve" smooth="yes"/>
      <point x="101" y="841" type="line" smooth="yes"/>
      <point x="101" y="776"/>
      <point x="118" y="724"/>
      <point x="138" y="693" type="curve"/>
      <point x="472" y="693" type="line"/>
      <point x="454" y="721"/>
      <point x="444" y="755"/>
      <point x="444" y="788" type="curve" smooth="yes"/>
      <point x="444" y="791" type="line" smooth="yes"/>
      <point x="444" y="871"/>
      <point x="498" y="911"/>
      <point x="607" y="911" type="curve" smooth="yes"/>
      <point x="701" y="911"/>
      <point x="746" y="882"/>
      <point x="746" y="825" type="curve"/>
      <point x="746" y="823" type="line"/>
      <point x="746" y="773"/>
      <point x="709" y="750"/>
      <point x="579" y="726" type="curve" smooth="yes"/>
      <point x="482" y="708" type="line" smooth="yes"/>
      <point x="194" y="655"/>
      <point x="76" y="553"/>
      <point x="76" y="343" type="curve" smooth="yes"/>
      <point x="76" y="335" type="line" smooth="yes"/>
      <point x="76" y="95"/>
      <point x="255" y="-37"/>
      <point x="578" y="-37" type="curve" smooth="yes"/>
      <point x="862" y="-37"/>
      <point x="1013" y="74"/>
      <point x="1036" y="273" type="curve"/>
      <point x="1057" y="273" type="line"/>
      <point x="1057" y="476" type="line"/>
      <point x="835" y="476" type="line"/>
      <point x="834" y="462" type="line" smooth="yes"/>
      <point x="825" y="340"/>
      <point x="742" y="276"/>
      <point x="589" y="276" type="curve" smooth="yes"/>
      <point x="487" y="276"/>
      <point x="440" y="303"/>
      <point x="440" y="351" type="curve" smooth="yes"/>
      <point x="440" y="355" type="line" smooth="yes"/>
      <point x="440" y="404"/>
      <point x="479" y="427"/>
      <point x="613" y="452" type="curve" smooth="yes"/>
      <point x="710" y="470" type="line" smooth="yes"/>
      <point x="974" y="519"/>
      <point x="1099" y="618"/>
      <point x="1099" y="817" type="curve" smooth="yes"/>
      <point x="1099" y="823" type="line" smooth="yes"/>
      <point x="1099" y="1074"/>
      <point x="925" y="1211"/>
    </contour>
  </outline>
</glyph>
<glyph name="vowelOo.kn" format="2">
  <advance width="2034"/>
  <unicode hex="0C93"/>
  <outline>
    <component base="vowelO.kn"/>
    <contour>
      <point x="763" y="1673" type="curve" smooth="yes"/>
      <point x="447" y="1673"/>
      <point x="275" y="1563"/>
      <point x="275" y="1367" type="curve" smooth="yes"/>
      <point x="275" y="1361" type="line" smooth="yes"/>
      <point x="275" y="1222"/>
      <point x="368" y="1129"/>
      <point x="571" y="1113" type="curve"/>
      <point x="738" y="1201" type="line"/>
      <point x="652" y="1216"/>
      <point x="624" y="1249"/>
      <point x="624" y="1290" type="curve"/>
      <point x="624" y="1292" type="line"/>
      <point x="624" y="1349"/>
      <point x="669" y="1379"/>
      <point x="768" y="1379" type="curve" smooth="yes"/>
      <point x="867" y="1379"/>
      <point x="917" y="1348"/>
      <point x="917" y="1288" type="curve" smooth="yes"/>
      <point x="917" y="1285" type="line" smooth="yes"/>
      <point x="917" y="1269"/>
      <point x="914" y="1252"/>
      <point x="910" y="1238" type="curve"/>
      <point x="1233" y="1238" type="line"/>
      <point x="1244" y="1260"/>
      <point x="1253" y="1294"/>
      <point x="1253" y="1342" type="curve" smooth="yes"/>
      <point x="1253" y="1345" type="line" smooth="yes"/>
      <point x="1253" y="1554"/>
      <point x="1079" y="1673"/>
    </contour>
  </outline>
  <guideline angle="0" x="0" y="1684"/>
</glyph>
<glyph name="Kha.kn" format="2">
  <advance width="2182"/>
  <unicode hex="0C96"/>
  <outline>
    <contour>
      <point x="581" y="-37" type="curve" smooth="yes"/>
      <point x="952.941" y="-37"/>
      <point x="1189" y="118"/>
      <point x="1189" y="362" type="curve"/>
      <point x="1068" y="291" type="line"/>
      <point x="1216" y="291" type="line"/>
      <point x="1253" y="400"/>
      <point x="1272" y="506"/>
      <point x="1272" y="605" type="curve" smooth="yes"/>
      <point x="1272" y="610" type="line" smooth="yes"/>
      <point x="1272" y="1004"/>
      <point x="1055.73" y="1211"/>
      <point x="647" y="1211" type="curve" smooth="yes"/>
      <point x="284.268" y="1211"/>
      <point x="92" y="1075.49"/>
      <point x="92" y="823" type="curve" smooth="yes"/>
      <point x="92" y="818" type="line" smooth="yes"/>
      <point x="92" y="777"/>
      <point x="98" y="733"/>
      <point x="113" y="699" type="curve"/>
      <point x="483" y="699" type="line"/>
      <point x="477" y="713"/>
      <point x="473" y="735"/>
      <point x="473" y="757" type="curve"/>
      <point x="473" y="758" type="line"/>
      <point x="473" y="852"/>
      <point x="536.271" y="900"/>
      <point x="656" y="900" type="curve" smooth="yes"/>
      <point x="805.745" y="900"/>
      <point x="886" y="804.63"/>
      <point x="886" y="617" type="curve"/>
      <point x="886" y="615" type="line"/>
      <point x="886" y="543.54"/>
      <point x="875" y="476.975"/>
      <point x="852" y="383" type="curve"/>
      <point x="851.849" y="381.49"/>
      <point x="851.107" y="374.068"/>
      <point x="851" y="373" type="curve"/>
      <point x="799.985" y="288"/>
      <point x="718.557" y="246"/>
      <point x="592" y="246" type="curve" smooth="yes"/>
      <point x="492.576" y="246"/>
      <point x="453" y="269"/>
      <point x="453" y="318" type="curve"/>
      <point x="453" y="320" type="line"/>
      <point x="453" y="369"/>
      <point x="487.487" y="390"/>
      <point x="567" y="390" type="curve" smooth="yes"/>
      <point x="687" y="390"/>
      <point x="811.918" y="350"/>
      <point x="867" y="303" type="curve"/>
      <point x="929" y="536" type="line"/>
      <point x="838.127" y="617"/>
      <point x="707.745" y="663"/>
      <point x="526" y="663" type="curve" smooth="yes"/>
      <point x="223.326" y="663"/>
      <point x="71" y="549"/>
      <point x="71" y="332" type="curve"/>
      <point x="71" y="331" type="line"/>
      <point x="71" y="91.4916"/>
      <point x="246.282" y="-37"/>
    </contour>
    <contour>
      <point x="1564" y="-36" type="curve" smooth="yes"/>
      <point x="1910" y="-36"/>
      <point x="2089" y="163"/>
      <point x="2089" y="556" type="curve" smooth="yes"/>
      <point x="2089" y="567" type="line" smooth="yes"/>
      <point x="2089" y="968"/>
      <point x="1892" y="1184"/>
      <point x="1529" y="1184" type="curve" smooth="yes"/>
      <point x="1479" y="1184"/>
      <point x="1433" y="1180"/>
      <point x="1383" y="1172" type="curve"/>
      <point x="1383" y="841" type="line"/>
      <point x="1401" y="846"/>
      <point x="1426" y="848"/>
      <point x="1457" y="848" type="curve" smooth="yes"/>
      <point x="1618" y="848"/>
      <point x="1699" y="757"/>
      <point x="1699" y="567" type="curve" smooth="yes"/>
      <point x="1699" y="557" type="line" smooth="yes"/>
      <point x="1699" y="384"/>
      <point x="1620" y="292"/>
      <point x="1474" y="292" type="curve" smooth="yes"/>
      <point x="1341.19" y="292"/>
      <point x="1266" y="365"/>
      <point x="1266" y="495" type="curve" smooth="yes"/>
      <point x="1266" y="541" type="line"/>
      <point x="1136" y="551" type="line"/>
      <point x="1136" y="315" type="line" smooth="yes"/>
      <point x="1136" y="93"/>
      <point x="1292.18" y="-36"/>
    </contour>
  </outline>
</glyph>
<glyph name="Ja.kn" format="2">
  <advance width="2049"/>
  <unicode hex="0C9C"/>
  <anchor x="1041" y="0" name="nukta"/>
  <outline>
    <contour>
      <point x="1490" y="1175" type="line"/>
      <point x="1515" y="1133"/>
      <point x="1525" y="1084"/>
      <point x="1525" y="1036" type="curve" smooth="yes"/>
      <point x="1525" y="1033" type="line" smooth="yes"/>
      <point x="1525" y="925"/>
      <point x="1462" y="867"/>
      <point x="1329" y="867" type="curve" smooth="yes"/>
      <point x="1189" y="867"/>
      <point x="1105" y="917"/>
      <point x="1050" y="1015" type="curve"/>
      <point x="1050" y="1015" type="line"/>
      <point x="922" y="954" type="line"/>
      <point x="922" y="953" type="line"/>
      <point x="922" y="722"/>
      <point x="1096" y="565"/>
      <point x="1416" y="565" type="curve" smooth="yes"/>
      <point x="1735" y="565"/>
      <point x="1910" y="709"/>
      <point x="1910" y="970" type="curve" smooth="yes"/>
      <point x="1910" y="977" type="line" smooth="yes"/>
      <point x="1910" y="1064"/>
      <point x="1886" y="1134"/>
      <point x="1857" y="1175" type="curve"/>
    </contour>
    <contour>
      <point x="1586" y="442" type="curve"/>
      <point x="1586" y="440" type="line"/>
      <point x="1586" y="347"/>
      <point x="1532" y="298"/>
      <point x="1423" y="298" type="curve" smooth="yes"/>
      <point x="1313" y="298"/>
      <point x="1255" y="353"/>
      <point x="1248" y="460" type="curve" smooth="yes"/>
      <point x="1247" y="476" type="line"/>
      <point x="1025" y="476" type="line"/>
      <point x="1046" y="277" type="line" smooth="yes"/>
      <point x="1066" y="75"/>
      <point x="1210" y="-37"/>
      <point x="1482" y="-37" type="curve" smooth="yes"/>
      <point x="1805" y="-37"/>
      <point x="1974" y="107"/>
      <point x="1974" y="369" type="curve" smooth="yes"/>
      <point x="1974" y="373" type="line" smooth="yes"/>
      <point x="1974" y="415"/>
      <point x="1969" y="456"/>
      <point x="1955" y="497" type="curve"/>
      <point x="1578" y="497" type="line"/>
      <point x="1583" y="480"/>
      <point x="1586" y="460"/>
    </contour>
    <contour>
      <point x="605" y="1211" type="curve" smooth="yes"/>
      <point x="280" y="1211"/>
      <point x="101" y="1082"/>
      <point x="101" y="848" type="curve" smooth="yes"/>
      <point x="101" y="841" type="line" smooth="yes"/>
      <point x="101" y="776"/>
      <point x="118" y="724"/>
      <point x="138" y="693" type="curve"/>
      <point x="472" y="693" type="line"/>
      <point x="454" y="721"/>
      <point x="444" y="755"/>
      <point x="444" y="788" type="curve" smooth="yes"/>
      <point x="444" y="791" type="line" smooth="yes"/>
      <point x="444" y="871"/>
      <point x="498" y="911"/>
      <point x="607" y="911" type="curve" smooth="yes"/>
      <point x="701" y="911"/>
      <point x="746" y="882"/>
      <point x="746" y="825" type="curve"/>
      <point x="746" y="823" type="line"/>
      <point x="746" y="773"/>
      <point x="709" y="750"/>
      <point x="579" y="726" type="curve" smooth="yes"/>
      <point x="482" y="708" type="line" smooth="yes"/>
      <point x="194" y="655"/>
      <point x="76" y="553"/>
      <point x="76" y="343" type="curve" smooth="yes"/>
      <point x="76" y="335" type="line" smooth="yes"/>
      <point x="76" y="95"/>
      <point x="255" y="-37"/>
      <point x="578" y="-37" type="curve" smooth="yes"/>
      <point x="862" y="-37"/>
      <point x="1013" y="74"/>
      <point x="1036" y="273" type="curve"/>
      <point x="1057" y="273" type="line"/>
      <point x="1057" y="476" type="line"/>
      <point x="835" y="476" type="line"/>
      <point x="834" y="462" type="line" smooth="yes"/>
      <point x="825" y="340"/>
      <point x="742" y="276"/>
      <point x="589" y="276" type="curve" smooth="yes"/>
      <point x="487" y="276"/>
      <point x="440" y="303"/>
      <point x="440" y="351" type="curve" smooth="yes"/>
      <point x="440" y="355" type="line" smooth="yes"/>
      <point x="440" y="404"/>
      <point x="479" y="427"/>
      <point x="613" y="452" type="curve" smooth="yes"/>
      <point x="710" y="470" type="line" smooth="yes"/>
      <point x="974" y="519"/>
      <point x="1099" y="618"/>
      <point x="1099" y="817" type="curve" smooth="yes"/>
      <point x="1099" y="823" type="line" smooth="yes"/>
      <point x="1099" y="1074"/>
      <point x="925" y="1211"/>
    </contour>
  </outline>
</glyph>
<glyph name="Jha.kn" format="2">
  <advance width="3476"/>
  <unicode hex="0C9D"/>
  <outline>
    <component base="matraU.kn" xOffset="1726"/>
    <component base="matraU.kn" xOffset="2604"/>
    <component base="Ra.kn"/>
    <contour>
      <point x="1499" y="488" type="line"/>
      <point x="1621" y="489" type="line"/>
      <point x="1621" y="508" type="line"/>
      <point x="1499" y="508" type="line"/>
    </contour>
    <contour>
      <point x="2401" y="-462" type="curve" smooth="yes"/>
      <point x="2537" y="-462"/>
      <point x="2608" y="-397"/>
      <point x="2608" y="-272" type="curve" smooth="yes"/>
      <point x="2608" y="-264" type="line" smooth="yes"/>
      <point x="2608" y="-153"/>
      <point x="2551" y="-65"/>
      <point x="2401" y="46" type="curve"/>
      <point x="2251" y="-65"/>
      <point x="2194" y="-153"/>
      <point x="2194" y="-264" type="curve" smooth="yes"/>
      <point x="2194" y="-272" type="line" smooth="yes"/>
      <point x="2194" y="-397"/>
      <point x="2265" y="-462"/>
    </contour>
  </outline>
</glyph>
<glyph name="Nya.kn" format="2">
  <advance width="2571"/>
  <unicode hex="0C9E"/>
  <outline>
    <contour>
      <point x="2154" y="752" type="curve" smooth="yes"/>
      <point x="2154" y="748" type="line" smooth="yes"/>
      <point x="2154" y="725"/>
      <point x="2150" y="701"/>
      <point x="2144" y="687" type="curve"/>
      <point x="2515" y="687" type="line"/>
      <point x="2530" y="724"/>
      <point x="2536" y="772"/>
      <point x="2536" y="816" type="curve" smooth="yes"/>
      <point x="2536" y="822" type="line" smooth="yes"/>
      <point x="2536" y="1078"/>
      <point x="2388" y="1213"/>
      <point x="2115" y="1213" type="curve" smooth="yes"/>
      <point x="1922" y="1213"/>
      <point x="1806" y="1143"/>
      <point x="1760" y="1019" type="curve"/>
      <point x="1708" y="1019" type="line"/>
      <point x="1723" y="708" type="line"/>
      <point x="1845" y="726" type="line"/>
      <point x="1845" y="740" type="line" smooth="yes"/>
      <point x="1845" y="831"/>
      <point x="1905" y="878"/>
      <point x="2002" y="878" type="curve" smooth="yes"/>
      <point x="2105" y="878"/>
      <point x="2154" y="836"/>
    </contour>
    <contour>
      <point x="1903" y="-174" type="line"/>
      <point x="1849" y="9"/>
      <point x="1774" y="174"/>
      <point x="1629" y="347" type="curve"/>
      <point x="1441" y="143" type="line"/>
      <point x="1453" y="41"/>
      <point x="1461" y="-62"/>
      <point x="1461" y="-174" type="curve"/>
    </contour>
    <contour>
      <point x="1292" y="878" type="curve" smooth="yes"/>
      <point x="1400" y="878"/>
      <point x="1455" y="818"/>
      <point x="1455" y="693" type="curve" smooth="yes"/>
      <point x="1455" y="689" type="line" smooth="yes"/>
      <point x="1455" y="608"/>
      <point x="1432" y="524"/>
      <point x="1372" y="431" type="curve"/>
      <point x="1344" y="377" type="line"/>
      <point x="1262" y="281"/>
      <point x="1062" y="243"/>
      <point x="859" y="243" type="curve" smooth="yes"/>
      <point x="709" y="243"/>
      <point x="646" y="264"/>
      <point x="646" y="310" type="curve"/>
      <point x="646" y="312" type="line"/>
      <point x="646" y="358"/>
      <point x="708" y="380"/>
      <point x="861" y="380" type="curve" smooth="yes"/>
      <point x="1059" y="380"/>
      <point x="1187" y="344"/>
      <point x="1329" y="263" type="curve"/>
      <point x="1474" y="475" type="line"/>
      <point x="1304" y="595"/>
      <point x="1083" y="659"/>
      <point x="828" y="659" type="curve" smooth="yes"/>
      <point x="465" y="659"/>
      <point x="271" y="540"/>
      <point x="271" y="310" type="curve"/>
      <point x="271" y="308" type="line"/>
      <point x="271" y="79"/>
      <point x="462" y="-37"/>
      <point x="841" y="-37" type="curve" smooth="yes"/>
      <point x="1100" y="-37"/>
      <point x="1369" y="17"/>
      <point x="1502" y="125" type="curve"/>
      <point x="1613" y="199" type="line"/>
      <point x="1760" y="324"/>
      <point x="1845" y="519"/>
      <point x="1845" y="720" type="curve" smooth="yes"/>
      <point x="1845" y="734" type="line" smooth="yes"/>
      <point x="1845" y="822"/>
      <point x="1794" y="938"/>
      <point x="1752" y="1019" type="curve" smooth="yes"/>
      <point x="1686" y="1144"/>
      <point x="1545" y="1213"/>
      <point x="1348" y="1213" type="curve" smooth="yes"/>
      <point x="1092" y="1213"/>
      <point x="957" y="1106"/>
      <point x="936" y="923" type="curve"/>
      <point x="926" y="923" type="line"/>
      <point x="905" y="1106"/>
      <point x="764" y="1213"/>
      <point x="498" y="1213" type="curve" smooth="yes"/>
      <point x="191" y="1213"/>
      <point x="25" y="1079"/>
      <point x="25" y="824" type="curve" smooth="yes"/>
      <point x="25" y="818" type="line" smooth="yes"/>
      <point x="25" y="774"/>
      <point x="31" y="726"/>
      <point x="46" y="689" type="curve"/>
      <point x="417" y="689" type="line"/>
      <point x="411" y="703"/>
      <point x="407" y="727"/>
      <point x="407" y="750" type="curve" smooth="yes"/>
      <point x="407" y="754" type="line" smooth="yes"/>
      <point x="407" y="837"/>
      <point x="460" y="878"/>
      <point x="564" y="878" type="curve" smooth="yes"/>
      <point x="664" y="878"/>
      <point x="717" y="829"/>
      <point x="724" y="734" type="curve" smooth="yes"/>
      <point x="726" y="708" type="line"/>
      <point x="1136" y="708" type="line"/>
      <point x="1138" y="734" type="line" smooth="yes"/>
      <point x="1145" y="829"/>
      <point x="1196" y="878"/>
    </contour>
  </outline>
</glyph>
<glyph name="Tta.kn" format="2">
  <advance width="2023"/>
  <unicode hex="0C9F"/>
  <outline>
    <contour>
      <point x="559" y="1213" type="curve" smooth="yes"/>
      <point x="251" y="1213"/>
      <point x="87" y="1100"/>
      <point x="87" y="882" type="curve" smooth="yes"/>
      <point x="87" y="875" type="line" smooth="yes"/>
      <point x="87" y="724"/>
      <point x="170" y="628"/>
      <point x="324" y="604" type="curve"/>
      <point x="324" y="595" type="line"/>
      <point x="167" y="572"/>
      <point x="82" y="479"/>
      <point x="82" y="332" type="curve" smooth="yes"/>
      <point x="82" y="325" type="line" smooth="yes"/>
      <point x="82" y="88"/>
      <point x="256" y="-37"/>
      <point x="579" y="-37" type="curve" smooth="yes"/>
      <point x="843" y="-37"/>
      <point x="983" y="71"/>
      <point x="1004" y="256" type="curve"/>
      <point x="1111" y="254" type="line"/>
      <point x="1040" y="472" type="line"/>
      <point x="806" y="472" type="line"/>
      <point x="803" y="447" type="line" smooth="yes"/>
      <point x="791" y="343"/>
      <point x="744" y="288"/>
      <point x="618" y="288" type="curve" smooth="yes"/>
      <point x="516" y="288"/>
      <point x="462" y="319"/>
      <point x="462" y="383" type="curve" smooth="yes"/>
      <point x="462" y="387" type="line" smooth="yes"/>
      <point x="462" y="448"/>
      <point x="509" y="476"/>
      <point x="625" y="478" type="curve" smooth="yes"/>
      <point x="765" y="481" type="line"/>
      <point x="765" y="744" type="line"/>
      <point x="625" y="747" type="line" smooth="yes"/>
      <point x="516" y="749"/>
      <point x="471" y="772"/>
      <point x="471" y="824" type="curve" smooth="yes"/>
      <point x="471" y="828" type="line" smooth="yes"/>
      <point x="471" y="883"/>
      <point x="521" y="906"/>
      <point x="619" y="906" type="curve" smooth="yes"/>
      <point x="725" y="906"/>
      <point x="814" y="894"/>
      <point x="892" y="870" type="curve"/>
      <point x="853" y="1175" type="line"/>
      <point x="761" y="1199"/>
      <point x="664" y="1213"/>
    </contour>
    <contour>
      <point x="1459" y="1213" type="curve" smooth="yes"/>
      <point x="1354" y="1213"/>
      <point x="1257" y="1199"/>
      <point x="1165" y="1175" type="curve"/>
      <point x="1126" y="870" type="line"/>
      <point x="1204" y="894"/>
      <point x="1293" y="906"/>
      <point x="1399" y="906" type="curve" smooth="yes"/>
      <point x="1497" y="906"/>
      <point x="1547" y="883"/>
      <point x="1547" y="828" type="curve" smooth="yes"/>
      <point x="1547" y="824" type="line" smooth="yes"/>
      <point x="1547" y="772"/>
      <point x="1502" y="749"/>
      <point x="1393" y="747" type="curve" smooth="yes"/>
      <point x="1253" y="744" type="line"/>
      <point x="1253" y="481" type="line"/>
      <point x="1393" y="478" type="line" smooth="yes"/>
      <point x="1509" y="476"/>
      <point x="1556" y="448"/>
      <point x="1556" y="387" type="curve" smooth="yes"/>
      <point x="1556" y="383" type="line" smooth="yes"/>
      <point x="1556" y="319"/>
      <point x="1502" y="288"/>
      <point x="1400" y="288" type="curve" smooth="yes"/>
      <point x="1274" y="288"/>
      <point x="1227" y="343"/>
      <point x="1215" y="447" type="curve" smooth="yes"/>
      <point x="1212" y="472" type="line"/>
      <point x="979" y="472" type="line"/>
      <point x="1014" y="256" type="line"/>
      <point x="1035" y="71"/>
      <point x="1175" y="-37"/>
      <point x="1439" y="-37" type="curve" smooth="yes"/>
      <point x="1762" y="-37"/>
      <point x="1936" y="88"/>
      <point x="1936" y="325" type="curve" smooth="yes"/>
      <point x="1936" y="332" type="line" smooth="yes"/>
      <point x="1936" y="479"/>
      <point x="1851" y="572"/>
      <point x="1694" y="595" type="curve"/>
      <point x="1694" y="604" type="line"/>
      <point x="1848" y="628"/>
      <point x="1931" y="724"/>
      <point x="1931" y="875" type="curve" smooth="yes"/>
      <point x="1931" y="882" type="line" smooth="yes"/>
      <point x="1931" y="1100"/>
      <point x="1767" y="1213"/>
    </contour>
  </outline>
  <guideline angle="0" x="0" y="1211"/>
</glyph>
<glyph name="Nna.kn" format="2">
  <advance width="2107"/>
  <unicode hex="0CA3"/>
  <outline>
    <contour>
      <point x="2017" y="560.231" type="line"/>
      <point x="2017" y="565" type="line" smooth="yes"/>
      <point x="2017" y="988"/>
      <point x="1829" y="1213"/>
      <point x="1455" y="1213" type="curve" smooth="yes"/>
      <point x="1192" y="1213"/>
      <point x="1053" y="1107"/>
      <point x="1032" y="926" type="curve"/>
      <point x="1022" y="926" type="line"/>
      <point x="1001" y="1107"/>
      <point x="861" y="1213"/>
      <point x="597" y="1213" type="curve" smooth="yes"/>
      <point x="268" y="1213"/>
      <point x="90" y="1089"/>
      <point x="90" y="853" type="curve" smooth="yes"/>
      <point x="90" y="846" type="line" smooth="yes"/>
      <point x="90" y="700"/>
      <point x="175" y="608"/>
      <point x="332" y="585" type="curve"/>
      <point x="332" y="576" type="line"/>
      <point x="172" y="552"/>
      <point x="85" y="455"/>
      <point x="85" y="303" type="curve" smooth="yes"/>
      <point x="85" y="296" type="line" smooth="yes"/>
      <point x="85" y="77"/>
      <point x="253" y="-37"/>
      <point x="567" y="-37" type="curve" smooth="yes"/>
      <point x="672" y="-37"/>
      <point x="769" y="-23"/>
      <point x="861" y="1" type="curve"/>
      <point x="900" y="306" type="line"/>
      <point x="822" y="282"/>
      <point x="733" y="270"/>
      <point x="627" y="270" type="curve" smooth="yes"/>
      <point x="523" y="270"/>
      <point x="469" y="294"/>
      <point x="469" y="350" type="curve" smooth="yes"/>
      <point x="469" y="354" type="line" smooth="yes"/>
      <point x="469" y="407"/>
      <point x="516" y="430"/>
      <point x="633" y="433" type="curve" smooth="yes"/>
      <point x="773" y="436" type="line"/>
      <point x="773" y="699" type="line"/>
      <point x="633" y="702" type="line" smooth="yes"/>
      <point x="517" y="704"/>
      <point x="470" y="731"/>
      <point x="470" y="791" type="curve" smooth="yes"/>
      <point x="470" y="795" type="line" smooth="yes"/>
      <point x="470" y="858"/>
      <point x="527" y="888"/>
      <point x="636" y="888" type="curve" smooth="yes"/>
      <point x="754" y="888"/>
      <point x="812" y="836"/>
      <point x="825" y="734" type="curve" smooth="yes"/>
      <point x="828" y="710" type="line"/>
      <point x="1227" y="710" type="line"/>
      <point x="1230" y="734" type="line" smooth="yes"/>
      <point x="1242" y="833"/>
      <point x="1301" y="887"/>
      <point x="1414" y="887" type="curve" smooth="yes"/>
      <point x="1559" y="887"/>
      <point x="1637" y="778"/>
      <point x="1637" y="562" type="curve" smooth="yes"/>
      <point x="1637" y="488.648" type="line"/>
    </contour>
    <contour>
      <point x="1637" y="489.648" type="line"/>
      <point x="1637" y="465" type="line" smooth="yes"/>
      <point x="1637" y="330"/>
      <point x="1586" y="262"/>
      <point x="1489" y="262" type="curve" smooth="yes"/>
      <point x="1412" y="262"/>
      <point x="1370" y="296"/>
      <point x="1370" y="361" type="curve"/>
      <point x="1370" y="363" type="line"/>
      <point x="1370" y="422"/>
      <point x="1410" y="455"/>
      <point x="1489" y="455" type="curve" smooth="yes"/>
      <point x="1564" y="455"/>
      <point x="1629" y="425"/>
      <point x="1680" y="366" type="curve"/>
      <point x="1690" y="519" type="line"/>
      <point x="1627" y="519" type="line"/>
      <point x="1598" y="646"/>
      <point x="1506" y="715"/>
      <point x="1358" y="715" type="curve" smooth="yes"/>
      <point x="1141" y="715"/>
      <point x="1013" y="587"/>
      <point x="1013" y="368" type="curve"/>
      <point x="1013" y="366" type="line"/>
      <point x="1013" y="103"/>
      <point x="1178" y="-37"/>
      <point x="1489" y="-37" type="curve" smooth="yes"/>
      <point x="1837" y="-37"/>
      <point x="2017" y="168"/>
      <point x="2017" y="557" type="curve" smooth="yes"/>
      <point x="2017" y="561.231" type="line"/>
    </contour>
  </outline>
</glyph>
<glyph name="Ta.kn" format="2">
  <advance width="1519"/>
  <unicode hex="0CA4"/>
  <outline>
    <contour>
      <point x="782" y="270" type="curve" smooth="yes"/>
      <point x="529" y="270"/>
      <point x="297" y="321"/>
      <point x="72" y="420" type="curve"/>
      <point x="94" y="94" type="line"/>
      <point x="288" y="0"/>
      <point x="558" y="-42"/>
      <point x="793" y="-42" type="curve" smooth="yes"/>
      <point x="1229" y="-42"/>
      <point x="1444" y="85"/>
      <point x="1444" y="332" type="curve" smooth="yes"/>
      <point x="1444" y="339" type="line" smooth="yes"/>
      <point x="1444" y="488"/>
      <point x="1359" y="581"/>
      <point x="1202" y="604" type="curve"/>
      <point x="1202" y="612" type="line"/>
      <point x="1288" y="621"/>
      <point x="1339" y="668"/>
      <point x="1339" y="741" type="curve"/>
      <point x="1339" y="743" type="line"/>
      <point x="1339" y="825"/>
      <point x="1278" y="872"/>
      <point x="1163" y="881" type="curve"/>
      <point x="1163" y="960" type="line"/>
      <point x="826" y="960" type="line"/>
      <point x="796" y="889" type="line"/>
      <point x="906" y="889"/>
      <point x="949" y="864"/>
      <point x="949" y="814" type="curve"/>
      <point x="949" y="812" type="line"/>
      <point x="949" y="765"/>
      <point x="914.995" y="747.399"/>
      <point x="821" y="746" type="curve" smooth="yes"/>
      <point x="418" y="740" type="line"/>
      <point x="418" y="467" type="line"/>
      <point x="911" y="460" type="line" smooth="yes"/>
      <point x="1012.99" y="458.552"/>
      <point x="1054" y="437.725"/>
      <point x="1054" y="379" type="curve" smooth="yes"/>
      <point x="1054" y="375" type="line" smooth="yes"/>
      <point x="1054" y="302.689"/>
      <point x="961" y="270"/>
    </contour>
    <contour>
      <point x="986" y="889" type="line"/>
      <point x="986" y="1174" type="line"/>
      <point x="99" y="1174" type="line"/>
      <point x="99" y="889" type="line"/>
    </contour>
    <contour>
      <point x="1054" y="1546" type="line"/>
      <point x="1089" y="1473"/>
      <point x="1118" y="1380"/>
      <point x="1118" y="1305" type="curve" smooth="yes"/>
      <point x="1118" y="1210"/>
      <point x="1084" y="1174"/>
      <point x="992" y="1174" type="curve" smooth="yes"/>
      <point x="962" y="1174" type="line"/>
      <point x="962" y="889" type="line"/>
      <point x="1134" y="889" type="line" smooth="yes"/>
      <point x="1355" y="889"/>
      <point x="1465" y="1005"/>
      <point x="1465" y="1233" type="curve" smooth="yes"/>
      <point x="1465" y="1338"/>
      <point x="1435" y="1446"/>
      <point x="1369" y="1546" type="curve"/>
    </contour>
  </outline>
</glyph>
<glyph name="Da.kn" format="2">
  <advance width="2014"/>
  <unicode hex="0CA6"/>
  <outline>
    <contour>
      <point x="483" y="505" type="line"/>
      <point x="483" y="760"/>
      <point x="645" y="889"/>
      <point x="977" y="889" type="curve"/>
      <point x="977" y="911" type="line"/>
      <point x="424" y="911" type="line"/>
      <point x="424" y="879" type="line"/>
      <point x="206" y="837"/>
      <point x="93" y="689"/>
      <point x="93" y="452" type="curve" smooth="yes"/>
      <point x="93" y="447" type="line" smooth="yes"/>
      <point x="93" y="130"/>
      <point x="267" y="-37"/>
      <point x="590" y="-37" type="curve" smooth="yes"/>
      <point x="846" y="-37"/>
      <point x="982" y="74"/>
      <point x="1002" y="273" type="curve"/>
      <point x="1012" y="273" type="line"/>
      <point x="1032" y="74"/>
      <point x="1168" y="-37"/>
      <point x="1424" y="-37" type="curve" smooth="yes"/>
      <point x="1747" y="-37"/>
      <point x="1921" y="130"/>
      <point x="1921" y="447" type="curve" smooth="yes"/>
      <point x="1921" y="452" type="line" smooth="yes"/>
      <point x="1921" y="689"/>
      <point x="1808" y="837"/>
      <point x="1590" y="879" type="curve"/>
      <point x="1590" y="911" type="line"/>
      <point x="1037" y="911" type="line"/>
      <point x="1037" y="889" type="line"/>
      <point x="1369" y="889"/>
      <point x="1531" y="760"/>
      <point x="1531" y="505" type="curve"/>
      <point x="1531" y="503" type="line"/>
      <point x="1531" y="365"/>
      <point x="1476" y="298"/>
      <point x="1368" y="298" type="curve" smooth="yes"/>
      <point x="1272" y="298"/>
      <point x="1221" y="354"/>
      <point x="1214" y="462" type="curve" smooth="yes"/>
      <point x="1211" y="506" type="line"/>
      <point x="803" y="506" type="line"/>
      <point x="800" y="462" type="line" smooth="yes"/>
      <point x="793" y="354"/>
      <point x="742" y="298"/>
      <point x="646" y="298" type="curve" smooth="yes"/>
      <point x="538" y="298"/>
      <point x="483" y="365"/>
      <point x="483" y="503" type="curve"/>
    </contour>
    <contour>
      <point x="1511" y="889" type="line"/>
      <point x="1511" y="1174" type="line"/>
      <point x="91" y="1174" type="line"/>
      <point x="91" y="889" type="line"/>
    </contour>
    <contour>
      <point x="1520" y="1546" type="line"/>
      <point x="1555" y="1473"/>
      <point x="1584" y="1380"/>
      <point x="1584" y="1305" type="curve" smooth="yes"/>
      <point x="1584" y="1210"/>
      <point x="1550" y="1174"/>
      <point x="1458" y="1174" type="curve" smooth="yes"/>
      <point x="1428" y="1174" type="line"/>
      <point x="1428" y="889" type="line"/>
      <point x="1600" y="889" type="line" smooth="yes"/>
      <point x="1821" y="889"/>
      <point x="1931" y="1005"/>
      <point x="1931" y="1233" type="curve" smooth="yes"/>
      <point x="1931" y="1338"/>
      <point x="1901" y="1446"/>
      <point x="1835" y="1546" type="curve"/>
    </contour>
  </outline>
  <guideline angle="90" x="728" y="0"/>
  <guideline angle="90" x="3450" y="0"/>
  <guideline angle="90" x="1007" y="0"/>
  <guideline angle="0" x="0" y="1536"/>
</glyph>
<glyph name="Pa.kn" format="2">
  <advance width="2062"/>
  <unicode hex="0CAA"/>
  <outline>
    <contour>
      <point x="504" y="763" type="curve" smooth="yes"/>
      <point x="232" y="763"/>
      <point x="80" y="619"/>
      <point x="80" y="379" type="curve" smooth="yes"/>
      <point x="80" y="373" type="line" smooth="yes"/>
      <point x="80" y="104"/>
      <point x="255" y="-37"/>
      <point x="588" y="-37" type="curve" smooth="yes"/>
      <point x="869" y="-37"/>
      <point x="1017" y="74"/>
      <point x="1040" y="273" type="curve"/>
      <point x="1050" y="273" type="line"/>
      <point x="1070" y="74"/>
      <point x="1213" y="-37"/>
      <point x="1479" y="-37" type="curve" smooth="yes"/>
      <point x="1802" y="-37"/>
      <point x="1977" y="124"/>
      <point x="1977" y="428" type="curve" smooth="yes"/>
      <point x="1977" y="442" type="line" smooth="yes"/>
      <point x="1977" y="571"/>
      <point x="1929" y="697"/>
      <point x="1849" y="787" type="curve"/>
      <point x="1477" y="787" type="line"/>
      <point x="1546" y="705"/>
      <point x="1589" y="598"/>
      <point x="1589" y="497" type="curve" smooth="yes"/>
      <point x="1589" y="488" type="line" smooth="yes"/>
      <point x="1589" y="361"/>
      <point x="1531" y="298"/>
      <point x="1420" y="298" type="curve" smooth="yes"/>
      <point x="1316" y="298"/>
      <point x="1259" y="354"/>
      <point x="1252" y="462" type="curve" smooth="yes"/>
      <point x="1249" y="506" type="line"/>
      <point x="841" y="506" type="line"/>
      <point x="838" y="462" type="line" smooth="yes"/>
      <point x="830" y="347"/>
      <point x="754" y="288"/>
      <point x="617" y="288" type="curve" smooth="yes"/>
      <point x="510" y="288"/>
      <point x="461" y="317"/>
      <point x="461" y="377" type="curve"/>
      <point x="461" y="379" type="line"/>
      <point x="461" y="432"/>
      <point x="503" y="461"/>
      <point x="583" y="461" type="curve" smooth="yes"/>
      <point x="634" y="461"/>
      <point x="684" y="452"/>
      <point x="720" y="436" type="curve"/>
      <point x="701" y="732" type="line"/>
      <point x="643" y="754"/>
      <point x="584" y="763"/>
    </contour>
    <contour>
      <point x="1515" y="889" type="line"/>
      <point x="1515" y="1174" type="line"/>
      <point x="146" y="1174" type="line"/>
      <point x="146" y="889" type="line"/>
    </contour>
    <contour>
      <point x="1045" y="589" type="curve" smooth="yes"/>
      <point x="1185" y="589"/>
      <point x="1257" y="648"/>
      <point x="1257" y="760" type="curve" smooth="yes"/>
      <point x="1257" y="767" type="line" smooth="yes"/>
      <point x="1257" y="880"/>
      <point x="1185" y="939"/>
      <point x="1045" y="939" type="curve" smooth="yes"/>
      <point x="907" y="939"/>
      <point x="835" y="880"/>
      <point x="835" y="767" type="curve" smooth="yes"/>
      <point x="835" y="760" type="line" smooth="yes"/>
      <point x="835" y="648"/>
      <point x="907" y="589"/>
    </contour>
    <contour>
      <point x="1556" y="1546" type="line"/>
      <point x="1591" y="1473"/>
      <point x="1620" y="1380"/>
      <point x="1620" y="1305" type="curve" smooth="yes"/>
      <point x="1620" y="1210"/>
      <point x="1586" y="1174"/>
      <point x="1494" y="1174" type="curve" smooth="yes"/>
      <point x="1464" y="1174" type="line"/>
      <point x="1464" y="889" type="line"/>
      <point x="1636" y="889" type="line" smooth="yes"/>
      <point x="1857" y="889"/>
      <point x="1967" y="1005"/>
      <point x="1967" y="1233" type="curve" smooth="yes"/>
      <point x="1967" y="1338"/>
      <point x="1937" y="1446"/>
      <point x="1871" y="1546" type="curve"/>
    </contour>
  </outline>
</glyph>
<glyph name="Ba.kn" format="2">
  <advance width="2083"/>
  <unicode hex="0CAC"/>
  <outline>
    <contour>
      <point x="1430" y="1184" type="curve" smooth="yes"/>
      <point x="1380" y="1184"/>
      <point x="1334" y="1180"/>
      <point x="1284" y="1172" type="curve"/>
      <point x="1284" y="841" type="line"/>
      <point x="1302" y="846"/>
      <point x="1327" y="848"/>
      <point x="1358" y="848" type="curve" smooth="yes"/>
      <point x="1519" y="848"/>
      <point x="1600" y="757"/>
      <point x="1600" y="567" type="curve" smooth="yes"/>
      <point x="1600" y="554" type="line" smooth="yes"/>
      <point x="1600" y="385"/>
      <point x="1540" y="298"/>
      <point x="1418" y="298" type="curve" smooth="yes"/>
      <point x="1311" y="298"/>
      <point x="1255" y="353"/>
      <point x="1248" y="460" type="curve" smooth="yes"/>
      <point x="1247" y="476" type="line"/>
      <point x="1025" y="476" type="line"/>
      <point x="1046" y="273" type="line" smooth="yes"/>
      <point x="1067" y="74"/>
      <point x="1209" y="-37"/>
      <point x="1475" y="-37" type="curve" smooth="yes"/>
      <point x="1813" y="-37"/>
      <point x="1990" y="165"/>
      <point x="1990" y="547" type="curve" smooth="yes"/>
      <point x="1990" y="567" type="line" smooth="yes"/>
      <point x="1990" y="968"/>
      <point x="1793" y="1184"/>
    </contour>
    <contour>
      <point x="605" y="1211" type="curve" smooth="yes"/>
      <point x="280" y="1211"/>
      <point x="101" y="1082"/>
      <point x="101" y="848" type="curve" smooth="yes"/>
      <point x="101" y="841" type="line" smooth="yes"/>
      <point x="101" y="776"/>
      <point x="118" y="724"/>
      <point x="138" y="693" type="curve"/>
      <point x="472" y="693" type="line"/>
      <point x="454" y="721"/>
      <point x="444" y="755"/>
      <point x="444" y="788" type="curve" smooth="yes"/>
      <point x="444" y="791" type="line" smooth="yes"/>
      <point x="444" y="871"/>
      <point x="498" y="911"/>
      <point x="607" y="911" type="curve" smooth="yes"/>
      <point x="701" y="911"/>
      <point x="746" y="882"/>
      <point x="746" y="825" type="curve"/>
      <point x="746" y="823" type="line"/>
      <point x="746" y="773"/>
      <point x="709" y="750"/>
      <point x="579" y="726" type="curve" smooth="yes"/>
      <point x="482" y="708" type="line" smooth="yes"/>
      <point x="194" y="655"/>
      <point x="76" y="553"/>
      <point x="76" y="343" type="curve" smooth="yes"/>
      <point x="76" y="335" type="line" smooth="yes"/>
      <point x="76" y="95"/>
      <point x="255" y="-37"/>
      <point x="578" y="-37" type="curve" smooth="yes"/>
      <point x="862" y="-37"/>
      <point x="1013" y="74"/>
      <point x="1036" y="273" type="curve"/>
      <point x="1057" y="273" type="line"/>
      <point x="1057" y="476" type="line"/>
      <point x="835" y="476" type="line"/>
      <point x="834" y="462" type="line" smooth="yes"/>
      <point x="825" y="340"/>
      <point x="742" y="276"/>
      <point x="589" y="276" type="curve" smooth="yes"/>
      <point x="487" y="276"/>
      <point x="440" y="303"/>
      <point x="440" y="351" type="curve" smooth="yes"/>
      <point x="440" y="355" type="line" smooth="yes"/>
      <point x="440" y="404"/>
      <point x="479" y="427"/>
      <point x="613" y="452" type="curve" smooth="yes"/>
      <point x="710" y="470" type="line" smooth="yes"/>
      <point x="974" y="519"/>
      <point x="1099" y="618"/>
      <point x="1099" y="817" type="curve" smooth="yes"/>
      <point x="1099" y="823" type="line" smooth="yes"/>
      <point x="1099" y="1074"/>
      <point x="925" y="1211"/>
    </contour>
  </outline>
  <guideline angle="0" x="0" y="1525"/>
  <guideline angle="0" x="0" y="-10080"/>
  <guideline angle="90" x="338" y="0"/>
  <guideline angle="0" x="0" y="2043"/>
  <guideline angle="0" x="0" y="1525"/>
</glyph>
<glyph name="Ra.kn" format="2">
  <advance width="1716"/>
  <unicode hex="0CB0"/>
  <outline>
    <contour>
      <point x="384" y="908" type="line"/>
      <point x="384" y="880" type="line"/>
      <point x="198" y="835"/>
      <point x="93" y="701"/>
      <point x="93" y="500" type="curve" smooth="yes"/>
      <point x="93" y="482" type="line" smooth="yes"/>
      <point x="93" y="137"/>
      <point x="364" y="-51"/>
      <point x="858" y="-51" type="curve" smooth="yes"/>
      <point x="1352" y="-51"/>
      <point x="1623" y="137"/>
      <point x="1623" y="482" type="curve" smooth="yes"/>
      <point x="1623" y="500" type="line" smooth="yes"/>
      <point x="1623" y="701"/>
      <point x="1518" y="835"/>
      <point x="1332" y="880" type="curve"/>
      <point x="1332" y="908" type="line"/>
    </contour>
    <contour>
      <point x="858" y="279" type="curve" smooth="yes"/>
      <point x="614" y="279"/>
      <point x="483" y="386"/>
      <point x="483" y="581" type="curve" smooth="yes"/>
      <point x="483" y="587" type="line" smooth="yes"/>
      <point x="483" y="782"/>
      <point x="614" y="889"/>
      <point x="858" y="889" type="curve" smooth="yes"/>
      <point x="1102" y="889"/>
      <point x="1233" y="782"/>
      <point x="1233" y="587" type="curve" smooth="yes"/>
      <point x="1233" y="581" type="line" smooth="yes"/>
      <point x="1233" y="386"/>
      <point x="1102" y="279"/>
    </contour>
    <contour>
      <point x="1186" y="889" type="line"/>
      <point x="1186" y="1174" type="line"/>
      <point x="93" y="1174" type="line"/>
      <point x="93" y="889" type="line"/>
    </contour>
    <contour>
      <point x="1260" y="1546" type="line"/>
      <point x="1295" y="1473"/>
      <point x="1324" y="1380"/>
      <point x="1324" y="1305" type="curve" smooth="yes"/>
      <point x="1324" y="1210"/>
      <point x="1290" y="1174"/>
      <point x="1198" y="1174" type="curve" smooth="yes"/>
      <point x="1168" y="1174" type="line"/>
      <point x="1168" y="889" type="line"/>
      <point x="1340" y="889" type="line" smooth="yes"/>
      <point x="1561" y="889"/>
      <point x="1671" y="1005"/>
      <point x="1671" y="1233" type="curve" smooth="yes"/>
      <point x="1671" y="1338"/>
      <point x="1641" y="1446"/>
      <point x="1575" y="1546" type="curve"/>
    </contour>
  </outline>
</glyph>
<glyph name="La.kn" format="2">
  <advance width="1981"/>
  <unicode hex="0CB2"/>
  <outline>
    <contour>
      <point x="454" y="679.554" type="line"/>
      <point x="454" y="698" type="line" smooth="yes"/>
      <point x="454" y="828"/>
      <point x="513" y="901"/>
      <point x="625" y="901" type="curve" smooth="yes"/>
      <point x="704" y="901"/>
      <point x="748" y="865"/>
      <point x="748" y="797" type="curve"/>
      <point x="748" y="795" type="line"/>
      <point x="748" y="733"/>
      <point x="707" y="698"/>
      <point x="625" y="698" type="curve" smooth="yes"/>
      <point x="541" y="698"/>
      <point x="468" y="728"/>
      <point x="411" y="787" type="curve"/>
      <point x="401" y="635" type="line"/>
      <point x="462" y="635" type="line"/>
      <point x="494" y="511"/>
      <point x="595" y="444"/>
      <point x="756" y="444" type="curve" smooth="yes"/>
      <point x="973" y="444"/>
      <point x="1101" y="576"/>
      <point x="1101" y="801" type="curve"/>
      <point x="1101" y="803" type="line"/>
      <point x="1101" y="1069"/>
      <point x="935" y="1211"/>
      <point x="623" y="1211" type="curve" smooth="yes"/>
      <point x="273" y="1211"/>
      <point x="74" y="1013"/>
      <point x="74" y="664" type="curve" smooth="yes"/>
      <point x="74" y="661.236" type="line"/>
    </contour>
    <contour>
      <point x="74" y="661.65" type="line"/>
      <point x="74" y="658" type="line" smooth="yes"/>
      <point x="74" y="198"/>
      <point x="393" y="-39"/>
      <point x="994" y="-39" type="curve" smooth="yes"/>
      <point x="1583" y="-39"/>
      <point x="1890" y="181"/>
      <point x="1890" y="616" type="curve" smooth="yes"/>
      <point x="1890" y="622" type="line" smooth="yes"/>
      <point x="1890" y="986"/>
      <point x="1695" y="1191"/>
      <point x="1344" y="1191" type="curve" smooth="yes"/>
      <point x="1299" y="1191"/>
      <point x="1254" y="1188"/>
      <point x="1213" y="1180" type="curve"/>
      <point x="1213" y="850" type="line"/>
      <point x="1229" y="853"/>
      <point x="1247" y="855"/>
      <point x="1272" y="855" type="curve" smooth="yes"/>
      <point x="1419" y="855"/>
      <point x="1500" y="774"/>
      <point x="1500" y="630" type="curve" smooth="yes"/>
      <point x="1500" y="624" type="line" smooth="yes"/>
      <point x="1500" y="409"/>
      <point x="1342" y="291"/>
      <point x="994" y="291" type="curve" smooth="yes"/>
      <point x="643" y="291"/>
      <point x="454" y="408"/>
      <point x="454" y="636" type="curve" smooth="yes"/>
      <point x="454" y="683.588" type="line"/>
    </contour>
  </outline>
</glyph>
<glyph name="Va.kn" format="2">
  <advance width="2053"/>
  <unicode hex="0CB5"/>
  <outline>
    <contour>
      <point x="1467" y="-37" type="curve" smooth="yes"/>
      <point x="1788" y="-37"/>
      <point x="1960" y="127"/>
      <point x="1960" y="434" type="curve" smooth="yes"/>
      <point x="1960" y="443" type="line" smooth="yes"/>
      <point x="1960" y="692"/>
      <point x="1828" y="845"/>
      <point x="1578" y="880" type="curve"/>
      <point x="1578" y="900" type="line"/>
      <point x="946" y="901" type="line"/>
      <point x="946" y="889" type="line"/>
      <point x="1376" y="889"/>
      <point x="1570" y="745"/>
      <point x="1570" y="492" type="curve" smooth="yes"/>
      <point x="1570" y="483" type="line" smooth="yes"/>
      <point x="1570" y="363"/>
      <point x="1514" y="298"/>
      <point x="1411" y="298" type="curve" smooth="yes"/>
      <point x="1313" y="298"/>
      <point x="1260" y="354"/>
      <point x="1253" y="462" type="curve" smooth="yes"/>
      <point x="1250" y="506" type="line"/>
      <point x="841" y="506" type="line"/>
      <point x="838" y="462" type="line" smooth="yes"/>
      <point x="830" y="347"/>
      <point x="754" y="288"/>
      <point x="617" y="288" type="curve" smooth="yes"/>
      <point x="510" y="288"/>
      <point x="461" y="317"/>
      <point x="461" y="377" type="curve"/>
      <point x="461" y="379" type="line"/>
      <point x="461" y="432"/>
      <point x="503" y="461"/>
      <point x="583" y="461" type="curve" smooth="yes"/>
      <point x="634" y="461"/>
      <point x="684" y="452"/>
      <point x="720" y="436" type="curve"/>
      <point x="701" y="732" type="line"/>
      <point x="643" y="754"/>
      <point x="584" y="763"/>
      <point x="504" y="763" type="curve" smooth="yes"/>
      <point x="232" y="763"/>
      <point x="80" y="619"/>
      <point x="80" y="379" type="curve" smooth="yes"/>
      <point x="80" y="373" type="line" smooth="yes"/>
      <point x="80" y="104"/>
      <point x="255" y="-37"/>
      <point x="588" y="-37" type="curve" smooth="yes"/>
      <point x="869" y="-37"/>
      <point x="1017" y="74"/>
      <point x="1040" y="273" type="curve"/>
      <point x="1050" y="273" type="line"/>
      <point x="1070" y="74"/>
      <point x="1209" y="-37"/>
    </contour>
    <contour>
      <point x="1577" y="889" type="line"/>
      <point x="1577" y="1174" type="line"/>
      <point x="146" y="1174" type="line"/>
      <point x="146" y="889" type="line"/>
    </contour>
    <contour>
      <point x="1549" y="1546" type="line"/>
      <point x="1584" y="1473"/>
      <point x="1613" y="1380"/>
      <point x="1613" y="1305" type="curve" smooth="yes"/>
      <point x="1613" y="1210"/>
      <point x="1579" y="1174"/>
      <point x="1487" y="1174" type="curve" smooth="yes"/>
      <point x="1457" y="1174" type="line"/>
      <point x="1457" y="889" type="line"/>
      <point x="1629" y="889" type="line" smooth="yes"/>
      <point x="1850" y="889"/>
      <point x="1960" y="1005"/>
      <point x="1960" y="1233" type="curve" smooth="yes"/>
      <point x="1960" y="1338"/>
      <point x="1930" y="1446"/>
      <point x="1864" y="1546" type="curve"/>
    </contour>
  </outline>
</glyph>
<glyph name="Ssa.kn" format="2">
  <advance width="2137"/>
  <unicode hex="0CB7"/>
  <outline>
    <contour>
      <point x="504" y="763" type="curve" smooth="yes"/>
      <point x="232" y="763"/>
      <point x="80" y="619"/>
      <point x="80" y="379" type="curve" smooth="yes"/>
      <point x="80" y="373" type="line" smooth="yes"/>
      <point x="80" y="104"/>
      <point x="255" y="-37"/>
      <point x="588" y="-37" type="curve" smooth="yes"/>
      <point x="869" y="-37"/>
      <point x="1017" y="74"/>
      <point x="1040" y="273" type="curve"/>
      <point x="1050" y="273" type="line"/>
      <point x="1068" y="74"/>
      <point x="1198" y="-37"/>
      <point x="1440" y="-37" type="curve" smooth="yes"/>
      <point x="1626" y="-37"/>
      <point x="1749" y="42"/>
      <point x="1804" y="194" type="curve"/>
      <point x="1816" y="189" type="line"/>
      <point x="1727" y="-156" type="line"/>
      <point x="2162" y="-156" type="line"/>
      <point x="2058" y="290"/>
      <point x="1962" y="628"/>
      <point x="1881" y="787" type="curve"/>
      <point x="1509" y="787" type="line"/>
      <point x="1547" y="705"/>
      <point x="1590" y="579"/>
      <point x="1590" y="488" type="curve" smooth="yes"/>
      <point x="1590" y="361"/>
      <point x="1532" y="298"/>
      <point x="1421" y="298" type="curve" smooth="yes"/>
      <point x="1317" y="298"/>
      <point x="1260" y="354"/>
      <point x="1253" y="462" type="curve" smooth="yes"/>
      <point x="1250" y="506" type="line"/>
      <point x="841" y="506" type="line"/>
      <point x="838" y="462" type="line" smooth="yes"/>
      <point x="830" y="347"/>
      <point x="754" y="288"/>
      <point x="617" y="288" type="curve" smooth="yes"/>
      <point x="510" y="288"/>
      <point x="461" y="317"/>
      <point x="461" y="377" type="curve"/>
      <point x="461" y="379" type="line"/>
      <point x="461" y="432"/>
      <point x="503" y="461"/>
      <point x="583" y="461" type="curve" smooth="yes"/>
      <point x="634" y="461"/>
      <point x="684" y="452"/>
      <point x="720" y="436" type="curve"/>
      <point x="701" y="732" type="line"/>
      <point x="643" y="754"/>
      <point x="584" y="763"/>
    </contour>
    <contour>
      <point x="1555" y="889" type="line"/>
      <point x="1555" y="1174" type="line"/>
      <point x="146" y="1174" type="line"/>
      <point x="146" y="889" type="line"/>
    </contour>
    <contour>
      <point x="1045" y="939" type="curve" smooth="yes"/>
      <point x="907" y="939"/>
      <point x="835" y="880"/>
      <point x="835" y="767" type="curve" smooth="yes"/>
      <point x="835" y="760" type="line" smooth="yes"/>
      <point x="835" y="648"/>
      <point x="907" y="589"/>
      <point x="1045" y="589" type="curve" smooth="yes"/>
      <point x="1185" y="589"/>
      <point x="1257" y="648"/>
      <point x="1257" y="760" type="curve" smooth="yes"/>
      <point x="1257" y="767" type="line" smooth="yes"/>
      <point x="1257" y="880"/>
      <point x="1185" y="939"/>
    </contour>
    <contour>
      <point x="1535" y="1546" type="line"/>
      <point x="1570" y="1473"/>
      <point x="1599" y="1380"/>
      <point x="1599" y="1305" type="curve" smooth="yes"/>
      <point x="1599" y="1210"/>
      <point x="1565" y="1174"/>
      <point x="1473" y="1174" type="curve" smooth="yes"/>
      <point x="1443" y="1174" type="line"/>
      <point x="1443" y="889" type="line"/>
      <point x="1615" y="889" type="line" smooth="yes"/>
      <point x="1836" y="889"/>
      <point x="1946" y="1005"/>
      <point x="1946" y="1233" type="curve" smooth="yes"/>
      <point x="1946" y="1338"/>
      <point x="1916" y="1446"/>
      <point x="1850" y="1546" type="curve"/>
    </contour>
  </outline>
</glyph>
<glyph name="Nukta1.kn" format="2">
  <unicode hex="0CBC"/>
  <anchor x="0" y="0" name="_nukta"/>
  <outline>
    <contour>
      <point x="-313" y="-124" type="curve" smooth="yes"/>
      <point x="-428" y="-124"/>
      <point x="-496" y="-181"/>
      <point x="-496" y="-283" type="curve" smooth="yes"/>
      <point x="-496" y="-385"/>
      <point x="-428" y="-442"/>
      <point x="-313" y="-442" type="curve" smooth="yes"/>
      <point x="-198" y="-442"/>
      <point x="-130" y="-385"/>
      <point x="-130" y="-283" type="curve" smooth="yes"/>
      <point x="-130" y="-181"/>
      <point x="-198" y="-124"/>
    </contour>
    <contour>
      <point x="313" y="-124" type="curve" smooth="yes"/>
      <point x="198" y="-124"/>
      <point x="130" y="-181"/>
      <point x="130" y="-283" type="curve" smooth="yes"/>
      <point x="130" y="-385"/>
      <point x="198" y="-442"/>
      <point x="313" y="-442" type="curve" smooth="yes"/>
      <point x="428" y="-442"/>
      <point x="496" y="-385"/>
      <point x="496" y="-283" type="curve" smooth="yes"/>
      <point x="496" y="-181"/>
      <point x="428" y="-124"/>
    </contour>
  </outline>
</glyph>
<glyph name="Avagraha" format="2">
  <advance width="1227"/>
  <unicode hex="0CBD"/>
  <outline>
    <contour>
      <point x="1076" y="1174" type="line"/>
      <point x="528" y="1174" type="line" smooth="yes"/>
      <point x="218" y="1174"/>
      <point x="70" y="1062"/>
      <point x="70" y="846" type="curve" smooth="yes"/>
      <point x="70" y="842" type="line" smooth="yes"/>
      <point x="70" y="418"/>
      <point x="769" y="497"/>
      <point x="769" y="357" type="curve"/>
      <point x="769" y="355" type="line"/>
      <point x="769" y="305"/>
      <point x="709" y="283"/>
      <point x="572" y="283" type="curve" smooth="yes"/>
      <point x="420" y="283"/>
      <point x="278" y="306"/>
      <point x="81" y="369" type="curve"/>
      <point x="131" y="40" type="line"/>
      <point x="278" y="-12"/>
      <point x="430" y="-37"/>
      <point x="622" y="-37" type="curve" smooth="yes"/>
      <point x="972" y="-37"/>
      <point x="1147" y="88"/>
      <point x="1147" y="338" type="curve" smooth="yes"/>
      <point x="1147" y="343" type="line" smooth="yes"/>
      <point x="1147" y="777"/>
      <point x="447" y="696"/>
      <point x="447" y="836" type="curve"/>
      <point x="447" y="837" type="line"/>
      <point x="447" y="870"/>
      <point x="471" y="889"/>
      <point x="539" y="889" type="curve" smooth="yes"/>
      <point x="1076" y="889" type="line"/>
    </contour>
  </outline>
  <guideline angle="90" x="487" y="0"/>
  <guideline angle="0" x="0" y="1331"/>
</glyph>
<glyph name="matraAa.kn" format="2">
  <advance width="1757"/>
  <unicode hex="0CBE"/>
  <outline>
    <contour>
      <point x="1667" y="524.555" type="line"/>
      <point x="1667" y="529" type="line" smooth="yes"/>
      <point x="1667" y="952"/>
      <point x="1415" y="1174"/>
      <point x="930" y="1174" type="curve" smooth="yes"/>
      <point x="69" y="1174" type="line"/>
      <point x="69" y="889" type="line"/>
      <point x="912" y="889" type="line" smooth="yes"/>
      <point x="1160" y="889"/>
      <point x="1287" y="769"/>
      <point x="1287" y="541" type="curve" smooth="yes"/>
      <point x="1287" y="496.88" type="line"/>
    </contour>
    <contour>
      <point x="1142" y="-36" type="curve" smooth="yes"/>
      <point x="1478" y="-36"/>
      <point x="1667" y="158"/>
      <point x="1667" y="518" type="curve" smooth="yes"/>
      <point x="1667" y="525.555" type="line"/>
      <point x="1287" y="497.88" type="line"/>
      <point x="1287" y="452" type="line" smooth="yes"/>
      <point x="1287" y="328"/>
      <point x="1236" y="263"/>
      <point x="1139" y="263" type="curve" smooth="yes"/>
      <point x="1062" y="263"/>
      <point x="1020" y="299"/>
      <point x="1020" y="367" type="curve"/>
      <point x="1020" y="369" type="line"/>
      <point x="1020" y="431"/>
      <point x="1060" y="466"/>
      <point x="1139" y="466" type="curve" smooth="yes"/>
      <point x="1214" y="466"/>
      <point x="1279" y="436"/>
      <point x="1330" y="377" type="curve"/>
      <point x="1340" y="530" type="line"/>
      <point x="1277" y="530" type="line"/>
      <point x="1248" y="660"/>
      <point x="1156" y="731"/>
      <point x="1008" y="731" type="curve" smooth="yes"/>
      <point x="789" y="731"/>
      <point x="660" y="599"/>
      <point x="660" y="374" type="curve"/>
      <point x="660" y="372" type="line"/>
      <point x="660" y="106"/>
      <point x="829" y="-36"/>
    </contour>
  </outline>
</glyph>
<glyph name="matraI.kn" format="2">
  <advance width="1057"/>
  <unicode hex="0CBF"/>
  <outline>
    <contour>
      <point x="952" y="1014" type="line" smooth="yes"/>
      <point x="952" y="1297"/>
      <point x="777" y="1455"/>
      <point x="469" y="1455" type="curve" smooth="yes"/>
      <point x="191" y="1455"/>
      <point x="43" y="1343"/>
      <point x="43" y="1137" type="curve"/>
      <point x="43" y="1135" type="line"/>
      <point x="43" y="960"/>
      <point x="166" y="859"/>
      <point x="371" y="859" type="curve" smooth="yes"/>
      <point x="510" y="859"/>
      <point x="593" y="908"/>
      <point x="620" y="994" type="curve"/>
      <point x="656" y="994" type="line"/>
      <point x="639" y="1132" type="line"/>
      <point x="595" y="1088"/>
      <point x="535" y="1066"/>
      <point x="469" y="1066" type="curve" smooth="yes"/>
      <point x="401" y="1066"/>
      <point x="366" y="1088"/>
      <point x="366" y="1129" type="curve"/>
      <point x="366" y="1131" type="line"/>
      <point x="366" y="1175"/>
      <point x="404" y="1199"/>
      <point x="469" y="1199" type="curve" smooth="yes"/>
      <point x="573" y="1199"/>
      <point x="629" y="1139"/>
      <point x="629" y="1033" type="curve" smooth="yes"/>
      <point x="629" y="990" type="line" smooth="yes"/>
      <point x="629" y="863"/>
      <point x="542" y="796"/>
      <point x="380" y="796" type="curve" smooth="yes"/>
      <point x="325" y="796"/>
      <point x="262" y="803"/>
      <point x="197" y="821" type="curve"/>
      <point x="265" y="584" type="line"/>
      <point x="325" y="572"/>
      <point x="383" y="566"/>
      <point x="442" y="566" type="curve" smooth="yes"/>
      <point x="766" y="566"/>
      <point x="952" y="728"/>
      <point x="952" y="1011" type="curve" smooth="yes"/>
    </contour>
  </outline>
</glyph>
<glyph name="matraU.kn" format="2">
  <advance width="872"/>
  <unicode hex="0CC1"/>
  <outline>
    <contour>
      <point x="219" y="1184" type="curve" smooth="yes"/>
      <point x="169" y="1184"/>
      <point x="123" y="1180"/>
      <point x="73" y="1172" type="curve"/>
      <point x="73" y="841" type="line"/>
      <point x="91" y="846"/>
      <point x="116" y="848"/>
      <point x="147" y="848" type="curve" smooth="yes"/>
      <point x="308" y="848"/>
      <point x="389" y="757"/>
      <point x="389" y="567" type="curve" smooth="yes"/>
      <point x="389" y="560" type="line" smooth="yes"/>
      <point x="389" y="390"/>
      <point x="298" y="298"/>
      <point x="133" y="298" type="curve" smooth="yes"/>
      <point x="-17" y="298"/>
      <point x="-100" y="377"/>
      <point x="-105" y="492" type="curve"/>
      <point x="-105" y="493" type="line"/>
      <point x="-227" y="492" type="line"/>
      <point x="-227" y="361" type="line" smooth="yes"/>
      <point x="-227" y="111"/>
      <point x="-60" y="-37"/>
      <point x="223" y="-37" type="curve" smooth="yes"/>
      <point x="583" y="-37"/>
      <point x="779" y="170"/>
      <point x="779" y="560" type="curve" smooth="yes"/>
      <point x="779" y="567" type="line" smooth="yes"/>
      <point x="779" y="968"/>
      <point x="582" y="1184"/>
    </contour>
  </outline>
</glyph>
<glyph name="matraUu.kn" format="2">
  <advance width="1719"/>
  <unicode hex="0CC2"/>
  <outline>
    <contour>
      <point x="18" y="293" type="curve" smooth="yes"/>
      <point x="-68" y="293"/>
      <point x="-111" y="343.994"/>
      <point x="-111" y="433" type="curve" smooth="yes"/>
      <point x="-111" y="434" type="line"/>
      <point x="-233" y="432" type="line"/>
      <point x="-233" y="301" type="line" smooth="yes"/>
      <point x="-233" y="89"/>
      <point x="-103" y="-37"/>
      <point x="117" y="-37" type="curve" smooth="yes"/>
      <point x="380" y="-37"/>
      <point x="516" y="124"/>
      <point x="516" y="429" type="curve" smooth="yes"/>
      <point x="516" y="497" type="line"/>
      <point x="141" y="497" type="line"/>
      <point x="141" y="449" type="line" smooth="yes"/>
      <point x="141" y="341"/>
      <point x="102" y="293"/>
    </contour>
    <contour>
      <point x="881.982" y="1211" type="curve" smooth="yes"/>
      <point x="393.982" y="1211"/>
      <point x="140.982" y="984"/>
      <point x="140.982" y="547" type="curve" smooth="yes"/>
      <point x="140.982" y="487" type="line"/>
      <point x="515.982" y="487" type="line"/>
      <point x="515.982" y="541" type="line" smooth="yes"/>
      <point x="515.982" y="771"/>
      <point x="639.982" y="886"/>
      <point x="883.982" y="886" type="curve" smooth="yes"/>
      <point x="1124.98" y="886"/>
      <point x="1248.98" y="767"/>
      <point x="1248.98" y="541" type="curve" smooth="yes"/>
      <point x="1248.98" y="475.557" type="line"/>
      <point x="1628.98" y="523.496" type="line"/>
      <point x="1628.98" y="529" type="line" smooth="yes"/>
      <point x="1628.98" y="976"/>
      <point x="1372.98" y="1211"/>
    </contour>
    <contour>
      <point x="1628.98" y="524.496" type="line"/>
      <point x="1248.98" y="476.557" type="line"/>
      <point x="1248.98" y="452" type="line" smooth="yes"/>
      <point x="1248.98" y="328"/>
      <point x="1197.98" y="263"/>
      <point x="1100.98" y="263" type="curve" smooth="yes"/>
      <point x="1023.98" y="263"/>
      <point x="981.982" y="299"/>
      <point x="981.982" y="367" type="curve"/>
      <point x="981.982" y="369" type="line"/>
      <point x="981.982" y="431"/>
      <point x="1021.98" y="466"/>
      <point x="1100.98" y="466" type="curve" smooth="yes"/>
      <point x="1175.98" y="466"/>
      <point x="1240.98" y="436"/>
      <point x="1291.98" y="377" type="curve"/>
      <point x="1301.98" y="530" type="line"/>
      <point x="1238.98" y="530" type="line"/>
      <point x="1209.98" y="660"/>
      <point x="1117.98" y="731"/>
      <point x="969.982" y="731" type="curve" smooth="yes"/>
      <point x="750.982" y="731"/>
      <point x="621.982" y="599"/>
      <point x="621.982" y="374" type="curve"/>
      <point x="621.982" y="372" type="line"/>
      <point x="621.982" y="106"/>
      <point x="790.982" y="-36"/>
      <point x="1103.98" y="-36" type="curve" smooth="yes"/>
      <point x="1439.98" y="-36"/>
      <point x="1628.98" y="158"/>
      <point x="1628.98" y="518" type="curve" smooth="yes"/>
    </contour>
  </outline>
</glyph>
<glyph name="matraRuu.kn" format="2">
  <advance width="969"/>
  <unicode hex="0CC4"/>
  <outline>
    <contour>
      <point x="-15.9435" y="209.133" type="line"/>
      <point x="89.377" y="55.6394"/>
      <point x="143" y="-115.318"/>
      <point x="143" y="-297" type="curve" smooth="yes"/>
      <point x="143" y="-303" type="line" smooth="yes"/>
      <point x="143" y="-486"/>
      <point x="53" y="-578"/>
      <point x="-126" y="-578" type="curve" smooth="yes"/>
      <point x="-299" y="-578"/>
      <point x="-379" y="-530"/>
      <point x="-379" y="-425" type="curve" smooth="yes"/>
      <point x="-379" y="-400" type="line"/>
      <point x="-626" y="-413" type="line"/>
      <point x="-626" y="-414" type="line"/>
      <point x="-626" y="-667"/>
      <point x="-441" y="-797"/>
      <point x="-130" y="-797" type="curve" smooth="yes"/>
      <point x="233" y="-797"/>
      <point x="422" y="-627"/>
      <point x="422" y="-301" type="curve" smooth="yes"/>
      <point x="422" y="-296" type="line" smooth="yes"/>
      <point x="422" y="-103"/>
      <point x="357" y="67"/>
      <point x="227" y="215" type="curve"/>
      <point x="-13.2474" y="215" type="line"/>
    </contour>
    <contour>
      <point x="1129" y="-170.207" type="line"/>
      <point x="1129" y="-167" type="line" smooth="yes"/>
      <point x="1129" y="80"/>
      <point x="980" y="215"/>
      <point x="680" y="215" type="curve" smooth="yes"/>
      <point x="162" y="215" type="line"/>
      <point x="285" y="18" type="line"/>
      <point x="687" y="18" type="line" smooth="yes"/>
      <point x="807" y="18"/>
      <point x="875" y="-36"/>
      <point x="875" y="-144" type="curve" smooth="yes"/>
      <point x="875" y="-189.624" type="line"/>
    </contour>
    <contour>
      <point x="875" y="-188.624" type="line"/>
      <point x="875" y="-212" type="line" smooth="yes"/>
      <point x="875" y="-276"/>
      <point x="848" y="-309"/>
      <point x="796" y="-309" type="curve" smooth="yes"/>
      <point x="760" y="-309"/>
      <point x="741" y="-295"/>
      <point x="741" y="-270" type="curve"/>
      <point x="741" y="-269" type="line"/>
      <point x="741" y="-245"/>
      <point x="760" y="-229"/>
      <point x="796" y="-229" type="curve" smooth="yes"/>
      <point x="839" y="-229"/>
      <point x="880" y="-249"/>
      <point x="919" y="-290" type="curve"/>
      <point x="925" y="-158" type="line"/>
      <point x="871" y="-158" type="line"/>
      <point x="849" y="-94.6667"/>
      <point x="792" y="-58"/>
      <point x="712" y="-58" type="curve" smooth="yes"/>
      <point x="585" y="-58"/>
      <point x="502" y="-129"/>
      <point x="502" y="-261" type="curve"/>
      <point x="502" y="-263" type="line"/>
      <point x="502" y="-416"/>
      <point x="605" y="-498"/>
      <point x="796" y="-498" type="curve" smooth="yes"/>
      <point x="1017" y="-498"/>
      <point x="1129" y="-383"/>
      <point x="1129" y="-172" type="curve" smooth="yes"/>
      <point x="1129" y="-169.207" type="line"/>
    </contour>
    <contour>
      <point x="-283" y="-94" type="curve" smooth="yes"/>
      <point x="-502" y="-94"/>
      <point x="-626" y="-206"/>
      <point x="-626" y="-411" type="curve" smooth="yes"/>
      <point x="-626" y="-413.378" type="line"/>
      <point x="-379" y="-403" type="line"/>
      <point x="-379" y="-385" type="line" smooth="yes"/>
      <point x="-379" y="-323"/>
      <point x="-348" y="-286"/>
      <point x="-289" y="-286" type="curve" smooth="yes"/>
      <point x="-249" y="-286"/>
      <point x="-226" y="-301"/>
      <point x="-226" y="-328" type="curve"/>
      <point x="-226" y="-330" type="line"/>
      <point x="-226" y="-356"/>
      <point x="-247" y="-370"/>
      <point x="-289" y="-370" type="curve" smooth="yes"/>
      <point x="-336" y="-370"/>
      <point x="-381" y="-350"/>
      <point x="-423" y="-309" type="curve"/>
      <point x="-432" y="-423" type="line"/>
      <point x="-373" y="-423" type="line"/>
      <point x="-353" y="-490"/>
      <point x="-290" y="-523"/>
      <point x="-191" y="-523" type="curve" smooth="yes"/>
      <point x="-66" y="-523"/>
      <point x="7" y="-451"/>
      <point x="7" y="-327" type="curve"/>
      <point x="7" y="-326" type="line"/>
      <point x="7" y="-176"/>
      <point x="-94" y="-94"/>
    </contour>
  </outline>
</glyph>
<glyph name="matraE.kn" format="2">
  <advance width="1095"/>
  <unicode hex="0CC6"/>
  <outline>
    <contour>
      <point x="626" y="889" type="line" smooth="yes"/>
      <point x="895" y="889"/>
      <point x="1044" y="1032"/>
      <point x="1044" y="1289" type="curve" smooth="yes"/>
      <point x="1044" y="1297" type="line" smooth="yes"/>
      <point x="1044" y="1556"/>
      <point x="889" y="1699"/>
      <point x="611" y="1699" type="curve" smooth="yes"/>
      <point x="355" y="1699"/>
      <point x="216" y="1593"/>
      <point x="216" y="1403" type="curve"/>
      <point x="216" y="1402" type="line"/>
      <point x="216" y="1347"/>
      <point x="228" y="1292"/>
      <point x="253" y="1254" type="curve"/>
      <point x="561" y="1254" type="line"/>
      <point x="551" y="1275"/>
      <point x="544" y="1302"/>
      <point x="544" y="1328" type="curve"/>
      <point x="544" y="1329" type="line"/>
      <point x="544" y="1385"/>
      <point x="570" y="1416"/>
      <point x="619" y="1416" type="curve" smooth="yes"/>
      <point x="671" y="1416"/>
      <point x="699" y="1377"/>
      <point x="699" y="1314" type="curve"/>
      <point x="699" y="1313" type="line"/>
      <point x="699" y="1220"/>
      <point x="651" y="1174"/>
      <point x="552" y="1174" type="curve" smooth="yes"/>
      <point x="372" y="1174" type="line"/>
      <point x="377" y="889" type="line"/>
    </contour>
  </outline>
</glyph>
<glyph name="matraAu.kn" format="2">
  <advance width="1925"/>
  <unicode hex="0CCC"/>
  <outline>
    <contour>
      <point x="521" y="889" type="line" smooth="yes"/>
      <point x="706" y="889"/>
      <point x="818" y="982"/>
      <point x="818" y="1137" type="curve"/>
      <point x="818" y="1139" type="line"/>
      <point x="818" y="1247"/>
      <point x="763" y="1317"/>
      <point x="659" y="1343" type="curve"/>
      <point x="659" y="1383" type="line"/>
      <point x="321" y="1382" type="line"/>
      <point x="321" y="1352" type="line"/>
      <point x="401" y="1352"/>
      <point x="438" y="1323"/>
      <point x="438" y="1263" type="curve"/>
      <point x="438" y="1261" type="line"/>
      <point x="438" y="1201"/>
      <point x="401" y="1174"/>
      <point x="321" y="1174" type="curve" smooth="yes"/>
      <point x="249" y="1174" type="line"/>
      <point x="249" y="889" type="line"/>
    </contour>
    <contour>
      <point x="1370" y="420" type="curve" smooth="yes"/>
      <point x="1710" y="420"/>
      <point x="1885" y="605"/>
      <point x="1885" y="953" type="curve" smooth="yes"/>
      <point x="1885" y="958.181" type="line"/>
      <point x="1516" y="933.168" type="line"/>
      <point x="1516" y="901" type="line" smooth="yes"/>
      <point x="1516" y="776"/>
      <point x="1466" y="712"/>
      <point x="1371" y="712" type="curve" smooth="yes"/>
      <point x="1295" y="712"/>
      <point x="1255" y="744"/>
      <point x="1255" y="799" type="curve"/>
      <point x="1255" y="801" type="line"/>
      <point x="1255" y="859"/>
      <point x="1294" y="892"/>
      <point x="1371" y="892" type="curve" smooth="yes"/>
      <point x="1445" y="892"/>
      <point x="1509" y="862"/>
      <point x="1558" y="804" type="curve"/>
      <point x="1568" y="964" type="line"/>
      <point x="1505" y="964" type="line"/>
      <point x="1476" y="1085"/>
      <point x="1377" y="1149"/>
      <point x="1233" y="1149" type="curve" smooth="yes"/>
      <point x="1020" y="1149"/>
      <point x="904" y="1019"/>
      <point x="904" y="806" type="curve"/>
      <point x="904" y="804" type="line"/>
      <point x="904" y="555"/>
      <point x="1066" y="420"/>
    </contour>
    <contour>
      <point x="1885" y="957.181" type="line"/>
      <point x="1885" y="961" type="line" smooth="yes"/>
      <point x="1885" y="1391"/>
      <point x="1623" y="1635"/>
      <point x="1102" y="1635" type="curve" smooth="yes"/>
      <point x="4" y="1635" type="line"/>
      <point x="4" y="1352" type="line"/>
      <point x="1092" y="1352" type="line" smooth="yes"/>
      <point x="1368" y="1352"/>
      <point x="1516" y="1217"/>
      <point x="1516" y="966" type="curve" smooth="yes"/>
      <point x="1516" y="932.168" type="line"/>
    </contour>
  </outline>
</glyph>
<glyph name="Halant.kn" format="2">
  <advance width="929"/>
  <unicode hex="0CCD"/>
  <outline>
    <contour>
      <point x="336" y="978" type="line"/>
      <point x="336" y="1039" type="line" smooth="yes"/>
      <point x="336" y="1212"/>
      <point x="419" y="1288"/>
      <point x="606" y="1288" type="curve" smooth="yes"/>
      <point x="686" y="1288"/>
      <point x="773" y="1272"/>
      <point x="847" y="1241" type="curve"/>
      <point x="796" y="1531" type="line"/>
      <point x="721" y="1556"/>
      <point x="633" y="1570"/>
      <point x="543" y="1570" type="curve" smooth="yes"/>
      <point x="209" y="1570"/>
      <point x="15" y="1377"/>
      <point x="15" y="1035" type="curve" smooth="yes"/>
      <point x="15" y="969" type="line"/>
    </contour>
    <contour>
      <point x="470" y="423" type="curve" smooth="yes"/>
      <point x="736" y="423"/>
      <point x="890" y="558"/>
      <point x="890" y="797" type="curve" smooth="yes"/>
      <point x="890" y="801" type="line" smooth="yes"/>
      <point x="890" y="1047"/>
      <point x="744" y="1174"/>
      <point x="459" y="1174" type="curve" smooth="yes"/>
      <point x="-592" y="1174" type="line"/>
      <point x="-592" y="889" type="line"/>
      <point x="195" y="889" type="line"/>
      <point x="195" y="900" type="line"/>
      <point x="425" y="900" type="line" smooth="yes"/>
      <point x="524" y="900"/>
      <point x="565" y="868"/>
      <point x="565" y="803" type="curve" smooth="yes"/>
      <point x="565" y="800" type="line" smooth="yes"/>
      <point x="565" y="737"/>
      <point x="530" y="705"/>
      <point x="465" y="705" type="curve" smooth="yes"/>
      <point x="376" y="705"/>
      <point x="336" y="768"/>
      <point x="336" y="877" type="curve" smooth="yes"/>
      <point x="336" y="984" type="line"/>
      <point x="15" y="984" type="line"/>
      <point x="15" y="885" type="line" smooth="yes"/>
      <point x="15" y="573"/>
      <point x="184" y="423"/>
    </contour>
  </outline>
</glyph>
<glyph name="Lengthmark.kn" format="2">
  <advance width="1153"/>
  <unicode hex="0CD5"/>
  <outline>
    <contour>
      <point x="436" y="675.336" type="line"/>
      <point x="436" y="698" type="line" smooth="yes"/>
      <point x="436" y="828"/>
      <point x="495" y="901"/>
      <point x="607" y="901" type="curve" smooth="yes"/>
      <point x="686" y="901"/>
      <point x="730" y="865"/>
      <point x="730" y="797" type="curve"/>
      <point x="730" y="795" type="line"/>
      <point x="730" y="733"/>
      <point x="689" y="698"/>
      <point x="607" y="698" type="curve" smooth="yes"/>
      <point x="523" y="698"/>
      <point x="450" y="728"/>
      <point x="393" y="787" type="curve"/>
      <point x="383" y="635" type="line"/>
      <point x="444" y="635" type="line"/>
      <point x="476" y="511"/>
      <point x="577" y="444"/>
      <point x="738" y="444" type="curve" smooth="yes"/>
      <point x="955" y="444"/>
      <point x="1083" y="576"/>
      <point x="1083" y="801" type="curve"/>
      <point x="1083" y="803" type="line"/>
      <point x="1083" y="1069"/>
      <point x="917" y="1211"/>
      <point x="605" y="1211" type="curve" smooth="yes"/>
      <point x="255" y="1211"/>
      <point x="56" y="1013"/>
      <point x="56" y="654" type="curve" smooth="yes"/>
      <point x="56" y="645.501" type="line"/>
    </contour>
    <contour>
      <point x="56" y="647" type="line"/>
      <point x="56" y="637" type="line" smooth="yes"/>
      <point x="56" y="206"/>
      <point x="326" y="-19"/>
      <point x="846" y="-19" type="curve" smooth="yes"/>
      <point x="966" y="-19" type="line"/>
      <point x="1032" y="271" type="line"/>
      <point x="917" y="271" type="line" smooth="yes"/>
      <point x="584" y="271"/>
      <point x="436" y="384"/>
      <point x="436" y="637" type="curve" smooth="yes"/>
      <point x="436" y="681.013" type="line"/>
    </contour>
  </outline>
</glyph>
<glyph name="LllaObsolete.kn" format="2">
  <advance width="2247"/>
  <unicode hex="0CDE"/>
  <outline>
    <contour>
      <point x="80" y="599.9" type="line"/>
      <point x="80" y="594" type="line" smooth="yes"/>
      <point x="80" y="179"/>
      <point x="293" y="-37"/>
      <point x="671" y="-37" type="curve" smooth="yes"/>
      <point x="951.153" y="-37"/>
      <point x="1099.03" y="75.5278"/>
      <point x="1120.57" y="278" type="curve"/>
      <point x="1130.43" y="278" type="line"/>
      <point x="1151.97" y="75.5278"/>
      <point x="1299.85" y="-37"/>
      <point x="1580" y="-37" type="curve" smooth="yes"/>
      <point x="1955" y="-37"/>
      <point x="2167" y="179"/>
      <point x="2167" y="594" type="curve" smooth="yes"/>
      <point x="2167" y="599.9" type="line"/>
      <point x="1797" y="663.05" type="line"/>
      <point x="1797" y="623" type="line" smooth="yes"/>
      <point x="1797" y="404"/>
      <point x="1709" y="298"/>
      <point x="1531" y="298" type="curve" smooth="yes"/>
      <point x="1407" y="298"/>
      <point x="1343" y="353"/>
      <point x="1332" y="457" type="curve" smooth="yes"/>
      <point x="1330" y="476" type="line"/>
      <point x="921" y="476" type="line"/>
      <point x="919" y="457" type="line" smooth="yes"/>
      <point x="908" y="353"/>
      <point x="844" y="298"/>
      <point x="720" y="298" type="curve" smooth="yes"/>
      <point x="539" y="298"/>
      <point x="450" y="404"/>
      <point x="450" y="623" type="curve" smooth="yes"/>
      <point x="450" y="663.05" type="line"/>
    </contour>
    <contour>
      <point x="613" y="1211" type="curve" smooth="yes"/>
      <point x="272" y="1211"/>
      <point x="80" y="1000"/>
      <point x="80" y="606" type="curve" smooth="yes"/>
      <point x="80" y="598.896" type="line"/>
      <point x="450" y="662.061" type="line"/>
      <point x="450" y="698" type="line" smooth="yes"/>
      <point x="450" y="828"/>
      <point x="506" y="901"/>
      <point x="611" y="901" type="curve" smooth="yes"/>
      <point x="684" y="901"/>
      <point x="723" y="869"/>
      <point x="723" y="807" type="curve"/>
      <point x="723" y="805" type="line"/>
      <point x="723" y="748"/>
      <point x="686" y="717"/>
      <point x="611" y="717" type="curve" smooth="yes"/>
      <point x="531" y="717"/>
      <point x="461" y="744"/>
      <point x="407" y="797" type="curve"/>
      <point x="397" y="645" type="line"/>
      <point x="460" y="645" type="line"/>
      <point x="491" y="527"/>
      <point x="586" y="463"/>
      <point x="742" y="463" type="curve" smooth="yes"/>
      <point x="953" y="463"/>
      <point x="1076" y="591"/>
      <point x="1076" y="811" type="curve"/>
      <point x="1076" y="813" type="line"/>
      <point x="1076" y="1073"/>
      <point x="915" y="1211"/>
    </contour>
    <contour>
      <point x="1634" y="1211" type="curve" smooth="yes"/>
      <point x="1332" y="1211"/>
      <point x="1171" y="1073"/>
      <point x="1171" y="813" type="curve"/>
      <point x="1171" y="811" type="line"/>
      <point x="1171" y="591"/>
      <point x="1294" y="463"/>
      <point x="1505" y="463" type="curve" smooth="yes"/>
      <point x="1661" y="463"/>
      <point x="1756" y="527"/>
      <point x="1787" y="645" type="curve"/>
      <point x="1850" y="645" type="line"/>
      <point x="1840" y="797" type="line"/>
      <point x="1786" y="744"/>
      <point x="1716" y="717"/>
      <point x="1636" y="717" type="curve" smooth="yes"/>
      <point x="1561" y="717"/>
      <point x="1524" y="748"/>
      <point x="1524" y="805" type="curve"/>
      <point x="1524" y="807" type="line"/>
      <point x="1524" y="869"/>
      <point x="1563" y="901"/>
      <point x="1636" y="901" type="curve" smooth="yes"/>
      <point x="1741" y="901"/>
      <point x="1797" y="828"/>
      <point x="1797" y="698" type="curve" smooth="yes"/>
      <point x="1797" y="662.061" type="line"/>
      <point x="2167" y="598.896" type="line"/>
      <point x="2167" y="606" type="line" smooth="yes"/>
      <point x="2167" y="1000"/>
      <point x="1975" y="1211"/>
    </contour>
  </outline>
</glyph>
<glyph name="vowelLruu.kn" format="2">
  <advance width="2042"/>
  <unicode hex="0CE1"/>
  <outline>
    <contour>
      <point x="1023" y="-86" type="line"/>
      <point x="829" y="-86" type="line"/>
      <point x="804" y="18"/>
      <point x="699" y="64"/>
      <point x="570" y="64" type="curve" smooth="yes"/>
      <point x="331" y="64"/>
      <point x="194" y="-59"/>
      <point x="194" y="-272" type="curve"/>
      <point x="194" y="-273" type="line"/>
      <point x="194" y="-487"/>
      <point x="327" y="-611"/>
      <point x="557" y="-611" type="curve" smooth="yes"/>
      <point x="707" y="-611"/>
      <point x="796" y="-567"/>
      <point x="833" y="-475" type="curve"/>
      <point x="900" y="-475" type="line"/>
      <point x="884" y="-250" type="line"/>
      <point x="859" y="-317"/>
      <point x="781" y="-357"/>
      <point x="683" y="-357" type="curve" smooth="yes"/>
      <point x="594" y="-357"/>
      <point x="542" y="-328"/>
      <point x="542" y="-278" type="curve" smooth="yes"/>
      <point x="542" y="-273" type="line" smooth="yes"/>
      <point x="542" y="-219"/>
      <point x="588" y="-189"/>
      <point x="686" y="-189" type="curve" smooth="yes"/>
      <point x="813" y="-189"/>
      <point x="842" y="-243"/>
      <point x="842" y="-275" type="curve"/>
    </contour>
    <contour>
      <point x="831" y="1174" type="line"/>
      <point x="831" y="913" type="line" smooth="yes"/>
      <point x="831" y="811"/>
      <point x="844" y="729"/>
      <point x="863" y="650" type="curve"/>
      <point x="853" y="647" type="line"/>
      <point x="811" y="751"/>
      <point x="712" y="818"/>
      <point x="532" y="818" type="curve" smooth="yes"/>
      <point x="238" y="818"/>
      <point x="75" y="664"/>
      <point x="75" y="368" type="curve" smooth="yes"/>
      <point x="75" y="365" type="line" smooth="yes"/>
      <point x="75" y="272"/>
      <point x="89" y="182"/>
      <point x="116" y="120" type="curve"/>
      <point x="489" y="120" type="line"/>
      <point x="472" y="176"/>
      <point x="461" y="241"/>
      <point x="461" y="304" type="curve"/>
      <point x="461" y="305" type="line"/>
      <point x="461" y="437"/>
      <point x="524" y="501"/>
      <point x="653" y="501" type="curve" smooth="yes"/>
      <point x="769" y="501"/>
      <point x="831" y="431"/>
      <point x="835" y="296" type="curve" smooth="yes"/>
      <point x="844" y="-656" type="line"/>
      <point x="1198" y="-656" type="line"/>
      <point x="1207" y="296" type="line"/>
      <point x="1211" y="431"/>
      <point x="1273" y="501"/>
      <point x="1389" y="501" type="curve" smooth="yes"/>
      <point x="1518" y="501"/>
      <point x="1581" y="437"/>
      <point x="1581" y="305" type="curve"/>
      <point x="1581" y="304" type="line"/>
      <point x="1581" y="241"/>
      <point x="1570" y="176"/>
      <point x="1553" y="120" type="curve"/>
      <point x="1926" y="120" type="line"/>
      <point x="1953" y="182"/>
      <point x="1967" y="272"/>
      <point x="1967" y="365" type="curve" smooth="yes"/>
      <point x="1967" y="368" type="line" smooth="yes"/>
      <point x="1967" y="665"/>
      <point x="1804" y="818"/>
      <point x="1510" y="818" type="curve" smooth="yes"/>
      <point x="1329" y="818"/>
      <point x="1232" y="752"/>
      <point x="1189" y="647" type="curve"/>
      <point x="1179" y="650" type="line"/>
      <point x="1198" y="729"/>
      <point x="1211" y="811"/>
      <point x="1211" y="913" type="curve" smooth="yes"/>
      <point x="1211" y="1174" type="line"/>
    </contour>
  </outline>
  <guideline angle="90" x="6228" y="0"/>
  <guideline angle="90" x="6189" y="0"/>
</glyph>
<glyph name="matraLru.kn" format="2">
  <unicode hex="0CE2"/>
  <outline>
    <contour>
      <point x="-413" y="-98" type="line"/>
      <point x="-413" y="-238" type="line" smooth="yes"/>
      <point x="-413" y="-298"/>
      <point x="-404" y="-344"/>
      <point x="-391" y="-390" type="curve"/>
      <point x="-398" y="-393" type="line"/>
      <point x="-422" y="-339"/>
      <point x="-476" y="-303"/>
      <point x="-575" y="-303" type="curve" smooth="yes"/>
      <point x="-750" y="-303"/>
      <point x="-851" y="-396"/>
      <point x="-851" y="-575" type="curve"/>
      <point x="-851" y="-576" type="line"/>
      <point x="-851" y="-652"/>
      <point x="-833" y="-725"/>
      <point x="-799" y="-775" type="curve"/>
      <point x="-538" y="-775" type="line"/>
      <point x="-569" y="-727"/>
      <point x="-589" y="-670"/>
      <point x="-589" y="-616" type="curve"/>
      <point x="-589" y="-615" type="line"/>
      <point x="-589" y="-555"/>
      <point x="-557" y="-526"/>
      <point x="-503" y="-526" type="curve" smooth="yes"/>
      <point x="-450" y="-526"/>
      <point x="-420" y="-558"/>
      <point x="-417" y="-620" type="curve" smooth="yes"/>
      <point x="-410" y="-774" type="line"/>
      <point x="-162" y="-774" type="line"/>
      <point x="-155" y="-620" type="line" smooth="yes"/>
      <point x="-152" y="-558"/>
      <point x="-122" y="-526"/>
      <point x="-69" y="-526" type="curve" smooth="yes"/>
      <point x="-15" y="-526"/>
      <point x="17" y="-555"/>
      <point x="17" y="-615" type="curve"/>
      <point x="17" y="-616" type="line"/>
      <point x="17" y="-670"/>
      <point x="-3" y="-727"/>
      <point x="-34" y="-775" type="curve"/>
      <point x="227" y="-775" type="line"/>
      <point x="261" y="-725"/>
      <point x="279" y="-652"/>
      <point x="279" y="-576" type="curve"/>
      <point x="279" y="-575" type="line"/>
      <point x="279" y="-396"/>
      <point x="178" y="-303"/>
      <point x="3" y="-303" type="curve" smooth="yes"/>
      <point x="-96" y="-303"/>
      <point x="-150" y="-339"/>
      <point x="-174" y="-393" type="curve"/>
      <point x="-181" y="-390" type="line"/>
      <point x="-168" y="-344"/>
      <point x="-159" y="-298"/>
      <point x="-159" y="-238" type="curve" smooth="yes"/>
      <point x="-159" y="-98" type="line"/>
    </contour>
  </outline>
</glyph>
<glyph name="matraLruu.kn" format="2">
  <unicode hex="0CE3"/>
  <outline>
    <contour>
      <point x="-556" y="-668" type="curve" smooth="yes"/>
      <point x="-692" y="-668"/>
      <point x="-769" y="-738"/>
      <point x="-769" y="-859" type="curve"/>
      <point x="-769" y="-860" type="line"/>
      <point x="-769" y="-982"/>
      <point x="-693" y="-1053"/>
      <point x="-562" y="-1053" type="curve" smooth="yes"/>
      <point x="-475" y="-1053"/>
      <point x="-420" y="-1027"/>
      <point x="-399" y="-973" type="curve"/>
      <point x="-348" y="-973" type="line"/>
      <point x="-367" y="-851" type="line"/>
      <point x="-380" y="-878"/>
      <point x="-419" y="-894"/>
      <point x="-469" y="-894" type="curve" smooth="yes"/>
      <point x="-509" y="-894"/>
      <point x="-530" y="-882"/>
      <point x="-530" y="-861" type="curve"/>
      <point x="-530" y="-860" type="line"/>
      <point x="-530" y="-837"/>
      <point x="-510" y="-825"/>
      <point x="-468" y="-825" type="curve" smooth="yes"/>
      <point x="-408" y="-825"/>
      <point x="-396" y="-850"/>
      <point x="-396" y="-865" type="curve"/>
      <point x="-265" y="-755" type="line"/>
      <point x="-403" y="-755" type="line"/>
      <point x="-417" y="-694"/>
      <point x="-480" y="-668"/>
    </contour>
    <contour>
      <point x="-397" y="-98" type="line"/>
      <point x="-397" y="-198" type="line" smooth="yes"/>
      <point x="-397" y="-258"/>
      <point x="-388" y="-304"/>
      <point x="-375" y="-350" type="curve"/>
      <point x="-382" y="-353" type="line"/>
      <point x="-406" y="-299"/>
      <point x="-460" y="-263"/>
      <point x="-559" y="-263" type="curve" smooth="yes"/>
      <point x="-734" y="-263"/>
      <point x="-835" y="-353"/>
      <point x="-835" y="-525" type="curve"/>
      <point x="-835" y="-526" type="line"/>
      <point x="-835" y="-566"/>
      <point x="-828" y="-606"/>
      <point x="-816" y="-641" type="curve"/>
      <point x="-560" y="-641" type="line"/>
      <point x="-568" y="-618"/>
      <point x="-573" y="-594"/>
      <point x="-573" y="-571" type="curve"/>
      <point x="-573" y="-570" type="line"/>
      <point x="-573" y="-514"/>
      <point x="-541" y="-486"/>
      <point x="-487" y="-486" type="curve" smooth="yes"/>
      <point x="-434" y="-486"/>
      <point x="-402" y="-517"/>
      <point x="-401" y="-575" type="curve" smooth="yes"/>
      <point x="-393" y="-1079" type="line"/>
      <point x="-147" y="-1079" type="line"/>
      <point x="-139" y="-575" type="line" smooth="yes"/>
      <point x="-138" y="-517"/>
      <point x="-106" y="-486"/>
      <point x="-53" y="-486" type="curve" smooth="yes"/>
      <point x="1" y="-486"/>
      <point x="33" y="-514"/>
      <point x="33" y="-570" type="curve"/>
      <point x="33" y="-571" type="line"/>
      <point x="33" y="-594"/>
      <point x="28" y="-618"/>
      <point x="20" y="-641" type="curve"/>
      <point x="276" y="-641" type="line"/>
      <point x="288" y="-606"/>
      <point x="295" y="-566"/>
      <point x="295" y="-526" type="curve"/>
      <point x="295" y="-525" type="line"/>
      <point x="295" y="-353"/>
      <point x="194" y="-263"/>
      <point x="19" y="-263" type="curve" smooth="yes"/>
      <point x="-80" y="-263"/>
      <point x="-134" y="-299"/>
      <point x="-158" y="-353" type="curve"/>
      <point x="-165" y="-350" type="line"/>
      <point x="-152" y="-304"/>
      <point x="-143" y="-258"/>
      <point x="-143" y="-198" type="curve" smooth="yes"/>
      <point x="-143" y="-98" type="line"/>
    </contour>
  </outline>
</glyph>
<glyph name="Shunya.kn" format="2">
  <advance width="1658"/>
  <unicode hex="0CE6"/>
  <outline>
    <contour>
      <point x="480" y="596" type="line"/>
      <point x="480" y="600" type="line" smooth="yes"/>
      <point x="480" y="799"/>
      <point x="600" y="907"/>
      <point x="829" y="907" type="curve" smooth="yes"/>
      <point x="1058" y="907"/>
      <point x="1178" y="799"/>
      <point x="1178" y="600" type="curve" smooth="yes"/>
      <point x="1178" y="596" type="line"/>
      <point x="1568" y="596" type="line"/>
      <point x="1568" y="608" type="line" smooth="yes"/>
      <point x="1568" y="1019"/>
      <point x="1305" y="1237"/>
      <point x="829" y="1237" type="curve" smooth="yes"/>
      <point x="353" y="1237"/>
      <point x="90" y="1019"/>
      <point x="90" y="608" type="curve" smooth="yes"/>
      <point x="90" y="596" type="line"/>
    </contour>
    <contour>
      <point x="480" y="599" type="line"/>
      <point x="90" y="599" type="line"/>
      <point x="90" y="587" type="line" smooth="yes"/>
      <point x="90" y="175"/>
      <point x="353" y="-42"/>
      <point x="829" y="-42" type="curve" smooth="yes"/>
      <point x="1305" y="-42"/>
      <point x="1568" y="175"/>
      <point x="1568" y="587" type="curve" smooth="yes"/>
      <point x="1568" y="599" type="line"/>
      <point x="1178" y="599" type="line"/>
      <point x="1178" y="595" type="line" smooth="yes"/>
      <point x="1178" y="395"/>
      <point x="1058" y="288"/>
      <point x="829" y="288" type="curve" smooth="yes"/>
      <point x="600" y="288"/>
      <point x="480" y="395"/>
      <point x="480" y="595" type="curve" smooth="yes"/>
    </contour>
  </outline>
</glyph>
<glyph name="Ondu.kn" format="2">
  <advance width="1668"/>
  <unicode hex="0CE7"/>
  <outline>
    <contour>
      <point x="834" y="1237" type="curve" smooth="yes"/>
      <point x="358" y="1237"/>
      <point x="95" y="999"/>
      <point x="95" y="551" type="curve" smooth="yes"/>
      <point x="95" y="535" type="line" smooth="yes"/>
      <point x="95" y="319"/>
      <point x="145" y="143"/>
      <point x="245" y="0" type="curve"/>
      <point x="653" y="0" type="line"/>
      <point x="545" y="157"/>
      <point x="485" y="334"/>
      <point x="485" y="519" type="curve" smooth="yes"/>
      <point x="485" y="530" type="line" smooth="yes"/>
      <point x="485" y="774"/>
      <point x="605" y="907"/>
      <point x="834" y="907" type="curve" smooth="yes"/>
      <point x="1063" y="907"/>
      <point x="1183" y="774"/>
      <point x="1183" y="530" type="curve" smooth="yes"/>
      <point x="1183" y="519" type="line" smooth="yes"/>
      <point x="1183" y="334"/>
      <point x="1123" y="157"/>
      <point x="1015" y="0" type="curve"/>
      <point x="1423" y="0" type="line"/>
      <point x="1523" y="143"/>
      <point x="1573" y="319"/>
      <point x="1573" y="535" type="curve" smooth="yes"/>
      <point x="1573" y="551" type="line" smooth="yes"/>
      <point x="1573" y="999"/>
      <point x="1310" y="1237"/>
    </contour>
  </outline>
</glyph>
<glyph name="Eradu.kn" format="2">
  <advance width="1823"/>
  <unicode hex="0CE8"/>
  <outline>
    <contour>
      <point x="371" y="717" type="line"/>
      <point x="371" y="714" type="line" smooth="yes"/>
      <point x="371" y="458.073"/>
      <point x="538.22" y="337"/>
      <point x="823" y="337" type="curve" smooth="yes"/>
      <point x="1108.93" y="337"/>
      <point x="1245" y="445"/>
      <point x="1245" y="643" type="curve"/>
      <point x="1245" y="644" type="line"/>
      <point x="1245" y="807"/>
      <point x="1136" y="906"/>
      <point x="954" y="906" type="curve" smooth="yes"/>
      <point x="819" y="906"/>
      <point x="737" y="854"/>
      <point x="710" y="792" type="curve"/>
      <point x="661" y="792" type="line"/>
      <point x="676" y="619" type="line"/>
      <point x="706" y="689"/>
      <point x="761" y="714"/>
      <point x="819" y="714" type="curve" smooth="yes"/>
      <point x="880.688" y="714"/>
      <point x="913" y="688"/>
      <point x="913" y="644" type="curve"/>
      <point x="913" y="642" type="line"/>
      <point x="913" y="593"/>
      <point x="879.25" y="568"/>
      <point x="823" y="568" type="curve" smooth="yes"/>
      <point x="742.051" y="568"/>
      <point x="700" y="618.672"/>
      <point x="700" y="706" type="curve" smooth="yes"/>
      <point x="700" y="745.449" type="line"/>
    </contour>
    <contour>
      <point x="700" y="740" type="line"/>
      <point x="700" y="772" type="line" smooth="yes"/>
      <point x="700" y="879"/>
      <point x="814" y="941"/>
      <point x="1012" y="941" type="curve" smooth="yes"/>
      <point x="1252" y="941"/>
      <point x="1368" y="836"/>
      <point x="1368" y="620" type="curve"/>
      <point x="1368" y="618" type="line"/>
      <point x="1368" y="389"/>
      <point x="1230" y="285"/>
      <point x="928" y="285" type="curve" smooth="yes"/>
      <point x="0" y="285" type="line"/>
      <point x="60" y="0" type="line"/>
      <point x="1030" y="0" type="line" smooth="yes"/>
      <point x="1487" y="0"/>
      <point x="1745" y="217"/>
      <point x="1745" y="600" type="curve" smooth="yes"/>
      <point x="1745" y="608" type="line" smooth="yes"/>
      <point x="1745" y="1003"/>
      <point x="1499" y="1211"/>
      <point x="1032" y="1211" type="curve" smooth="yes"/>
      <point x="599" y="1211"/>
      <point x="371" y="1041.94"/>
      <point x="371" y="719" type="curve" smooth="yes"/>
      <point x="371" y="716" type="line"/>
    </contour>
  </outline>
</glyph>
<glyph name="Nalku.kn" format="2">
  <advance width="1774"/>
  <unicode hex="0CEA"/>
  <outline>
    <contour>
      <point x="913" y="372" type="curve" smooth="yes"/>
      <point x="1021" y="372"/>
      <point x="1066" y="343"/>
      <point x="1066" y="291" type="curve"/>
      <point x="1066" y="290" type="line"/>
      <point x="1066" y="237"/>
      <point x="1021" y="209"/>
      <point x="913" y="209" type="curve" smooth="yes"/>
      <point x="805" y="209"/>
      <point x="760" y="237"/>
      <point x="760" y="290" type="curve"/>
      <point x="760" y="291" type="line"/>
      <point x="760" y="343"/>
      <point x="805" y="372"/>
    </contour>
    <contour>
      <point x="913" y="574" type="line"/>
      <point x="549" y="431" type="line"/>
      <point x="456" y="384"/>
      <point x="413" y="325"/>
      <point x="413" y="234" type="curve"/>
      <point x="413" y="232" type="line"/>
      <point x="413" y="42"/>
      <point x="587" y="-57"/>
      <point x="913" y="-57" type="curve" smooth="yes"/>
      <point x="1239" y="-57"/>
      <point x="1413" y="42"/>
      <point x="1413" y="232" type="curve"/>
      <point x="1413" y="234" type="line"/>
      <point x="1413" y="325"/>
      <point x="1370" y="384"/>
      <point x="1277" y="431" type="curve"/>
    </contour>
    <contour>
      <point x="708" y="354" type="curve"/>
      <point x="911" y="474" type="line"/>
      <point x="1159" y="361" type="line"/>
      <point x="1537" y="377"/>
      <point x="1734" y="525"/>
      <point x="1734" y="793" type="curve" smooth="yes"/>
      <point x="1734" y="798" type="line" smooth="yes"/>
      <point x="1734" y="1052"/>
      <point x="1567" y="1189"/>
      <point x="1254" y="1189" type="curve" smooth="yes"/>
      <point x="1193" y="1189"/>
      <point x="1139" y="1184"/>
      <point x="1078" y="1174" type="curve"/>
      <point x="1078" y="880" type="line"/>
      <point x="1099" y="883"/>
      <point x="1127" y="885"/>
      <point x="1162" y="885" type="curve" smooth="yes"/>
      <point x="1290" y="885"/>
      <point x="1352" y="849"/>
      <point x="1352" y="769" type="curve" smooth="yes"/>
      <point x="1352" y="764" type="line" smooth="yes"/>
      <point x="1352" y="651"/>
      <point x="1196" y="597"/>
      <point x="889" y="597" type="curve" smooth="yes"/>
      <point x="531" y="597"/>
      <point x="366" y="655.489"/>
      <point x="366" y="759" type="curve" smooth="yes"/>
      <point x="366" y="785.577" type="line"/>
      <point x="30" y="811.038" type="line"/>
      <point x="30" y="804" type="line" smooth="yes"/>
      <point x="30" y="496"/>
      <point x="273" y="354"/>
    </contour>
    <contour>
      <point x="366" y="779.666" type="line"/>
      <point x="366" y="799" type="line" smooth="yes"/>
      <point x="366" y="901"/>
      <point x="419" y="953"/>
      <point x="519" y="953" type="curve" smooth="yes"/>
      <point x="589" y="953"/>
      <point x="622" y="932"/>
      <point x="622" y="896" type="curve"/>
      <point x="622" y="894" type="line"/>
      <point x="622" y="857"/>
      <point x="587" y="838"/>
      <point x="514" y="838" type="curve" smooth="yes"/>
      <point x="457" y="838"/>
      <point x="406" y="856"/>
      <point x="368" y="889" type="curve"/>
      <point x="276" y="746" type="line"/>
      <point x="375" y="746" type="line"/>
      <point x="416" y="684"/>
      <point x="512" y="648"/>
      <point x="651" y="648" type="curve" smooth="yes"/>
      <point x="860" y="648"/>
      <point x="973" y="739"/>
      <point x="973" y="904" type="curve"/>
      <point x="973" y="906" type="line"/>
      <point x="973" y="1104"/>
      <point x="817" y="1211"/>
      <point x="522" y="1211" type="curve" smooth="yes"/>
      <point x="207" y="1211"/>
      <point x="30" y="1073"/>
      <point x="30" y="815" type="curve" smooth="yes"/>
      <point x="30" y="808.591" type="line"/>
    </contour>
  </outline>
</glyph>
<glyph name="Aidu.kn" format="2">
  <advance width="2271"/>
  <unicode hex="0CEB"/>
  <outline>
    <contour>
      <point x="604" y="1211" type="curve" smooth="yes"/>
      <point x="270" y="1211"/>
      <point x="92" y="1075"/>
      <point x="92" y="823" type="curve" smooth="yes"/>
      <point x="92" y="818" type="line" smooth="yes"/>
      <point x="92" y="777"/>
      <point x="98" y="733"/>
      <point x="113" y="699" type="curve"/>
      <point x="483" y="699" type="line"/>
      <point x="477" y="713"/>
      <point x="473" y="735"/>
      <point x="473" y="757" type="curve"/>
      <point x="473" y="758" type="line"/>
      <point x="473" y="845"/>
      <point x="522" y="890"/>
      <point x="613" y="890" type="curve" smooth="yes"/>
      <point x="738" y="890"/>
      <point x="806" y="794"/>
      <point x="806" y="607" type="curve" smooth="yes"/>
      <point x="806" y="595" type="line"/>
      <point x="804" y="558" type="line"/>
      <point x="804" y="537" type="line"/>
      <point x="797" y="378"/>
      <point x="754" y="241"/>
      <point x="569" y="241" type="curve" smooth="yes"/>
      <point x="488" y="241"/>
      <point x="453" y="270"/>
      <point x="453" y="318" type="curve"/>
      <point x="453" y="320" type="line"/>
      <point x="453" y="372"/>
      <point x="483" y="395"/>
      <point x="552" y="395" type="curve" smooth="yes"/>
      <point x="853" y="395" type="line"/>
      <point x="1064" y="395" type="line"/>
      <point x="1553" y="395" type="line" smooth="yes"/>
      <point x="1687" y="395"/>
      <point x="1810" y="418"/>
      <point x="1898" y="447" type="curve"/>
      <point x="1898" y="492" type="line"/>
      <point x="2069" y="513"/>
      <point x="2194" y="630"/>
      <point x="2194" y="824" type="curve"/>
      <point x="2194" y="825" type="line"/>
      <point x="2194" y="1079"/>
      <point x="2027" y="1209"/>
      <point x="1702" y="1209" type="curve" smooth="yes"/>
      <point x="1402" y="1209"/>
      <point x="1245" y="1100"/>
      <point x="1245" y="891" type="curve" smooth="yes"/>
      <point x="1245" y="887" type="line" smooth="yes"/>
      <point x="1245" y="758"/>
      <point x="1325" y="665"/>
      <point x="1473" y="628" type="curve"/>
      <point x="1725" y="423" type="line"/>
      <point x="1780" y="400"/>
      <point x="1801" y="378"/>
      <point x="1801" y="345" type="curve"/>
      <point x="1801" y="344" type="line"/>
      <point x="1801" y="301"/>
      <point x="1760" y="276"/>
      <point x="1652" y="276" type="curve" smooth="yes"/>
      <point x="1526" y="276"/>
      <point x="1385" y="292"/>
      <point x="1290" y="318" type="curve"/>
      <point x="1331" y="14" type="line"/>
      <point x="1447" y="-17"/>
      <point x="1571" y="-33"/>
      <point x="1696" y="-33" type="curve" smooth="yes"/>
      <point x="2018" y="-33"/>
      <point x="2177" y="69"/>
      <point x="2177" y="285" type="curve" smooth="yes"/>
      <point x="2177" y="288" type="line" smooth="yes"/>
      <point x="2177" y="400"/>
      <point x="2123" y="483"/>
      <point x="2002" y="549" type="curve" smooth="yes"/>
      <point x="1778" y="671" type="line"/>
      <point x="1659" y="699"/>
      <point x="1602" y="738"/>
      <point x="1602" y="802" type="curve"/>
      <point x="1602" y="804" type="line"/>
      <point x="1602" y="861"/>
      <point x="1640" y="890"/>
      <point x="1706" y="890" type="curve" smooth="yes"/>
      <point x="1778" y="890"/>
      <point x="1817" y="857"/>
      <point x="1817" y="797" type="curve" smooth="yes"/>
      <point x="1817" y="794" type="line" smooth="yes"/>
      <point x="1817" y="714"/>
      <point x="1721" y="659"/>
      <point x="1544" y="659" type="curve" smooth="yes"/>
      <point x="1099" y="659" type="line"/>
      <point x="872" y="663" type="line"/>
      <point x="531" y="663" type="line" smooth="yes"/>
      <point x="225" y="663"/>
      <point x="71" y="547"/>
      <point x="71" y="326" type="curve"/>
      <point x="71" y="325" type="line"/>
      <point x="71" y="90"/>
      <point x="242" y="-37"/>
      <point x="568" y="-37" type="curve" smooth="yes"/>
      <point x="992" y="-37"/>
      <point x="1190" y="164"/>
      <point x="1190" y="595" type="curve" smooth="yes"/>
      <point x="1190" y="600" type="line" smooth="yes"/>
      <point x="1190" y="1000"/>
      <point x="986" y="1211"/>
    </contour>
  </outline>
</glyph>
<glyph name="Yelu.kn" format="2">
  <advance width="1601"/>
  <unicode hex="0CED"/>
  <outline>
    <contour>
      <point x="647" y="1211" type="curve" smooth="yes"/>
      <point x="313" y="1211"/>
      <point x="128" y="1082"/>
      <point x="128" y="848" type="curve" smooth="yes"/>
      <point x="128" y="841" type="line" smooth="yes"/>
      <point x="128" y="776"/>
      <point x="145" y="724"/>
      <point x="165" y="693" type="curve"/>
      <point x="502" y="693" type="line"/>
      <point x="484" y="721"/>
      <point x="474" y="755"/>
      <point x="474" y="788" type="curve" smooth="yes"/>
      <point x="474" y="791" type="line" smooth="yes"/>
      <point x="474" y="869"/>
      <point x="532" y="907"/>
      <point x="649" y="907" type="curve" smooth="yes"/>
      <point x="749" y="907"/>
      <point x="797" y="879"/>
      <point x="797" y="823" type="curve"/>
      <point x="797" y="821" type="line"/>
      <point x="797" y="771"/>
      <point x="755" y="750"/>
      <point x="599" y="724" type="curve" smooth="yes"/>
      <point x="492" y="706" type="line" smooth="yes"/>
      <point x="199" y="657"/>
      <point x="80" y="551"/>
      <point x="80" y="340" type="curve" smooth="yes"/>
      <point x="80" y="332" type="line" smooth="yes"/>
      <point x="80" y="118"/>
      <point x="238" y="0"/>
      <point x="528" y="0" type="curve" smooth="yes"/>
      <point x="1515" y="0" type="line"/>
      <point x="1576" y="290" type="line"/>
      <point x="553" y="290" type="line" smooth="yes"/>
      <point x="476" y="290"/>
      <point x="444" y="306"/>
      <point x="444" y="344" type="curve"/>
      <point x="444" y="345" type="line"/>
      <point x="444" y="388"/>
      <point x="483" y="408"/>
      <point x="613" y="430" type="curve" smooth="yes"/>
      <point x="730" y="450" type="line" smooth="yes"/>
      <point x="1021" y="500"/>
      <point x="1156" y="607"/>
      <point x="1156" y="817" type="curve" smooth="yes"/>
      <point x="1156" y="823" type="line" smooth="yes"/>
      <point x="1156" y="1074"/>
      <point x="976" y="1211"/>
    </contour>
  </outline>
</glyph>
<glyph name="Ombattu.kn" format="2">
  <advance width="1533"/>
  <unicode hex="0CEF"/>
  <outline>
    <contour>
      <point x="465" y="807" type="line" smooth="yes"/>
      <point x="465" y="860"/>
      <point x="516" y="886"/>
      <point x="611" y="886" type="curve" smooth="yes"/>
      <point x="1483" y="886" type="line"/>
      <point x="1483" y="1174" type="line"/>
      <point x="572" y="1174" type="line" smooth="yes"/>
      <point x="255" y="1174"/>
      <point x="85" y="1063"/>
      <point x="85" y="852" type="curve" smooth="yes"/>
      <point x="85" y="845" type="line" smooth="yes"/>
      <point x="85" y="704.092"/>
      <point x="169.896" y="615.86"/>
      <point x="327" y="593.525" type="curve"/>
      <point x="327" y="583.989" type="line"/>
      <point x="172.992" y="560.173"/>
      <point x="90" y="466.395"/>
      <point x="90" y="319" type="curve" smooth="yes"/>
      <point x="90" y="312" type="line" smooth="yes"/>
      <point x="90" y="105"/>
      <point x="257" y="0"/>
      <point x="572" y="0" type="curve" smooth="yes"/>
      <point x="828" y="0" type="line"/>
      <point x="885" y="288" type="line"/>
      <point x="605" y="288" type="line" smooth="yes"/>
      <point x="518" y="288"/>
      <point x="474" y="309"/>
      <point x="474" y="359" type="curve" smooth="yes"/>
      <point x="474" y="363" type="line" smooth="yes"/>
      <point x="474" y="417"/>
      <point x="511" y="442"/>
      <point x="601" y="443" type="curve" smooth="yes"/>
      <point x="998" y="446" type="line"/>
      <point x="998" y="723" type="line"/>
      <point x="618" y="726" type="line" smooth="yes"/>
      <point x="509" y="727"/>
      <point x="465" y="752"/>
      <point x="465" y="803" type="curve" smooth="yes"/>
    </contour>
  </outline>
</glyph>
<glyph name="Jihvamuliya.kn" format="2">
  <advance width="1430"/>
  <unicode hex="0CF1"/>
  <outline>
    <contour>
      <point x="77" y="1174" type="line"/>
      <point x="77" y="919" type="line"/>
      <point x="444" y="589" type="line"/>
      <point x="75" y="255" type="line"/>
      <point x="75" y="0" type="line"/>
      <point x="1351" y="0" type="line"/>
      <point x="1351" y="255" type="line"/>
      <point x="982" y="589" type="line"/>
      <point x="1349" y="919" type="line"/>
      <point x="1349" y="1174" type="line"/>
    </contour>
    <contour>
      <point x="511" y="913" type="line"/>
      <point x="915" y="913" type="line"/>
      <point x="713" y="721" type="line"/>
    </contour>
    <contour>
      <point x="510" y="261" type="line"/>
      <point x="713" y="455" type="line"/>
      <point x="916" y="261" type="line"/>
    </contour>
  </outline>
</glyph>
<glyph name="Upadhmaniya.kn" format="2">
  <advance width="1922"/>
  <unicode hex="0CF2"/>
  <outline>
    <contour>
      <point x="474" y="903" type="curve" smooth="yes"/>
      <point x="176" y="903"/>
      <point x="25" y="788"/>
      <point x="25" y="560" type="curve" smooth="yes"/>
      <point x="25" y="557" type="line" smooth="yes"/>
      <point x="25" y="329"/>
      <point x="176" y="214"/>
      <point x="474" y="214" type="curve" smooth="yes"/>
      <point x="772" y="214"/>
      <point x="923" y="329"/>
      <point x="923" y="557" type="curve" smooth="yes"/>
      <point x="923" y="560" type="line" smooth="yes"/>
      <point x="923" y="788"/>
      <point x="772" y="903"/>
    </contour>
    <contour>
      <point x="474" y="651" type="curve" smooth="yes"/>
      <point x="544" y="651"/>
      <point x="586" y="620"/>
      <point x="586" y="560" type="curve" smooth="yes"/>
      <point x="586" y="557" type="line" smooth="yes"/>
      <point x="586" y="497"/>
      <point x="544" y="466"/>
      <point x="474" y="466" type="curve" smooth="yes"/>
      <point x="404" y="466"/>
      <point x="362" y="497"/>
      <point x="362" y="557" type="curve" smooth="yes"/>
      <point x="362" y="560" type="line" smooth="yes"/>
      <point x="362" y="620"/>
      <point x="404" y="651"/>
    </contour>
    <contour>
      <point x="1448" y="903" type="curve" smooth="yes"/>
      <point x="1150" y="903"/>
      <point x="999" y="788"/>
      <point x="999" y="560" type="curve" smooth="yes"/>
      <point x="999" y="557" type="line" smooth="yes"/>
      <point x="999" y="329"/>
      <point x="1150" y="214"/>
      <point x="1448" y="214" type="curve" smooth="yes"/>
      <point x="1746" y="214"/>
      <point x="1897" y="329"/>
      <point x="1897" y="557" type="curve" smooth="yes"/>
      <point x="1897" y="560" type="line" smooth="yes"/>
      <point x="1897" y="788"/>
      <point x="1746" y="903"/>
    </contour>
    <contour>
      <point x="1448" y="651" type="curve" smooth="yes"/>
      <point x="1518" y="651"/>
      <point x="1560" y="620"/>
      <point x="1560" y="560" type="curve" smooth="yes"/>
      <point x="1560" y="557" type="line" smooth="yes"/>
      <point x="1560" y="497"/>
      <point x="1518" y="466"/>
      <point x="1448" y="466" type="curve" smooth="yes"/>
      <point x="1378" y="466"/>
      <point x="1336" y="497"/>
      <point x="1336" y="557" type="curve" smooth="yes"/>
      <point x="1336" y="560" type="line" smooth="yes"/>
      <point x="1336" y="620"/>
      <point x="1378" y="651"/>
    </contour>
  </outline>
</glyph>
<glyph name="quoteleft" format="2">
  <advance width="558"/>
  <unicode hex="2018"/>
  <outline>
    <contour>
      <point x="450" y="773" type="line"/>
      <point x="446" y="816"/>
      <point x="444" y="854"/>
      <point x="444" y="896" type="curve" smooth="yes"/>
      <point x="444" y="1049"/>
      <point x="473" y="1172"/>
      <point x="526" y="1286" type="curve"/>
      <point x="249" y="1341" type="line"/>
      <point x="128" y="1208"/>
      <point x="76" y="1060"/>
      <point x="76" y="884" type="curve" smooth="yes"/>
      <point x="76" y="845"/>
      <point x="80" y="802"/>
      <point x="85" y="773" type="curve"/>
    </contour>
  </outline>
</glyph>
<glyph name="guilsinglleft" format="2">
  <advance width="758"/>
  <unicode hex="2039"/>
  <outline>
    <contour>
      <point x="758" y="893" type="line"/>
      <point x="379" y="893" type="line"/>
      <point x="36" y="510" type="line"/>
      <point x="36" y="466" type="line"/>
      <point x="379" y="59" type="line"/>
      <point x="758" y="59" type="line"/>
      <point x="399" y="475" type="line"/>
    </contour>
  </outline>
</glyph>
<glyph name="zerosuperior" format="2">
  <advance width="956"/>
  <unicode hex="2070"/>
  <outline>
    <contour>
      <point x="478" y="723" type="curve" smooth="yes"/>
      <point x="759" y="723"/>
      <point x="910" y="850"/>
      <point x="910" y="1084" type="curve"/>
      <point x="910" y="1091" type="line"/>
      <point x="910" y="1323"/>
      <point x="759" y="1451"/>
      <point x="478" y="1451" type="curve" smooth="yes"/>
      <point x="197" y="1451"/>
      <point x="46" y="1323"/>
      <point x="46" y="1091" type="curve"/>
      <point x="46" y="1084" type="line"/>
      <point x="46" y="850"/>
      <point x="198" y="723"/>
    </contour>
    <contour>
      <point x="478" y="939" type="curve" smooth="yes"/>
      <point x="373" y="939"/>
      <point x="322" y="993"/>
      <point x="322" y="1083" type="curve" smooth="yes"/>
      <point x="322" y="1091" type="line" smooth="yes"/>
      <point x="322" y="1181"/>
      <point x="372" y="1235"/>
      <point x="478" y="1235" type="curve" smooth="yes"/>
      <point x="584" y="1235"/>
      <point x="634" y="1182"/>
      <point x="634" y="1091" type="curve" smooth="yes"/>
      <point x="634" y="1083" type="line" smooth="yes"/>
      <point x="634" y="993"/>
      <point x="584" y="939"/>
    </contour>
  </outline>
</glyph>
<glyph name="euro" format="2">
  <advance width="1452"/>
  <unicode hex="20AC"/>
  <outline>
    <contour>
      <point x="956" y="-45" type="curve" smooth="yes"/>
      <point x="1132" y="-45"/>
      <point x="1272" y="-7"/>
      <point x="1336" y="17" type="curve"/>
      <point x="1370" y="363" type="line"/>
      <point x="1294" y="327"/>
      <point x="1162" y="297"/>
      <point x="1020" y="297" type="curve" smooth="yes"/>
      <point x="707" y="297"/>
      <point x="594" y="427"/>
      <point x="594" y="637" type="curve"/>
      <point x="594" y="653" type="line"/>
      <point x="594" y="859"/>
      <point x="707" y="988"/>
      <point x="998" y="988" type="curve" smooth="yes"/>
      <point x="1147" y="988"/>
      <point x="1272" y="962"/>
      <point x="1365" y="922" type="curve"/>
      <point x="1331" y="1255" type="line"/>
      <point x="1247" y="1290"/>
      <point x="1111" y="1322"/>
      <point x="956" y="1322" type="curve" smooth="yes"/>
      <point x="409" y="1322"/>
      <point x="166" y="1069"/>
      <point x="166" y="651" type="curve"/>
      <point x="166" y="635" type="line"/>
      <point x="166" y="207"/>
      <point x="413" y="-45"/>
    </contour>
    <contour>
      <point x="1178" y="400" type="line"/>
      <point x="1197" y="594" type="line"/>
      <point x="39" y="594" type="line"/>
      <point x="20" y="400" type="line"/>
    </contour>
    <contour>
      <point x="1178" y="692" type="line"/>
      <point x="1197" y="886" type="line"/>
      <point x="39" y="886" type="line"/>
      <point x="20" y="692" type="line"/>
    </contour>
  </outline>
</glyph>
<glyph name="BaHalant.kn" format="2">
  <advance width="2989"/>
  <outline>
    <component base="Halant.kn" xOffset="2060"/>
    <contour>
      <point x="605" y="1211" type="curve" smooth="yes"/>
      <point x="280" y="1211"/>
      <point x="101" y="1082"/>
      <point x="101" y="848" type="curve" smooth="yes"/>
      <point x="101" y="841" type="line" smooth="yes"/>
      <point x="101" y="776"/>
      <point x="118" y="724"/>
      <point x="138" y="693" type="curve"/>
      <point x="472" y="693" type="line"/>
      <point x="454" y="721"/>
      <point x="444" y="755"/>
      <point x="444" y="788" type="curve" smooth="yes"/>
      <point x="444" y="791" type="line" smooth="yes"/>
      <point x="444" y="871"/>
      <point x="498" y="911"/>
      <point x="607" y="911" type="curve" smooth="yes"/>
      <point x="701" y="911"/>
      <point x="746" y="882"/>
      <point x="746" y="825" type="curve"/>
      <point x="746" y="823" type="line"/>
      <point x="746" y="773"/>
      <point x="709" y="750"/>
      <point x="579" y="726" type="curve" smooth="yes"/>
      <point x="482" y="708" type="line" smooth="yes"/>
      <point x="194" y="655"/>
      <point x="76" y="553"/>
      <point x="76" y="343" type="curve" smooth="yes"/>
      <point x="76" y="335" type="line" smooth="yes"/>
      <point x="76" y="95"/>
      <point x="255" y="-37"/>
      <point x="578" y="-37" type="curve" smooth="yes"/>
      <point x="862" y="-37"/>
      <point x="1013" y="74"/>
      <point x="1036" y="273" type="curve"/>
      <point x="1046" y="273" type="line"/>
      <point x="1067" y="74"/>
      <point x="1211" y="-37"/>
      <point x="1481" y="-37" type="curve" smooth="yes"/>
      <point x="1815" y="-37"/>
      <point x="1990" y="142"/>
      <point x="1990" y="482" type="curve" smooth="yes"/>
      <point x="1990" y="487" type="line" smooth="yes"/>
      <point x="1990" y="705"/>
      <point x="1895" y="841"/>
      <point x="1704" y="882" type="curve"/>
      <point x="1704" y="911" type="line"/>
      <point x="1237" y="911" type="line"/>
      <point x="1237" y="889" type="line"/>
      <point x="1482" y="889"/>
      <point x="1600" y="775"/>
      <point x="1600" y="548" type="curve" smooth="yes"/>
      <point x="1600" y="532" type="line" smooth="yes"/>
      <point x="1600" y="376"/>
      <point x="1541" y="298"/>
      <point x="1422" y="298" type="curve" smooth="yes"/>
      <point x="1313" y="298"/>
      <point x="1255" y="353"/>
      <point x="1248" y="460" type="curve" smooth="yes"/>
      <point x="1247" y="476" type="line"/>
      <point x="835" y="476" type="line"/>
      <point x="834" y="462" type="line" smooth="yes"/>
      <point x="825" y="340"/>
      <point x="742" y="276"/>
      <point x="589" y="276" type="curve" smooth="yes"/>
      <point x="487" y="276"/>
      <point x="440" y="303"/>
      <point x="440" y="351" type="curve" smooth="yes"/>
      <point x="440" y="355" type="line" smooth="yes"/>
      <point x="440" y="404"/>
      <point x="479" y="427"/>
      <point x="613" y="452" type="curve" smooth="yes"/>
      <point x="710" y="470" type="line" smooth="yes"/>
      <point x="974" y="519"/>
      <point x="1099" y="618"/>
      <point x="1099" y="817" type="curve" smooth="yes"/>
      <point x="1099" y="823" type="line" smooth="yes"/>
      <point x="1099" y="1074"/>
      <point x="925" y="1211"/>
    </contour>
    <contour>
      <point x="1197" y="889" type="line"/>
      <point x="1606" y="889" type="line"/>
      <point x="1606" y="1174" type="line"/>
      <point x="1197" y="1174" type="line"/>
    </contour>
  </outline>
</glyph>
<glyph name="BamatraI.kn" format="2">
  <advance width="2129"/>
  <outline>
    <contour>
      <point x="605" y="1211" type="curve" smooth="yes"/>
      <point x="280" y="1211"/>
      <point x="101" y="1082"/>
      <point x="101" y="848" type="curve" smooth="yes"/>
      <point x="101" y="841" type="line" smooth="yes"/>
      <point x="101" y="776"/>
      <point x="118" y="724"/>
      <point x="138" y="693" type="curve"/>
      <point x="472" y="693" type="line"/>
      <point x="454" y="721"/>
      <point x="444" y="755"/>
      <point x="444" y="788" type="curve" smooth="yes"/>
      <point x="444" y="791" type="line" smooth="yes"/>
      <point x="444" y="871"/>
      <point x="498" y="911"/>
      <point x="607" y="911" type="curve" smooth="yes"/>
      <point x="701" y="911"/>
      <point x="746" y="882"/>
      <point x="746" y="825" type="curve"/>
      <point x="746" y="823" type="line"/>
      <point x="746" y="773"/>
      <point x="709" y="750"/>
      <point x="579" y="726" type="curve" smooth="yes"/>
      <point x="482" y="708" type="line" smooth="yes"/>
      <point x="194" y="655"/>
      <point x="76" y="553"/>
      <point x="76" y="343" type="curve" smooth="yes"/>
      <point x="76" y="335" type="line" smooth="yes"/>
      <point x="76" y="95"/>
      <point x="256.07" y="-37"/>
      <point x="581" y="-37" type="curve" smooth="yes"/>
      <point x="867.48" y="-37"/>
      <point x="1019.8" y="74"/>
      <point x="1043" y="273" type="curve"/>
      <point x="1064" y="273" type="line"/>
      <point x="1064" y="476" type="line"/>
      <point x="842" y="476" type="line"/>
      <point x="841" y="462" type="line" smooth="yes"/>
      <point x="832.283" y="339.969"/>
      <point x="747.498" y="276"/>
      <point x="592" y="276" type="curve" smooth="yes"/>
      <point x="487.946" y="276"/>
      <point x="440" y="303"/>
      <point x="440" y="351" type="curve" smooth="yes"/>
      <point x="440" y="355" type="line" smooth="yes"/>
      <point x="440" y="404"/>
      <point x="479" y="427"/>
      <point x="613" y="452" type="curve" smooth="yes"/>
      <point x="710" y="470" type="line" smooth="yes"/>
      <point x="974" y="519"/>
      <point x="1099" y="618"/>
      <point x="1099" y="817" type="curve" smooth="yes"/>
      <point x="1099" y="823" type="line" smooth="yes"/>
      <point x="1099" y="1074"/>
      <point x="925" y="1211"/>
    </contour>
    <contour>
      <point x="2036" y="698" type="curve" smooth="yes"/>
      <point x="2036" y="705" type="line" smooth="yes"/>
      <point x="2036" y="778.777"/>
      <point x="2031.28" y="850.649"/>
      <point x="2020.81" y="918.815" type="curve" smooth="yes"/>
      <point x="1976.53" y="1206.88"/>
      <point x="1815.05" y="1425"/>
      <point x="1452" y="1425" type="curve" smooth="yes"/>
      <point x="1156" y="1425"/>
      <point x="1000" y="1295"/>
      <point x="1000" y="1056" type="curve"/>
      <point x="1000" y="1054" type="line"/>
      <point x="1000" y="843"/>
      <point x="1133" y="721"/>
      <point x="1353" y="721" type="curve" smooth="yes"/>
      <point x="1507.12" y="721"/>
      <point x="1598.79" y="776.402"/>
      <point x="1628" y="875" type="curve"/>
      <point x="1651" y="875" type="line"/>
      <point x="1602" y="1048" type="line"/>
      <point x="1564" y="997"/>
      <point x="1510" y="972"/>
      <point x="1452" y="972" type="curve" smooth="yes"/>
      <point x="1377" y="972"/>
      <point x="1339" y="998"/>
      <point x="1339" y="1048" type="curve"/>
      <point x="1339" y="1050" type="line"/>
      <point x="1339" y="1106"/>
      <point x="1380" y="1135"/>
      <point x="1450" y="1135" type="curve" smooth="yes"/>
      <point x="1540" y="1135"/>
      <point x="1588" y="1077"/>
      <point x="1614" y="966" type="curve"/>
      <point x="1615" y="961"/>
      <point x="1615" y="956"/>
      <point x="1617" y="950" type="curve" smooth="yes"/>
      <point x="1620" y="941"/>
      <point x="1623" y="930"/>
      <point x="1626" y="921" type="curve"/>
      <point x="1626.62" y="919.415"/>
      <point x="1632.38" y="904.585"/>
      <point x="1633" y="903" type="curve"/>
      <point x="1637" y="881" type="line"/>
      <point x="1643.55" y="832.111"/>
      <point x="1646" y="771.815"/>
      <point x="1646" y="705" type="curve" smooth="yes"/>
      <point x="1646" y="699" type="line" smooth="yes"/>
      <point x="1646" y="430"/>
      <point x="1575" y="298"/>
      <point x="1428" y="298" type="curve" smooth="yes"/>
      <point x="1320.36" y="298"/>
      <point x="1261.69" y="352.977"/>
      <point x="1255" y="460" type="curve" smooth="yes"/>
      <point x="1254" y="476" type="line"/>
      <point x="1032" y="476" type="line"/>
      <point x="1053" y="273" type="line" smooth="yes"/>
      <point x="1073.59" y="73.9521"/>
      <point x="1218.38" y="-37"/>
      <point x="1487" y="-37" type="curve" smooth="yes"/>
      <point x="1849" y="-37"/>
      <point x="2036" y="216"/>
    </contour>
  </outline>
</glyph>
<glyph name="BhamatraAa.kn" format="2">
  <advance width="3220"/>
  <outline>
    <component base="BamatraAa.kn"/>
    <contour>
      <point x="1043" y="-462" type="curve" smooth="yes"/>
      <point x="1179" y="-462"/>
      <point x="1250" y="-397"/>
      <point x="1250" y="-272" type="curve" smooth="yes"/>
      <point x="1250" y="-264" type="line" smooth="yes"/>
      <point x="1250" y="-153"/>
      <point x="1193" y="-65"/>
      <point x="1043" y="46" type="curve"/>
      <point x="893" y="-65"/>
      <point x="836" y="-153"/>
      <point x="836" y="-264" type="curve" smooth="yes"/>
      <point x="836" y="-272" type="line" smooth="yes"/>
      <point x="836" y="-397"/>
      <point x="907" y="-462"/>
    </contour>
  </outline>
  <guideline angle="90" x="78" y="0"/>
</glyph>
<glyph name="BhamatraE.kn" format="2">
  <advance width="2083"/>
  <outline>
    <component base="BamatraE.kn"/>
    <contour>
      <point x="1041" y="-462" type="curve" smooth="yes"/>
      <point x="1177" y="-462"/>
      <point x="1248" y="-397"/>
      <point x="1248" y="-272" type="curve" smooth="yes"/>
      <point x="1248" y="-264" type="line" smooth="yes"/>
      <point x="1248" y="-153"/>
      <point x="1191" y="-65"/>
      <point x="1041" y="46" type="curve"/>
      <point x="891" y="-65"/>
      <point x="834" y="-153"/>
      <point x="834" y="-264" type="curve" smooth="yes"/>
      <point x="834" y="-272" type="line" smooth="yes"/>
      <point x="834" y="-397"/>
      <point x="905" y="-462"/>
    </contour>
  </outline>
</glyph>
<glyph name="BhamatraI.kn" format="2">
  <advance width="2129"/>
  <outline>
    <component base="BamatraI.kn"/>
    <contour>
      <point x="1050" y="-462" type="curve" smooth="yes"/>
      <point x="1186" y="-462"/>
      <point x="1257" y="-397"/>
      <point x="1257" y="-272" type="curve" smooth="yes"/>
      <point x="1257" y="-264" type="line" smooth="yes"/>
      <point x="1257" y="-153"/>
      <point x="1200" y="-65"/>
      <point x="1050" y="46" type="curve"/>
      <point x="900" y="-65"/>
      <point x="843" y="-153"/>
      <point x="843" y="-264" type="curve" smooth="yes"/>
      <point x="843" y="-272" type="line" smooth="yes"/>
      <point x="843" y="-397"/>
      <point x="914" y="-462"/>
    </contour>
  </outline>
  <guideline angle="90" x="78" y="0"/>
</glyph>
<glyph name="CamatraAu.kn" format="2">
  <advance width="3171"/>
  <outline>
    <component base="matraAu.kn" xOffset="1246"/>
    <contour>
      <point x="1647" y="471" type="line"/>
      <point x="1798" y="470" type="line"/>
      <point x="1798" y="485" type="line"/>
      <point x="2036" y="473" type="line"/>
      <point x="2036" y="736" type="line"/>
      <point x="1813" y="723" type="line"/>
      <point x="1637" y="738" type="line"/>
      <point x="1289" y="738" type="line"/>
      <point x="1289" y="471" type="line"/>
    </contour>
    <contour>
      <point x="1805" y="889" type="line"/>
      <point x="1805" y="1174" type="line"/>
      <point x="1244" y="1174" type="line"/>
      <point x="1244" y="889" type="line"/>
    </contour>
    <contour>
      <point x="1979" y="276" type="line"/>
      <point x="1979" y="393"/>
      <point x="1908" y="461"/>
      <point x="1798" y="476" type="curve"/>
      <point x="1447" y="502" type="line"/>
      <point x="1447" y="471" type="line"/>
      <point x="1561" y="471"/>
      <point x="1607" y="444"/>
      <point x="1607" y="384" type="curve"/>
      <point x="1607" y="383" type="line"/>
      <point x="1607" y="322"/>
      <point x="1559" y="288"/>
      <point x="1458" y="288" type="curve" smooth="yes"/>
      <point x="1326" y="288"/>
      <point x="1255" y="346"/>
      <point x="1248" y="460" type="curve" smooth="yes"/>
      <point x="1247" y="476" type="line"/>
      <point x="1035" y="476" type="line"/>
      <point x="1046" y="273" type="line"/>
      <point x="1070" y="74"/>
      <point x="1224" y="-37"/>
      <point x="1515" y="-37" type="curve" smooth="yes"/>
      <point x="1820" y="-37"/>
      <point x="1979" y="74"/>
      <point x="1979" y="274" type="curve"/>
    </contour>
    <contour>
      <point x="1910" y="812" type="line"/>
      <point x="1910" y="858"/>
      <point x="1876" y="878"/>
      <point x="1813" y="883" type="curve"/>
      <point x="1813" y="910" type="line"/>
      <point x="1436" y="920" type="line"/>
      <point x="1436" y="889" type="line"/>
      <point x="1523" y="889"/>
      <point x="1558" y="866"/>
      <point x="1558" y="814" type="curve"/>
      <point x="1558" y="813" type="line"/>
      <point x="1558" y="762"/>
      <point x="1523" y="738"/>
      <point x="1436" y="738" type="curve"/>
      <point x="1436" y="707" type="line"/>
      <point x="1813" y="703" type="line"/>
      <point x="1813" y="732" type="line"/>
      <point x="1876" y="737"/>
      <point x="1910" y="763"/>
      <point x="1910" y="811" type="curve"/>
    </contour>
    <contour>
      <point x="605" y="1211" type="curve" smooth="yes"/>
      <point x="280" y="1211"/>
      <point x="101" y="1082"/>
      <point x="101" y="848" type="curve" smooth="yes"/>
      <point x="101" y="841" type="line" smooth="yes"/>
      <point x="101" y="776"/>
      <point x="118" y="724"/>
      <point x="138" y="693" type="curve"/>
      <point x="472" y="693" type="line"/>
      <point x="454" y="721"/>
      <point x="444" y="755"/>
      <point x="444" y="788" type="curve" smooth="yes"/>
      <point x="444" y="791" type="line" smooth="yes"/>
      <point x="444" y="871"/>
      <point x="498" y="911"/>
      <point x="607" y="911" type="curve" smooth="yes"/>
      <point x="701" y="911"/>
      <point x="746" y="882"/>
      <point x="746" y="825" type="curve"/>
      <point x="746" y="823" type="line"/>
      <point x="746" y="773"/>
      <point x="709" y="750"/>
      <point x="579" y="726" type="curve" smooth="yes"/>
      <point x="482" y="708" type="line" smooth="yes"/>
      <point x="194" y="655"/>
      <point x="76" y="553"/>
      <point x="76" y="343" type="curve" smooth="yes"/>
      <point x="76" y="335" type="line" smooth="yes"/>
      <point x="76" y="95"/>
      <point x="255" y="-37"/>
      <point x="578" y="-37" type="curve" smooth="yes"/>
      <point x="862" y="-37"/>
      <point x="1013" y="74"/>
      <point x="1036" y="273" type="curve"/>
      <point x="1057" y="273" type="line"/>
      <point x="1057" y="476" type="line"/>
      <point x="835" y="476" type="line"/>
      <point x="834" y="462" type="line" smooth="yes"/>
      <point x="825" y="340"/>
      <point x="742" y="276"/>
      <point x="589" y="276" type="curve" smooth="yes"/>
      <point x="487" y="276"/>
      <point x="440" y="303"/>
      <point x="440" y="351" type="curve" smooth="yes"/>
      <point x="440" y="355" type="line" smooth="yes"/>
      <point x="440" y="404"/>
      <point x="479" y="427"/>
      <point x="613" y="452" type="curve" smooth="yes"/>
      <point x="710" y="470" type="line" smooth="yes"/>
      <point x="974" y="519"/>
      <point x="1099" y="618"/>
      <point x="1099" y="817" type="curve" smooth="yes"/>
      <point x="1099" y="823" type="line" smooth="yes"/>
      <point x="1099" y="1074"/>
      <point x="925" y="1211"/>
    </contour>
  </outline>
</glyph>
<glyph name="CamatraI.kn" format="2">
  <advance width="2118"/>
  <outline>
    <contour>
      <point x="1647" y="471" type="line"/>
      <point x="1798" y="470" type="line"/>
      <point x="1798" y="485" type="line"/>
      <point x="2036" y="473" type="line"/>
      <point x="2036" y="736" type="line"/>
      <point x="1813" y="723" type="line"/>
      <point x="1637" y="738" type="line"/>
      <point x="1289" y="738" type="line"/>
      <point x="1289" y="471" type="line"/>
    </contour>
    <contour>
      <point x="1979" y="276" type="line"/>
      <point x="1979" y="393"/>
      <point x="1908" y="461"/>
      <point x="1798" y="476" type="curve"/>
      <point x="1447" y="502" type="line"/>
      <point x="1447" y="471" type="line"/>
      <point x="1561" y="471"/>
      <point x="1607" y="444"/>
      <point x="1607" y="384" type="curve"/>
      <point x="1607" y="383" type="line"/>
      <point x="1607" y="322"/>
      <point x="1559" y="288"/>
      <point x="1458" y="288" type="curve" smooth="yes"/>
      <point x="1326" y="288"/>
      <point x="1255" y="346"/>
      <point x="1248" y="460" type="curve" smooth="yes"/>
      <point x="1247" y="476" type="line"/>
      <point x="1035" y="476" type="line"/>
      <point x="1046" y="273" type="line"/>
      <point x="1070" y="74"/>
      <point x="1224" y="-37"/>
      <point x="1515" y="-37" type="curve" smooth="yes"/>
      <point x="1820" y="-37"/>
      <point x="1979" y="74"/>
      <point x="1979" y="274" type="curve"/>
    </contour>
    <contour>
      <point x="605" y="1211" type="curve" smooth="yes"/>
      <point x="280" y="1211"/>
      <point x="101" y="1082"/>
      <point x="101" y="848" type="curve" smooth="yes"/>
      <point x="101" y="841" type="line" smooth="yes"/>
      <point x="101" y="776"/>
      <point x="118" y="724"/>
      <point x="138" y="693" type="curve"/>
      <point x="472" y="693" type="line"/>
      <point x="454" y="721"/>
      <point x="444" y="755"/>
      <point x="444" y="788" type="curve" smooth="yes"/>
      <point x="444" y="791" type="line" smooth="yes"/>
      <point x="444" y="871"/>
      <point x="498" y="911"/>
      <point x="607" y="911" type="curve" smooth="yes"/>
      <point x="701" y="911"/>
      <point x="746" y="882"/>
      <point x="746" y="825" type="curve"/>
      <point x="746" y="823" type="line"/>
      <point x="746" y="773"/>
      <point x="709" y="750"/>
      <point x="579" y="726" type="curve" smooth="yes"/>
      <point x="482" y="708" type="line" smooth="yes"/>
      <point x="194" y="655"/>
      <point x="76" y="553"/>
      <point x="76" y="343" type="curve" smooth="yes"/>
      <point x="76" y="335" type="line" smooth="yes"/>
      <point x="76" y="95"/>
      <point x="255" y="-37"/>
      <point x="578" y="-37" type="curve" smooth="yes"/>
      <point x="862" y="-37"/>
      <point x="1013" y="74"/>
      <point x="1036" y="273" type="curve"/>
      <point x="1057" y="273" type="line"/>
      <point x="1057" y="476" type="line"/>
      <point x="835" y="476" type="line"/>
      <point x="834" y="462" type="line" smooth="yes"/>
      <point x="825" y="340"/>
      <point x="742" y="276"/>
      <point x="589" y="276" type="curve" smooth="yes"/>
      <point x="487" y="276"/>
      <point x="440" y="303"/>
      <point x="440" y="351" type="curve" smooth="yes"/>
      <point x="440" y="355" type="line" smooth="yes"/>
      <point x="440" y="404"/>
      <point x="479" y="427"/>
      <point x="613" y="452" type="curve" smooth="yes"/>
      <point x="710" y="470" type="line" smooth="yes"/>
      <point x="974" y="519"/>
      <point x="1099" y="618"/>
      <point x="1099" y="817" type="curve" smooth="yes"/>
      <point x="1099" y="823" type="line" smooth="yes"/>
      <point x="1099" y="1074"/>
      <point x="925" y="1211"/>
    </contour>
    <contour>
      <point x="1522" y="1427" type="curve" smooth="yes"/>
      <point x="1244" y="1427"/>
      <point x="1096" y="1315"/>
      <point x="1096" y="1109" type="curve"/>
      <point x="1096" y="1107" type="line"/>
      <point x="1096" y="932"/>
      <point x="1219" y="831"/>
      <point x="1424" y="831" type="curve" smooth="yes"/>
      <point x="1563" y="831"/>
      <point x="1646" y="880"/>
      <point x="1673" y="966" type="curve"/>
      <point x="1709" y="966" type="line"/>
      <point x="1692" y="1104" type="line"/>
      <point x="1648" y="1060"/>
      <point x="1588" y="1038"/>
      <point x="1522" y="1038" type="curve" smooth="yes"/>
      <point x="1454" y="1038"/>
      <point x="1419" y="1060"/>
      <point x="1419" y="1101" type="curve"/>
      <point x="1419" y="1103" type="line"/>
      <point x="1419" y="1147"/>
      <point x="1457" y="1171"/>
      <point x="1522" y="1171" type="curve" smooth="yes"/>
      <point x="1626" y="1171"/>
      <point x="1682" y="1111"/>
      <point x="1682" y="1005" type="curve" smooth="yes"/>
      <point x="1682" y="962" type="line" smooth="yes"/>
      <point x="1682" y="815"/>
      <point x="1588" y="738"/>
      <point x="1413" y="738" type="curve"/>
      <point x="1813" y="633" type="line"/>
      <point x="1813" y="732" type="line"/>
      <point x="1922" y="769"/>
      <point x="2005" y="846"/>
      <point x="2005" y="1023" type="curve" smooth="yes"/>
      <point x="2005" y="1026" type="line" smooth="yes"/>
      <point x="2005" y="1279"/>
      <point x="1830" y="1427"/>
    </contour>
  </outline>
  <guideline angle="90" x="6696" y="0"/>
  <guideline angle="0" x="0" y="1458"/>
</glyph>
<glyph name="CamatraO.kn" format="2">
  <advance width="3801"/>
  <outline>
    <component base="CamatraE.kn"/>
    <contour>
      <point x="2097" y="294" type="curve" smooth="yes"/>
      <point x="2012" y="294"/>
      <point x="1964" y="347"/>
      <point x="1940" y="398" type="curve"/>
      <point x="1940" y="398"/>
      <point x="1940" y="398"/>
      <point x="1940" y="398" type="curve"/>
      <point x="1868" y="386" type="line"/>
      <point x="1868" y="271" type="line" smooth="yes"/>
      <point x="1868" y="79"/>
      <point x="1994" y="-36"/>
      <point x="2206" y="-36" type="curve" smooth="yes"/>
      <point x="2464" y="-36"/>
      <point x="2598" y="125"/>
      <point x="2598" y="429" type="curve" smooth="yes"/>
      <point x="2598" y="501" type="line"/>
      <point x="2223" y="507" type="line"/>
      <point x="2223" y="449" type="line" smooth="yes"/>
      <point x="2223" y="342"/>
      <point x="2183" y="294"/>
    </contour>
    <contour>
      <point x="2963.98" y="1211" type="curve" smooth="yes"/>
      <point x="2475.98" y="1211"/>
      <point x="2222.98" y="984"/>
      <point x="2222.98" y="547" type="curve" smooth="yes"/>
      <point x="2222.98" y="487" type="line"/>
      <point x="2597.98" y="487" type="line"/>
      <point x="2597.98" y="541" type="line" smooth="yes"/>
      <point x="2597.98" y="771"/>
      <point x="2721.98" y="886"/>
      <point x="2965.98" y="886" type="curve" smooth="yes"/>
      <point x="3206.98" y="886"/>
      <point x="3330.98" y="767"/>
      <point x="3330.98" y="541" type="curve" smooth="yes"/>
      <point x="3330.98" y="475.557" type="line"/>
      <point x="3710.98" y="523.496" type="line"/>
      <point x="3710.98" y="529" type="line" smooth="yes"/>
      <point x="3710.98" y="976"/>
      <point x="3454.98" y="1211"/>
    </contour>
    <contour>
      <point x="3710.98" y="524.496" type="line"/>
      <point x="3330.98" y="476.557" type="line"/>
      <point x="3330.98" y="452" type="line" smooth="yes"/>
      <point x="3330.98" y="328"/>
      <point x="3279.98" y="263"/>
      <point x="3182.98" y="263" type="curve" smooth="yes"/>
      <point x="3105.98" y="263"/>
      <point x="3063.98" y="299"/>
      <point x="3063.98" y="367" type="curve"/>
      <point x="3063.98" y="369" type="line"/>
      <point x="3063.98" y="431"/>
      <point x="3103.98" y="466"/>
      <point x="3182.98" y="466" type="curve" smooth="yes"/>
      <point x="3257.98" y="466"/>
      <point x="3322.98" y="436"/>
      <point x="3373.98" y="377" type="curve"/>
      <point x="3383.98" y="530" type="line"/>
      <point x="3320.98" y="530" type="line"/>
      <point x="3291.98" y="660"/>
      <point x="3199.98" y="731"/>
      <point x="3051.98" y="731" type="curve" smooth="yes"/>
      <point x="2832.98" y="731"/>
      <point x="2703.98" y="599"/>
      <point x="2703.98" y="374" type="curve"/>
      <point x="2703.98" y="372" type="line"/>
      <point x="2703.98" y="106"/>
      <point x="2872.98" y="-36"/>
      <point x="3185.98" y="-36" type="curve" smooth="yes"/>
      <point x="3521.98" y="-36"/>
      <point x="3710.98" y="158"/>
      <point x="3710.98" y="518" type="curve" smooth="yes"/>
    </contour>
  </outline>
</glyph>
<glyph name="CamatraU.kn" format="2">
  <advance width="2971"/>
  <outline>
    <component base="Ca.kn"/>
    <contour>
      <point x="2318" y="1183" type="curve" smooth="yes"/>
      <point x="2268" y="1183"/>
      <point x="2222" y="1179"/>
      <point x="2172" y="1171" type="curve"/>
      <point x="2172" y="840" type="line"/>
      <point x="2190" y="845"/>
      <point x="2215" y="847"/>
      <point x="2246" y="847" type="curve" smooth="yes"/>
      <point x="2407" y="847"/>
      <point x="2488" y="752"/>
      <point x="2488" y="562" type="curve" smooth="yes"/>
      <point x="2488" y="559" type="line" smooth="yes"/>
      <point x="2488" y="390"/>
      <point x="2390" y="298"/>
      <point x="2212" y="298" type="curve" smooth="yes"/>
      <point x="2057" y="298"/>
      <point x="1973" y="367"/>
      <point x="1916" y="424" type="curve"/>
      <point x="1842" y="415" type="line"/>
      <point x="1842" y="300" type="line" smooth="yes"/>
      <point x="1842" y="89"/>
      <point x="2018" y="-37"/>
      <point x="2312" y="-37" type="curve" smooth="yes"/>
      <point x="2678" y="-37"/>
      <point x="2878" y="173"/>
      <point x="2878" y="561" type="curve"/>
      <point x="2878" y="562" type="line"/>
      <point x="2878" y="963"/>
      <point x="2681" y="1183"/>
    </contour>
  </outline>
  <guideline angle="0" x="0" y="1536"/>
  <guideline angle="90" x="6533" y="0"/>
</glyph>
